G04*
G04 #@! TF.GenerationSoftware,Altium Limited,Altium Designer,22.5.1 (42)*
G04*
G04 Layer_Color=2752767*
%FSLAX44Y44*%
%MOMM*%
G71*
G04*
G04 #@! TF.SameCoordinates,8C462A5C-675D-4BC4-B2B0-4FF287324B2F*
G04*
G04*
G04 #@! TF.FilePolarity,Positive*
G04*
G01*
G75*
%ADD69C,0.0677*%
%ADD70C,0.0508*%
D69*
X1043432Y732790D02*
G03*
X1043432Y732790I-2032J0D01*
G01*
X1018032D02*
G03*
X1018032Y732790I-2032J0D01*
G01*
X992632D02*
G03*
X992632Y732790I-2032J0D01*
G01*
X967232D02*
G03*
X967232Y732790I-2032J0D01*
G01*
X941832D02*
G03*
X941832Y732790I-2032J0D01*
G01*
X916432D02*
G03*
X916432Y732790I-2032J0D01*
G01*
X891032D02*
G03*
X891032Y732790I-2032J0D01*
G01*
X865632D02*
G03*
X865632Y732790I-2032J0D01*
G01*
X840232D02*
G03*
X840232Y732790I-2032J0D01*
G01*
X814832D02*
G03*
X814832Y732790I-2032J0D01*
G01*
X789432D02*
G03*
X789432Y732790I-2032J0D01*
G01*
X764032D02*
G03*
X764032Y732790I-2032J0D01*
G01*
X738632D02*
G03*
X738632Y732790I-2032J0D01*
G01*
X713232D02*
G03*
X713232Y732790I-2032J0D01*
G01*
X687832D02*
G03*
X687832Y732790I-2032J0D01*
G01*
Y580390D02*
G03*
X687832Y580390I-2032J0D01*
G01*
X713232D02*
G03*
X713232Y580390I-2032J0D01*
G01*
X738632D02*
G03*
X738632Y580390I-2032J0D01*
G01*
X764032D02*
G03*
X764032Y580390I-2032J0D01*
G01*
X789432D02*
G03*
X789432Y580390I-2032J0D01*
G01*
X814832D02*
G03*
X814832Y580390I-2032J0D01*
G01*
X840232D02*
G03*
X840232Y580390I-2032J0D01*
G01*
X865632D02*
G03*
X865632Y580390I-2032J0D01*
G01*
X891032D02*
G03*
X891032Y580390I-2032J0D01*
G01*
X916432D02*
G03*
X916432Y580390I-2032J0D01*
G01*
X941832D02*
G03*
X941832Y580390I-2032J0D01*
G01*
X967232D02*
G03*
X967232Y580390I-2032J0D01*
G01*
X992632D02*
G03*
X992632Y580390I-2032J0D01*
G01*
X1018032D02*
G03*
X1018032Y580390I-2032J0D01*
G01*
X1043432D02*
G03*
X1043432Y580390I-2032J0D01*
G01*
D70*
X1045718Y801878D02*
Y805942D01*
X1049782D01*
Y801878D01*
X1045718D01*
Y878078D02*
Y882142D01*
X1049782D01*
Y878078D01*
X1045718D01*
Y852678D02*
Y856742D01*
X1049782D01*
Y852678D01*
X1045718D01*
Y827278D02*
Y831342D01*
X1049782D01*
Y827278D01*
X1045718D01*
X740918Y879298D02*
Y883362D01*
X744982D01*
Y879298D01*
X740918D01*
Y853898D02*
Y857962D01*
X744982D01*
Y853898D01*
X740918D01*
Y828498D02*
Y832562D01*
X744982D01*
Y828498D01*
X740918D01*
Y803098D02*
Y807162D01*
X744982D01*
Y803098D01*
X740918D01*
X819658Y879298D02*
Y883362D01*
X823722D01*
Y879298D01*
X819658D01*
Y853898D02*
Y857962D01*
X823722D01*
Y853898D01*
X819658D01*
Y828498D02*
Y832562D01*
X823722D01*
Y828498D01*
X819658D01*
Y803098D02*
Y807162D01*
X823722D01*
Y803098D01*
X819658D01*
X898878Y879298D02*
Y883362D01*
X902942D01*
Y879298D01*
X898878D01*
Y853898D02*
Y857962D01*
X902942D01*
Y853898D01*
X898878D01*
Y828498D02*
Y832562D01*
X902942D01*
Y828498D01*
X898878D01*
Y803098D02*
Y807162D01*
X902942D01*
Y803098D01*
X898878D01*
X683768Y826008D02*
Y830072D01*
X687832D01*
Y826008D01*
X683768D01*
Y851658D02*
Y855722D01*
X687832D01*
Y851658D01*
X683768D01*
Y877308D02*
Y881372D01*
X687832D01*
Y877308D01*
X683768D01*
X988318Y538988D02*
Y543052D01*
X992382D01*
Y538988D01*
X988318D01*
X1013968D02*
Y543052D01*
X1018032D01*
Y538988D01*
X1013968D01*
X1039618D02*
Y543052D01*
X1043682D01*
Y538988D01*
X1039618D01*
X988568Y503428D02*
Y507492D01*
X992632D01*
Y503428D01*
X988568D01*
X1014218D02*
Y507492D01*
X1018282D01*
Y503428D01*
X1014218D01*
X1039868D02*
Y507492D01*
X1043932D01*
Y503428D01*
X1039868D01*
X683768Y497578D02*
Y501642D01*
X687832D01*
Y497578D01*
X683768D01*
Y471928D02*
Y475992D01*
X687832D01*
Y471928D01*
X683768D01*
Y446278D02*
Y450342D01*
X687832D01*
Y446278D01*
X683768D01*
X492760Y561848D02*
X493776Y562864D01*
X494792D01*
X493776Y563880D01*
X494792Y564896D01*
X493776D01*
X492760Y565912D01*
X491744Y564896D01*
X490728D01*
X491744Y563880D01*
X490728Y562864D01*
X491744D01*
X492760Y561848D01*
X1238250Y627888D02*
X1239266Y628904D01*
X1240282D01*
X1239266Y629920D01*
X1240282Y630936D01*
X1239266D01*
X1238250Y631952D01*
X1237234Y630936D01*
X1236218D01*
X1237234Y629920D01*
X1236218Y628904D01*
X1237234D01*
X1238250Y627888D01*
X1250950D02*
X1251966Y628904D01*
X1252982D01*
X1251966Y629920D01*
X1252982Y630936D01*
X1251966D01*
X1250950Y631952D01*
X1249934Y630936D01*
X1248918D01*
X1249934Y629920D01*
X1248918Y628904D01*
X1249934D01*
X1250950Y627888D01*
X1022350Y603758D02*
X1020318Y607822D01*
X1024382D01*
X1022350Y603758D01*
X1000125D02*
X998093Y607822D01*
X1002157D01*
X1000125Y603758D01*
X977900D02*
X975868Y607822D01*
X979932D01*
X977900Y603758D01*
X1127760Y474218D02*
X1125728Y478282D01*
X1129792D01*
X1127760Y474218D01*
X1155700Y547878D02*
X1153668Y551942D01*
X1157732D01*
X1155700Y547878D01*
M02*
