G04*
G04 #@! TF.GenerationSoftware,Altium Limited,Altium Designer,22.5.1 (42)*
G04*
G04 Layer_Physical_Order=2*
G04 Layer_Color=16711680*
%FSLAX44Y44*%
%MOMM*%
G71*
G04*
G04 #@! TF.SameCoordinates,8C462A5C-675D-4BC4-B2B0-4FF287324B2F*
G04*
G04*
G04 #@! TF.FilePolarity,Positive*
G04*
G01*
G75*
%ADD14C,0.2540*%
%ADD18R,1.4000X1.0000*%
%ADD19R,1.0000X0.9000*%
%ADD31R,1.8000X1.8000*%
%ADD32C,1.8000*%
%ADD33C,1.8600*%
%ADD34C,0.6000*%
%ADD35C,0.8000*%
%ADD36R,3.5000X3.5000*%
G04:AMPARAMS|DCode=37|XSize=2.15mm|YSize=0.6mm|CornerRadius=0.15mm|HoleSize=0mm|Usage=FLASHONLY|Rotation=90.000|XOffset=0mm|YOffset=0mm|HoleType=Round|Shape=RoundedRectangle|*
%AMROUNDEDRECTD37*
21,1,2.1500,0.3000,0,0,90.0*
21,1,1.8500,0.6000,0,0,90.0*
1,1,0.3000,0.1500,0.9250*
1,1,0.3000,0.1500,-0.9250*
1,1,0.3000,-0.1500,-0.9250*
1,1,0.3000,-0.1500,0.9250*
%
%ADD37ROUNDEDRECTD37*%
%ADD38R,3.1000X2.4000*%
%ADD39R,1.1000X1.0000*%
%ADD40R,0.9000X1.0000*%
%ADD41R,4.0000X4.0000*%
%ADD42R,2.6000X1.1000*%
%ADD43R,1.0000X1.1000*%
%ADD44R,0.9500X1.4500*%
%ADD45R,1.0000X1.4000*%
%ADD46O,1.4500X0.6000*%
%ADD47R,3.5000X1.4500*%
%ADD48R,8.5000X10.6500*%
G36*
X1258570Y781050D02*
X1258570Y781050D01*
X1259833Y781050D01*
X1262167Y780083D01*
X1263953Y778297D01*
X1264920Y775963D01*
X1264920Y774700D01*
X1264920Y695960D01*
X1264920Y695960D01*
Y695454D01*
X1264533Y694521D01*
X1263819Y693807D01*
X1262885Y693420D01*
X1257354D01*
X1256831Y693420D01*
X1255860Y693810D01*
X1255104Y694535D01*
X1254674Y695489D01*
X1254663Y695739D01*
X1254809Y696471D01*
X1254809Y697184D01*
X1254809Y697186D01*
X1254809Y697188D01*
Y697226D01*
X1254810Y697230D01*
X1254810Y715010D01*
X1254810Y715768D01*
X1254810Y715768D01*
X1254810Y715768D01*
X1254721Y716213D01*
X1254613Y716759D01*
X1254613Y716759D01*
X1254613Y716759D01*
X1254033Y718159D01*
X1254032Y718159D01*
X1254032Y718160D01*
X1253781Y718536D01*
X1253471Y718999D01*
X1253471Y719000D01*
X1253471Y719000D01*
X1253411Y719060D01*
X1252523Y721028D01*
X1250661Y722814D01*
X1248268Y723776D01*
X1246978Y723900D01*
X1206500Y723900D01*
X1206500Y723900D01*
X1205237Y723900D01*
X1202903Y724867D01*
X1201117Y726653D01*
X1200150Y728987D01*
X1200150Y730250D01*
Y775970D01*
X1200150Y776980D01*
X1200923Y778848D01*
X1202352Y780277D01*
X1204220Y781050D01*
X1205230Y781050D01*
X1258570Y781050D01*
X1258570Y781050D01*
D02*
G37*
G36*
X639148Y780277D02*
X640577Y778848D01*
X641283Y777141D01*
X641350Y775971D01*
Y775970D01*
X641350D01*
X641350Y775970D01*
X641350Y723900D01*
X641350Y722889D01*
X640577Y721022D01*
X639148Y719593D01*
X637280Y718820D01*
X636270Y718820D01*
X599440D01*
X598449Y718722D01*
X596618Y717964D01*
X595216Y716562D01*
X594458Y714731D01*
X594360Y713740D01*
X594360Y694690D01*
X594360Y694185D01*
X593974Y693251D01*
X593259Y692536D01*
X592325Y692150D01*
X591820Y692150D01*
X587505D01*
X586571Y692537D01*
X585857Y693251D01*
X585470Y694185D01*
X585470Y694690D01*
X585470Y694690D01*
X585470Y774700D01*
X585470Y775963D01*
X586437Y778297D01*
X588223Y780083D01*
X590557Y781050D01*
X591820D01*
X591820Y781050D01*
X636270Y781050D01*
X637281Y781050D01*
X639148Y780277D01*
D02*
G37*
G36*
X578907Y780083D02*
X580693Y778297D01*
X581660Y775963D01*
Y774700D01*
X581660Y723900D01*
X581659Y723899D01*
Y722889D01*
X580886Y721022D01*
X579457Y719593D01*
X577590Y718820D01*
X572770Y718820D01*
X572027Y718747D01*
X570653Y718178D01*
X569602Y717127D01*
X569033Y715753D01*
X568960Y715010D01*
Y694690D01*
X568960Y694690D01*
X568960Y694184D01*
X568573Y693251D01*
X567859Y692537D01*
X566925Y692150D01*
X561340Y692150D01*
X560834Y692150D01*
X559901Y692537D01*
X559186Y693251D01*
X558800Y694185D01*
X558800Y694690D01*
Y715010D01*
X558800Y715010D01*
X558800Y715010D01*
X558800Y715011D01*
X558727Y715753D01*
X558555Y716169D01*
X558158Y717127D01*
X557107Y718178D01*
X555733Y718747D01*
X554990Y718820D01*
X523247Y718820D01*
X520913Y719787D01*
X519127Y721573D01*
X518160Y723907D01*
Y725170D01*
Y774700D01*
X518160Y775963D01*
X519127Y778297D01*
X520913Y780083D01*
X523247Y781050D01*
X524510Y781050D01*
X575310Y781050D01*
X576573D01*
X578907Y780083D01*
D02*
G37*
G36*
X1327150Y781050D02*
X1328413Y781050D01*
X1330747Y780083D01*
X1332533Y778297D01*
X1333500Y775963D01*
X1333500Y774700D01*
X1333500Y774700D01*
X1333500Y774700D01*
X1333500Y726440D01*
X1333500Y725177D01*
X1332533Y722843D01*
X1330747Y721057D01*
X1328413Y720090D01*
X1327150Y720090D01*
X1296670Y720090D01*
X1295431Y719968D01*
X1293142Y719020D01*
X1291390Y717268D01*
X1290442Y714979D01*
X1290320Y713740D01*
X1290320Y713740D01*
X1290320Y713740D01*
Y695455D01*
X1289933Y694521D01*
X1289219Y693807D01*
X1288285Y693420D01*
X1280925D01*
X1279991Y693807D01*
X1279277Y694521D01*
X1278890Y695455D01*
Y695960D01*
X1278890Y695960D01*
X1278890Y716280D01*
X1278817Y717023D01*
X1278248Y718397D01*
X1277197Y719448D01*
X1276228Y719849D01*
X1275823Y720016D01*
X1275084Y720089D01*
X1275080Y720090D01*
X1275080Y720090D01*
X1275080Y720090D01*
X1270765D01*
X1269831Y720477D01*
X1269117Y721191D01*
X1268730Y722125D01*
X1268730Y722630D01*
X1268730Y722630D01*
X1268730Y774180D01*
X1269023Y775653D01*
X1269597Y777039D01*
X1270431Y778287D01*
X1271492Y779349D01*
X1272740Y780182D01*
X1274127Y780757D01*
X1275599Y781050D01*
X1276350Y781050D01*
X1276350Y781050D01*
X1327150Y781050D01*
D02*
G37*
G36*
X1282607Y995879D02*
X1282607Y995879D01*
X1282607Y995879D01*
X1286171Y995869D01*
X1293264Y995152D01*
X1300252Y993744D01*
X1307070Y991660D01*
X1313650Y988918D01*
X1319931Y985546D01*
X1325851Y981575D01*
X1331355Y977044D01*
X1336389Y971996D01*
X1340905Y966480D01*
X1344859Y960548D01*
X1348215Y954258D01*
X1350938Y947670D01*
X1353004Y940847D01*
X1354392Y933855D01*
X1355090Y926760D01*
X1355090Y923196D01*
X1355090Y481330D01*
X1355090Y481330D01*
X1355090Y477667D01*
X1354134Y470405D01*
X1352238Y463329D01*
X1349435Y456562D01*
X1345772Y450218D01*
X1341313Y444407D01*
X1336133Y439227D01*
X1330322Y434768D01*
X1323978Y431105D01*
X1317211Y428302D01*
X1310135Y426406D01*
X1302872Y425450D01*
X1299210Y425450D01*
X474980D01*
X471900Y425450D01*
X465793Y426254D01*
X459843Y427848D01*
X454152Y430205D01*
X448818Y433285D01*
X443931Y437035D01*
X439575Y441391D01*
X435825Y446278D01*
X432746Y451612D01*
X430388Y457303D01*
X428794Y463253D01*
X427990Y469360D01*
X427990Y472440D01*
Y543399D01*
X429260Y544247D01*
X429856Y544000D01*
X430107Y543950D01*
X430342Y543853D01*
X431814Y543560D01*
X432069D01*
X432320Y543510D01*
X433070Y543510D01*
X464820Y543510D01*
X465830Y543510D01*
X466821Y543707D01*
X468689Y544481D01*
X469529Y545042D01*
X470958Y546471D01*
X471519Y547311D01*
X471519Y547311D01*
X472293Y549178D01*
X472490Y550169D01*
X472490Y551180D01*
X472490Y551180D01*
Y552696D01*
X473760Y553686D01*
X473840Y553670D01*
X498980D01*
X499971Y553867D01*
X500905Y554254D01*
X501745Y554815D01*
X502459Y555530D01*
X503021Y556370D01*
X503407Y557304D01*
X503605Y558295D01*
Y558799D01*
X503605Y558800D01*
X503605Y566420D01*
X503605Y567178D01*
X503408Y568169D01*
X503408Y568169D01*
X502827Y569569D01*
X502266Y570409D01*
X501194Y571481D01*
X500354Y572043D01*
X499360Y572454D01*
X499044Y572517D01*
X498740Y572625D01*
X497577Y572793D01*
X497390Y572783D01*
X497206Y572820D01*
X497206D01*
X497205Y572820D01*
X474345Y572820D01*
X473840Y572820D01*
X472849Y572623D01*
X472849Y572623D01*
X471915Y572236D01*
X471915Y572236D01*
X471075Y571674D01*
X471073Y571675D01*
X469877Y572209D01*
X469529Y572558D01*
X468689Y573119D01*
X466983Y573826D01*
X466558Y573910D01*
X466139Y574019D01*
X464968Y574086D01*
X464894Y574075D01*
X464821Y574090D01*
X464820D01*
X464820Y574090D01*
X452247D01*
X451517Y574162D01*
X450059Y574766D01*
X449036Y575789D01*
X448432Y577247D01*
X448360Y577977D01*
Y667893D01*
X448407Y668375D01*
X448822Y669375D01*
X449495Y670048D01*
X450495Y670463D01*
X450978Y670510D01*
X454920D01*
X455053Y670537D01*
X455189Y670524D01*
X455243Y670541D01*
X455308Y670535D01*
X455372Y670541D01*
X455433Y670525D01*
X455680Y670513D01*
X455743Y670523D01*
X455806Y670510D01*
X455929Y670510D01*
X455930Y670510D01*
X455930Y670510D01*
X507488D01*
X508479Y670707D01*
X509879Y671287D01*
X510719Y671849D01*
X511790Y672920D01*
X511790Y672920D01*
X512127Y673424D01*
X512352Y673761D01*
X512352Y673761D01*
X512932Y675161D01*
X512932Y675161D01*
X513129Y676152D01*
X513129Y676904D01*
X513130Y676910D01*
Y686943D01*
X513177Y687425D01*
X513592Y688425D01*
X514265Y689098D01*
X515265Y689512D01*
X515752Y689560D01*
X553208Y689560D01*
X554199Y689757D01*
X555599Y690337D01*
X556257Y690777D01*
X556460Y690896D01*
X558056Y690719D01*
X558069Y690706D01*
X558069Y690705D01*
X558558Y690379D01*
X558909Y690144D01*
X558910Y690144D01*
X558910Y690144D01*
X559843Y689757D01*
X559843Y689757D01*
X559843Y689757D01*
X560309Y689665D01*
X560834Y689560D01*
X560834Y689560D01*
X560834Y689560D01*
X561340Y689560D01*
X566925Y689560D01*
X567916Y689757D01*
X567916Y689757D01*
X568849Y690144D01*
X568850Y690144D01*
X569690Y690705D01*
X570404Y691420D01*
X570966Y692260D01*
X571352Y693193D01*
X571549Y694184D01*
X571549Y694688D01*
X571550Y694690D01*
Y714883D01*
X571573Y715117D01*
X571798Y715660D01*
X572120Y715982D01*
X572663Y716207D01*
X572897Y716230D01*
X577590Y716230D01*
X578581Y716427D01*
X580448Y717201D01*
X581288Y717762D01*
X581610Y718084D01*
X582880Y717558D01*
Y694690D01*
X582880Y694690D01*
X582880Y694185D01*
X582880Y694185D01*
X582880Y694185D01*
X582959Y693791D01*
X583077Y693194D01*
X583077Y693194D01*
X583464Y692260D01*
X583464Y692260D01*
X584025Y691420D01*
X584740Y690705D01*
X585580Y690144D01*
X586514Y689757D01*
X587505Y689560D01*
X591819D01*
X592325Y689560D01*
X592325Y689560D01*
X592325Y689560D01*
X592801Y689655D01*
X593316Y689757D01*
X593316Y689757D01*
X593316Y689757D01*
X594250Y690144D01*
X594250Y690144D01*
X594250Y690144D01*
X594672Y690426D01*
X595090Y690705D01*
X595090Y690705D01*
X595090Y690705D01*
X595805Y691420D01*
X595805Y691420D01*
X595805Y691420D01*
X596084Y691838D01*
X596366Y692260D01*
X596366Y692260D01*
X596366Y692260D01*
X596753Y693194D01*
X596753Y693194D01*
X596753Y693194D01*
X596855Y693709D01*
X596950Y694185D01*
X596950Y694185D01*
X596950Y694185D01*
X596950Y694691D01*
X596950Y713613D01*
X596997Y714095D01*
X597412Y715095D01*
X598085Y715768D01*
X599085Y716183D01*
X599567Y716230D01*
X636270D01*
X637280Y716230D01*
X638271Y716427D01*
X638271Y716427D01*
X638271Y716427D01*
X640139Y717201D01*
X640979Y717762D01*
X642408Y719191D01*
X642969Y720031D01*
X643743Y721898D01*
X643743Y721898D01*
X643743Y721899D01*
X643940Y722889D01*
X643940Y723900D01*
X643940Y775970D01*
X643940Y775970D01*
Y775971D01*
X643925Y776044D01*
X643935Y776118D01*
X643869Y777289D01*
X643760Y777708D01*
X643676Y778133D01*
X642969Y779839D01*
X642408Y780679D01*
X640979Y782108D01*
X640139Y782669D01*
X638271Y783443D01*
X637280Y783640D01*
X636270Y783640D01*
X591820Y783640D01*
X591820Y783640D01*
X590557D01*
X589566Y783443D01*
X587232Y782476D01*
X586392Y781915D01*
X584605Y780128D01*
X584301Y779673D01*
X583953Y779563D01*
X583177D01*
X582829Y779673D01*
X582524Y780128D01*
X580738Y781915D01*
X579898Y782476D01*
X579898Y782476D01*
X577564Y783443D01*
X577564Y783443D01*
X576573Y783640D01*
X575310D01*
X524510Y783640D01*
X523247Y783640D01*
X522256Y783443D01*
X522117D01*
X513130Y792430D01*
Y896556D01*
X513233Y898667D01*
X514069Y902869D01*
X515684Y906768D01*
X518029Y910277D01*
X521013Y913261D01*
X524522Y915605D01*
X528420Y917220D01*
X532622Y918056D01*
X534747Y918160D01*
X1095947Y918160D01*
X1097808Y918069D01*
X1101522Y917330D01*
X1104961Y915906D01*
X1108056Y913838D01*
X1110687Y911206D01*
X1112755Y908110D01*
X1114180Y904672D01*
X1114918Y900958D01*
X1115010Y899081D01*
X1115010Y746824D01*
X1114962Y745833D01*
X1114563Y743829D01*
X1113805Y742000D01*
X1112706Y740354D01*
X1111306Y738954D01*
X1109660Y737854D01*
X1107831Y737097D01*
X1105827Y736698D01*
X1104836Y736650D01*
X1103668Y736650D01*
X1061721Y736650D01*
X1060710Y736650D01*
X1060710Y736650D01*
X1060710Y736650D01*
X1060257Y736560D01*
X1059719Y736453D01*
X1059719Y736453D01*
X1059719Y736453D01*
X1057851Y735680D01*
X1057851Y735680D01*
X1057851Y735680D01*
X1057409Y735384D01*
X1057011Y735118D01*
X1057011Y735118D01*
X1057011Y735118D01*
X1055582Y733689D01*
X1055582Y733689D01*
X1055581Y733689D01*
X1055315Y733291D01*
X1055020Y732849D01*
X1055020Y732849D01*
X1055020Y732849D01*
X1054339Y731203D01*
X1054259Y730800D01*
X1054210Y730624D01*
X1052940Y730797D01*
Y744330D01*
X1029860D01*
X1029860Y744330D01*
Y744330D01*
X1028602Y744359D01*
X979170Y745490D01*
Y734382D01*
X978960Y732790D01*
X979170Y731198D01*
Y726799D01*
X985227Y720742D01*
X984979Y719496D01*
X984191Y719170D01*
X984191Y719170D01*
X984191Y719170D01*
X983824Y718924D01*
X983351Y718609D01*
X983351Y718608D01*
X983351Y718608D01*
X981922Y717179D01*
X981922Y717179D01*
X981921Y717179D01*
X981642Y716761D01*
X981360Y716339D01*
X981360Y716339D01*
X981360Y716339D01*
X980587Y714472D01*
X980587Y714471D01*
X980587Y714471D01*
X980485Y713959D01*
X980390Y713480D01*
X980390Y713480D01*
X980390Y713480D01*
X980390Y712469D01*
Y675900D01*
X980587Y674909D01*
X981361Y673041D01*
X981922Y672201D01*
X982017Y672106D01*
X982250Y670734D01*
X981535Y670020D01*
X980974Y669180D01*
X980587Y668246D01*
X980390Y667255D01*
Y659130D01*
X980390Y659130D01*
X980390Y658625D01*
X980390Y658625D01*
X980390Y658625D01*
X980474Y658203D01*
X980587Y657634D01*
X980587Y657634D01*
X980587Y657634D01*
X980974Y656700D01*
X980974Y656700D01*
X980974Y656700D01*
X981277Y656246D01*
X981535Y655860D01*
X981535Y655860D01*
X981535Y655860D01*
X982250Y655145D01*
X982250Y655145D01*
X982250Y655145D01*
X982715Y654835D01*
X983090Y654584D01*
X983090Y654584D01*
X983090Y654584D01*
X984024Y654197D01*
X984024Y654197D01*
X984024Y654197D01*
X984522Y654098D01*
X985015Y654000D01*
X985015Y654000D01*
X985015Y654000D01*
X985520Y654000D01*
X1064260D01*
X1064552Y654058D01*
X1064849Y654068D01*
X1065114Y654130D01*
X1071805D01*
Y610870D01*
X1072101Y609383D01*
X1072943Y608123D01*
X1133903Y547163D01*
X1135163Y546321D01*
X1136650Y546025D01*
X1150437D01*
X1151036Y545246D01*
X1152402Y544197D01*
X1153993Y543538D01*
X1155700Y543314D01*
X1157407Y543538D01*
X1158998Y544197D01*
X1160364Y545246D01*
X1161413Y546612D01*
X1162072Y548203D01*
X1162296Y549910D01*
X1162072Y551617D01*
X1161413Y553208D01*
X1160364Y554574D01*
X1158998Y555623D01*
X1157407Y556282D01*
X1155700Y556506D01*
X1153993Y556282D01*
X1152402Y555623D01*
X1151036Y554574D01*
X1150437Y553795D01*
X1138259D01*
X1079575Y612479D01*
Y654130D01*
X1080490D01*
Y669210D01*
X1081748Y669240D01*
X1152900D01*
X1153892Y669437D01*
X1155759Y670211D01*
X1156599Y670772D01*
X1158028Y672201D01*
X1158589Y673041D01*
X1158589Y673041D01*
X1159363Y674908D01*
X1159363Y674909D01*
X1159560Y675900D01*
Y688213D01*
X1159607Y688695D01*
X1160021Y689695D01*
X1160694Y690368D01*
X1161694Y690782D01*
X1162184Y690830D01*
X1248410D01*
X1249168Y690830D01*
X1250159Y691027D01*
X1251559Y691607D01*
X1252399Y692169D01*
X1252930Y692700D01*
X1253311Y692666D01*
X1254067Y691942D01*
X1254482Y691676D01*
X1254893Y691408D01*
X1255864Y691017D01*
X1256348Y690926D01*
X1256831Y690830D01*
X1257354Y690830D01*
X1262885D01*
X1263876Y691027D01*
X1264810Y691414D01*
X1265126Y691625D01*
X1265650Y691975D01*
X1265650Y691975D01*
X1266364Y692690D01*
X1266926Y693530D01*
X1266926Y693530D01*
X1267312Y694463D01*
X1267312Y694464D01*
X1267510Y695454D01*
Y695958D01*
X1267510Y695960D01*
X1267510Y717446D01*
X1268103Y717914D01*
X1268780Y718124D01*
X1268840Y718084D01*
X1269774Y717697D01*
X1270765Y717500D01*
X1274949D01*
X1275187Y717477D01*
X1275730Y717252D01*
X1276052Y716930D01*
X1276277Y716387D01*
X1276300Y716153D01*
X1276300Y695960D01*
X1276300Y695960D01*
Y695455D01*
X1276497Y694464D01*
X1276884Y693530D01*
X1277446Y692690D01*
X1278160Y691975D01*
X1279000Y691414D01*
X1279934Y691027D01*
X1280925Y690830D01*
X1288285D01*
X1289276Y691027D01*
X1290210Y691414D01*
X1291050Y691975D01*
X1291765Y692690D01*
X1292326Y693530D01*
X1292713Y694464D01*
X1292713Y694464D01*
X1292910Y695455D01*
Y713613D01*
X1292982Y714343D01*
X1293586Y715801D01*
X1294609Y716824D01*
X1296067Y717428D01*
X1296797Y717500D01*
X1327150Y717500D01*
X1328413Y717500D01*
X1329404Y717697D01*
X1331738Y718664D01*
X1331738Y718664D01*
X1332578Y719225D01*
X1334364Y721012D01*
X1334926Y721852D01*
X1335893Y724186D01*
X1335893Y724186D01*
X1336090Y725177D01*
X1336090Y726440D01*
X1336090Y774700D01*
X1336089Y774701D01*
X1336090Y775963D01*
X1335893Y776954D01*
X1335892Y776954D01*
X1335892Y776954D01*
X1334926Y779288D01*
X1334926Y779288D01*
X1334364Y780128D01*
X1332578Y781914D01*
X1332578Y781914D01*
X1332243Y782139D01*
X1331738Y782476D01*
X1331738Y782476D01*
X1329404Y783443D01*
X1329404Y783443D01*
X1328413Y783640D01*
X1327150Y783640D01*
X1276350Y783640D01*
X1276348Y783639D01*
X1275599Y783640D01*
X1275349Y783590D01*
X1275094D01*
X1273622Y783297D01*
X1273386Y783199D01*
X1273136Y783149D01*
X1271749Y782575D01*
X1271537Y782433D01*
X1271302Y782336D01*
X1270054Y781502D01*
X1269873Y781322D01*
X1269661Y781180D01*
X1268600Y780119D01*
X1268458Y779906D01*
X1268278Y779726D01*
X1267822Y779044D01*
X1266389Y779185D01*
X1266346Y779288D01*
X1265785Y780128D01*
X1263998Y781915D01*
X1263158Y782476D01*
X1260824Y783443D01*
X1259833Y783640D01*
X1258570Y783640D01*
X1258570Y783640D01*
X1205230Y783640D01*
X1204220Y783640D01*
X1203229Y783443D01*
X1201361Y782669D01*
X1200521Y782108D01*
X1199092Y780679D01*
X1198531Y779839D01*
X1197757Y777971D01*
X1197560Y776980D01*
X1197560Y775970D01*
Y730250D01*
X1197560Y728987D01*
X1197757Y727996D01*
X1198724Y725662D01*
X1199286Y724822D01*
X1201072Y723036D01*
X1201604Y722680D01*
X1201248Y721410D01*
X1197674D01*
X1196683Y721458D01*
X1194679Y721857D01*
X1192850Y722614D01*
X1191204Y723714D01*
X1189804Y725114D01*
X1188705Y726759D01*
X1187947Y728588D01*
X1187548Y730592D01*
X1187500Y731583D01*
X1187500Y974090D01*
X1187500Y975838D01*
X1187466Y976006D01*
X1187478Y976176D01*
X1187021Y979642D01*
X1186966Y979804D01*
X1186955Y979975D01*
X1186050Y983352D01*
X1185975Y983505D01*
X1185941Y983672D01*
X1184603Y986902D01*
X1184509Y987044D01*
X1184454Y987206D01*
X1182706Y990234D01*
X1182593Y990362D01*
X1182517Y990515D01*
X1180389Y993289D01*
X1180260Y993402D01*
X1180166Y993544D01*
X1178816Y994893D01*
X1179344Y996161D01*
X1282607Y995879D01*
D02*
G37*
G36*
X485139Y1000760D02*
X1158239Y1000760D01*
X1158240Y1000759D01*
X1158240Y1000759D01*
X1159987Y1000759D01*
X1163454Y1000303D01*
X1166831Y999398D01*
X1170061Y998061D01*
X1173089Y996313D01*
X1175862Y994184D01*
X1178334Y991712D01*
X1180463Y988939D01*
X1182211Y985911D01*
X1183549Y982681D01*
X1184454Y979304D01*
X1184910Y975838D01*
X1184910Y974090D01*
X1184910Y731519D01*
X1184971Y730275D01*
X1185457Y727833D01*
X1186410Y725533D01*
X1187793Y723463D01*
X1189553Y721702D01*
X1191623Y720319D01*
X1193923Y719367D01*
X1196365Y718881D01*
X1197610Y718820D01*
X1248409D01*
X1248410Y718819D01*
X1248410Y718819D01*
X1248415D01*
X1249573Y718652D01*
X1250568Y718240D01*
X1251640Y717168D01*
X1252220Y715768D01*
X1252220Y715010D01*
X1252220Y697230D01*
X1252219Y697229D01*
X1252219Y696471D01*
X1251639Y695071D01*
X1250568Y694000D01*
X1249168Y693420D01*
X1248410Y693420D01*
X1162050D01*
X1162049Y693419D01*
X1161058Y693322D01*
X1159227Y692563D01*
X1157826Y691162D01*
X1157068Y689331D01*
X1156970Y688340D01*
Y675900D01*
X1156197Y674032D01*
X1154768Y672603D01*
X1152900Y671830D01*
X987049D01*
X985182Y672603D01*
X983753Y674032D01*
X982980Y675900D01*
Y712470D01*
X982980Y713481D01*
X983753Y715348D01*
X985182Y716777D01*
X987049Y717550D01*
X988060Y717550D01*
X1046518Y717550D01*
X1047750Y717550D01*
X1047750Y717550D01*
X1048621Y717593D01*
X1048973Y717663D01*
X1050330Y717932D01*
X1051941Y718599D01*
X1053390Y719567D01*
X1054622Y720800D01*
X1055591Y722249D01*
X1056257Y723859D01*
X1056597Y725568D01*
X1056640Y726440D01*
X1056640Y728980D01*
X1056640Y728980D01*
X1056655Y729187D01*
X1056732Y730213D01*
X1057413Y731858D01*
X1058842Y733287D01*
X1060709Y734060D01*
X1061720Y734060D01*
X1103668Y734060D01*
X1104900Y734060D01*
X1104900Y734060D01*
X1106144Y734121D01*
X1108586Y734606D01*
X1110887Y735559D01*
X1112957Y736942D01*
X1114717Y738703D01*
X1116101Y740773D01*
X1117053Y743073D01*
X1117539Y745515D01*
X1117600Y746760D01*
X1117600Y899160D01*
X1117600Y899160D01*
X1117599Y899160D01*
X1117495Y901276D01*
X1116670Y905427D01*
X1115050Y909337D01*
X1112699Y912856D01*
X1109706Y915849D01*
X1106187Y918201D01*
X1102277Y919820D01*
X1098126Y920646D01*
X1096010Y920750D01*
X534670Y920750D01*
X534669Y920749D01*
X532304Y920633D01*
X527665Y919710D01*
X523295Y917900D01*
X519362Y915272D01*
X516017Y911927D01*
X513389Y907995D01*
X511579Y903624D01*
X510656Y898985D01*
X510540Y896620D01*
Y721360D01*
X510540Y721359D01*
X510662Y720121D01*
X511610Y717832D01*
X513362Y716080D01*
X515651Y715132D01*
X516890Y715010D01*
X552449D01*
X552449Y715009D01*
X552449Y715009D01*
X552458D01*
X553616Y714840D01*
X554608Y714430D01*
X555680Y713358D01*
X556210Y712078D01*
Y695084D01*
X555679Y693801D01*
X554608Y692730D01*
X553208Y692150D01*
X515620Y692150D01*
X515620Y692150D01*
X514629Y692052D01*
X512798Y691294D01*
X511396Y689892D01*
X510638Y688061D01*
X510540Y687070D01*
Y676910D01*
X510539Y676909D01*
X510539Y676152D01*
X509959Y674752D01*
X508888Y673680D01*
X507488Y673100D01*
X455930D01*
X455806Y673100D01*
X455560Y673112D01*
X455314Y673136D01*
X455069Y673172D01*
X454948Y673196D01*
X454920Y673100D01*
X450850D01*
X450850Y673100D01*
X449859Y673002D01*
X448028Y672244D01*
X446626Y670842D01*
X445868Y669011D01*
X445770Y668020D01*
Y577850D01*
X445892Y576611D01*
X446840Y574322D01*
X448592Y572570D01*
X450881Y571622D01*
X452120Y571500D01*
X464820D01*
X464820Y571500D01*
X464820Y571500D01*
X464821D01*
X465992Y571433D01*
X467698Y570727D01*
X469127Y569298D01*
X469354Y568749D01*
X469270Y568328D01*
Y558162D01*
X469467Y557171D01*
X469799Y556370D01*
X469900Y556219D01*
X469900Y551180D01*
X469900Y551180D01*
X469900Y550169D01*
X469127Y548302D01*
X467697Y546873D01*
X465830Y546100D01*
X464820Y546100D01*
X433070Y546100D01*
X432319Y546100D01*
X430847Y546393D01*
X429460Y546967D01*
X428213Y547801D01*
X427151Y548862D01*
X426317Y550111D01*
X425743Y551497D01*
X425450Y552970D01*
X425450Y553720D01*
Y941069D01*
X425450Y941069D01*
X425450Y941069D01*
X425450Y944002D01*
X426024Y949838D01*
X427168Y955591D01*
X428870Y961203D01*
X431115Y966622D01*
X433879Y971794D01*
X437137Y976671D01*
X440858Y981204D01*
X445005Y985351D01*
X449538Y989072D01*
X454415Y992330D01*
X459587Y995095D01*
X465006Y997339D01*
X470618Y999042D01*
X476370Y1000185D01*
X482207Y1000760D01*
X485139Y1000760D01*
D02*
G37*
G36*
X986799Y669290D02*
X987049Y669240D01*
X1032590D01*
Y668900D01*
X1047670D01*
Y669240D01*
X1064885D01*
X1065699Y668903D01*
X1066410Y668192D01*
Y657688D01*
X1065699Y656977D01*
X1065418Y656860D01*
X1064260Y656590D01*
X1064260Y656590D01*
X1064260Y656590D01*
X985520D01*
X985015Y656590D01*
X984081Y656976D01*
X983366Y657691D01*
X982980Y658625D01*
X982980Y659130D01*
X982980Y659130D01*
Y667255D01*
X983367Y668189D01*
X984081Y668903D01*
X985015Y669290D01*
X985520D01*
X986799D01*
D02*
G37*
G36*
X497205Y570230D02*
X497205Y570230D01*
X497206D01*
X498369Y570061D01*
X499363Y569650D01*
X500435Y568578D01*
X501015Y567178D01*
X501015Y566420D01*
X501015Y558800D01*
X501015Y558800D01*
Y558295D01*
X500628Y557361D01*
X499914Y556647D01*
X498980Y556260D01*
X473840D01*
X472906Y556647D01*
X472192Y557361D01*
X471860Y558162D01*
Y568328D01*
X472192Y569129D01*
X472906Y569843D01*
X473840Y570230D01*
X474345Y570230D01*
X497205Y570230D01*
X497205Y570230D01*
D02*
G37*
%LPC*%
G36*
X900910Y893272D02*
X897819Y892865D01*
X894939Y891672D01*
X892466Y889774D01*
X890568Y887301D01*
X889375Y884421D01*
X888968Y881330D01*
X889375Y878239D01*
X890568Y875359D01*
X892466Y872886D01*
X894939Y870988D01*
X897819Y869795D01*
X900910Y869388D01*
X904001Y869795D01*
X906881Y870988D01*
X909354Y872886D01*
X911252Y875359D01*
X912445Y878239D01*
X912852Y881330D01*
X912445Y884421D01*
X911252Y887301D01*
X909354Y889774D01*
X906881Y891672D01*
X904001Y892865D01*
X900910Y893272D01*
D02*
G37*
G36*
X821690D02*
X818599Y892865D01*
X815719Y891672D01*
X813246Y889774D01*
X811348Y887301D01*
X810155Y884421D01*
X809748Y881330D01*
X810155Y878239D01*
X811348Y875359D01*
X813246Y872886D01*
X815719Y870988D01*
X818599Y869795D01*
X821690Y869388D01*
X824781Y869795D01*
X827661Y870988D01*
X830134Y872886D01*
X832032Y875359D01*
X833225Y878239D01*
X833632Y881330D01*
X833225Y884421D01*
X832032Y887301D01*
X830134Y889774D01*
X827661Y891672D01*
X824781Y892865D01*
X821690Y893272D01*
D02*
G37*
G36*
X742950D02*
X739859Y892865D01*
X736979Y891672D01*
X734506Y889774D01*
X732608Y887301D01*
X731415Y884421D01*
X731008Y881330D01*
X731415Y878239D01*
X732608Y875359D01*
X734506Y872886D01*
X736979Y870988D01*
X739859Y869795D01*
X742950Y869388D01*
X746041Y869795D01*
X748921Y870988D01*
X751394Y872886D01*
X753292Y875359D01*
X754485Y878239D01*
X754892Y881330D01*
X754485Y884421D01*
X753292Y887301D01*
X751394Y889774D01*
X748921Y891672D01*
X746041Y892865D01*
X742950Y893272D01*
D02*
G37*
G36*
X1047750Y892052D02*
X1044659Y891645D01*
X1041779Y890452D01*
X1039306Y888554D01*
X1037408Y886081D01*
X1036215Y883201D01*
X1035808Y880110D01*
X1036215Y877019D01*
X1037408Y874139D01*
X1039306Y871666D01*
X1041779Y869768D01*
X1044659Y868575D01*
X1047750Y868168D01*
X1050841Y868575D01*
X1053721Y869768D01*
X1056194Y871666D01*
X1058092Y874139D01*
X1059285Y877019D01*
X1059692Y880110D01*
X1059285Y883201D01*
X1058092Y886081D01*
X1056194Y888554D01*
X1053721Y890452D01*
X1050841Y891645D01*
X1047750Y892052D01*
D02*
G37*
G36*
X685800Y891282D02*
X682709Y890875D01*
X679829Y889682D01*
X677356Y887784D01*
X675458Y885311D01*
X674265Y882431D01*
X673858Y879340D01*
X674265Y876249D01*
X675458Y873369D01*
X677356Y870896D01*
X679829Y868998D01*
X682709Y867805D01*
X685800Y867398D01*
X688891Y867805D01*
X691771Y868998D01*
X694244Y870896D01*
X696142Y873369D01*
X697335Y876249D01*
X697742Y879340D01*
X697335Y882431D01*
X696142Y885311D01*
X694244Y887784D01*
X691771Y889682D01*
X688891Y890875D01*
X685800Y891282D01*
D02*
G37*
G36*
X900910Y842472D02*
X897819Y842065D01*
X894939Y840872D01*
X892466Y838974D01*
X890568Y836501D01*
X889375Y833621D01*
X888968Y830530D01*
X889375Y827439D01*
X890568Y824559D01*
X892466Y822086D01*
X894939Y820188D01*
X897819Y818995D01*
X900910Y818588D01*
X904001Y818995D01*
X906881Y820188D01*
X909354Y822086D01*
X911252Y824559D01*
X912445Y827439D01*
X912852Y830530D01*
X912445Y833621D01*
X911252Y836501D01*
X909354Y838974D01*
X906881Y840872D01*
X904001Y842065D01*
X900910Y842472D01*
D02*
G37*
G36*
X821690D02*
X818599Y842065D01*
X815719Y840872D01*
X813246Y838974D01*
X811348Y836501D01*
X810155Y833621D01*
X809748Y830530D01*
X810155Y827439D01*
X811348Y824559D01*
X813246Y822086D01*
X815719Y820188D01*
X818599Y818995D01*
X821690Y818588D01*
X824781Y818995D01*
X827661Y820188D01*
X830134Y822086D01*
X832032Y824559D01*
X833225Y827439D01*
X833632Y830530D01*
X833225Y833621D01*
X832032Y836501D01*
X830134Y838974D01*
X827661Y840872D01*
X824781Y842065D01*
X821690Y842472D01*
D02*
G37*
G36*
X742950D02*
X739859Y842065D01*
X736979Y840872D01*
X734506Y838974D01*
X732608Y836501D01*
X731415Y833621D01*
X731008Y830530D01*
X731415Y827439D01*
X732608Y824559D01*
X734506Y822086D01*
X736979Y820188D01*
X739859Y818995D01*
X742950Y818588D01*
X746041Y818995D01*
X748921Y820188D01*
X751394Y822086D01*
X753292Y824559D01*
X754485Y827439D01*
X754892Y830530D01*
X754485Y833621D01*
X753292Y836501D01*
X751394Y838974D01*
X748921Y840872D01*
X746041Y842065D01*
X742950Y842472D01*
D02*
G37*
G36*
X1047750Y841252D02*
X1044659Y840845D01*
X1041779Y839652D01*
X1039306Y837754D01*
X1037408Y835281D01*
X1036215Y832401D01*
X1035808Y829310D01*
X1036215Y826219D01*
X1037408Y823339D01*
X1039306Y820866D01*
X1041779Y818968D01*
X1044659Y817775D01*
X1047750Y817368D01*
X1050841Y817775D01*
X1053721Y818968D01*
X1056194Y820866D01*
X1058092Y823339D01*
X1059285Y826219D01*
X1059692Y829310D01*
X1059285Y832401D01*
X1058092Y835281D01*
X1056194Y837754D01*
X1053721Y839652D01*
X1050841Y840845D01*
X1047750Y841252D01*
D02*
G37*
G36*
X685800Y839982D02*
X682709Y839575D01*
X679829Y838382D01*
X677356Y836484D01*
X675458Y834011D01*
X674265Y831131D01*
X673858Y828040D01*
X674265Y824949D01*
X675458Y822069D01*
X677356Y819596D01*
X679829Y817698D01*
X682709Y816505D01*
X685800Y816098D01*
X688891Y816505D01*
X691771Y817698D01*
X694244Y819596D01*
X696142Y822069D01*
X697335Y824949D01*
X697742Y828040D01*
X697335Y831131D01*
X696142Y834011D01*
X694244Y836484D01*
X691771Y838382D01*
X688891Y839575D01*
X685800Y839982D01*
D02*
G37*
G36*
X900910Y817072D02*
X897819Y816665D01*
X894939Y815472D01*
X892466Y813574D01*
X890568Y811101D01*
X889375Y808221D01*
X888968Y805130D01*
X889375Y802039D01*
X890568Y799159D01*
X892466Y796686D01*
X894939Y794788D01*
X897819Y793595D01*
X900910Y793188D01*
X904001Y793595D01*
X906881Y794788D01*
X909354Y796686D01*
X911252Y799159D01*
X912445Y802039D01*
X912852Y805130D01*
X912445Y808221D01*
X911252Y811101D01*
X909354Y813574D01*
X906881Y815472D01*
X904001Y816665D01*
X900910Y817072D01*
D02*
G37*
G36*
X821690D02*
X818599Y816665D01*
X815719Y815472D01*
X813246Y813574D01*
X811348Y811101D01*
X810155Y808221D01*
X809748Y805130D01*
X810155Y802039D01*
X811348Y799159D01*
X813246Y796686D01*
X815719Y794788D01*
X818599Y793595D01*
X821690Y793188D01*
X824781Y793595D01*
X827661Y794788D01*
X830134Y796686D01*
X832032Y799159D01*
X833225Y802039D01*
X833632Y805130D01*
X833225Y808221D01*
X832032Y811101D01*
X830134Y813574D01*
X827661Y815472D01*
X824781Y816665D01*
X821690Y817072D01*
D02*
G37*
G36*
X742950D02*
X739859Y816665D01*
X736979Y815472D01*
X734506Y813574D01*
X732608Y811101D01*
X731415Y808221D01*
X731008Y805130D01*
X731415Y802039D01*
X732608Y799159D01*
X734506Y796686D01*
X736979Y794788D01*
X739859Y793595D01*
X742950Y793188D01*
X746041Y793595D01*
X748921Y794788D01*
X751394Y796686D01*
X753292Y799159D01*
X754485Y802039D01*
X754892Y805130D01*
X754485Y808221D01*
X753292Y811101D01*
X751394Y813574D01*
X748921Y815472D01*
X746041Y816665D01*
X742950Y817072D01*
D02*
G37*
G36*
X1047750Y815852D02*
X1044659Y815445D01*
X1041779Y814252D01*
X1039306Y812354D01*
X1037408Y809881D01*
X1036215Y807001D01*
X1035808Y803910D01*
X1036215Y800819D01*
X1037408Y797939D01*
X1039306Y795466D01*
X1041779Y793568D01*
X1044659Y792375D01*
X1047750Y791968D01*
X1050841Y792375D01*
X1053721Y793568D01*
X1056194Y795466D01*
X1058092Y797939D01*
X1059285Y800819D01*
X1059692Y803910D01*
X1059285Y807001D01*
X1058092Y809881D01*
X1056194Y812354D01*
X1053721Y814252D01*
X1050841Y815445D01*
X1047750Y815852D01*
D02*
G37*
G36*
X951230Y745490D02*
X717550D01*
X717020Y744960D01*
Y744013D01*
X715964Y743308D01*
X714212Y744033D01*
X711200Y744429D01*
X708187Y744033D01*
X705380Y742870D01*
X702970Y741020D01*
X701120Y738610D01*
X699957Y735803D01*
X699560Y732790D01*
X699957Y729778D01*
X701120Y726970D01*
X702970Y724560D01*
X705380Y722710D01*
X708187Y721547D01*
X711200Y721150D01*
X714212Y721547D01*
X717020Y722710D01*
X717100Y722630D01*
X723097D01*
X723583Y721457D01*
X638471Y636345D01*
X585569D01*
X582399Y639515D01*
Y656640D01*
X582086Y658216D01*
X581193Y659553D01*
X579856Y660446D01*
X578280Y660759D01*
X575280D01*
X573704Y660446D01*
X573635Y660400D01*
Y660400D01*
X573635Y660400D01*
X567225D01*
X567156Y660446D01*
X565580Y660759D01*
X562580D01*
X561004Y660446D01*
X560935Y660400D01*
X559759Y660400D01*
X554525D01*
X554525Y660400D01*
X554456Y660446D01*
X552880Y660759D01*
X549880D01*
X548304Y660446D01*
X546967Y659553D01*
X546074Y658216D01*
X545761Y656640D01*
Y645085D01*
X532050D01*
Y649240D01*
X516970D01*
Y633160D01*
X532050D01*
Y637315D01*
X545925D01*
X546074Y636564D01*
X546967Y635227D01*
X548304Y634334D01*
X549880Y634021D01*
X552880D01*
X554456Y634334D01*
X555793Y635227D01*
X559667D01*
X561004Y634334D01*
X562580Y634021D01*
X564205D01*
X574863Y623363D01*
X576123Y622521D01*
X577610Y622225D01*
X653250D01*
X654736Y622521D01*
X655997Y623363D01*
X751453Y718820D01*
X949960D01*
X951230Y720090D01*
Y731198D01*
X951440Y732790D01*
X951230Y734382D01*
Y745490D01*
D02*
G37*
G36*
X685800Y744429D02*
X682787Y744033D01*
X679980Y742870D01*
X677570Y741020D01*
X675720Y738610D01*
X674557Y735803D01*
X674160Y732790D01*
X674557Y729778D01*
X675720Y726970D01*
X677570Y724560D01*
X679980Y722710D01*
X682787Y721547D01*
X685800Y721150D01*
X688812Y721547D01*
X691620Y722710D01*
X694030Y724560D01*
X695880Y726970D01*
X697043Y729778D01*
X697439Y732790D01*
X697043Y735803D01*
X695880Y738610D01*
X694030Y741020D01*
X691620Y742870D01*
X688812Y744033D01*
X685800Y744429D01*
D02*
G37*
G36*
X876560Y712520D02*
X876560Y712520D01*
X876560Y712520D01*
X876128Y712434D01*
X875569Y712323D01*
X875568Y712323D01*
X873701Y711549D01*
X873701Y711549D01*
X873701Y711549D01*
X873279Y711267D01*
X872861Y710988D01*
X872861Y710988D01*
X872861Y710988D01*
X871432Y709559D01*
X871432Y709559D01*
X871432Y709559D01*
X871208Y709224D01*
X870870Y708718D01*
X870870Y708718D01*
X870180Y707051D01*
X870098Y706641D01*
X869989Y706237D01*
X869906Y705027D01*
X869918Y704938D01*
X869900Y704850D01*
Y683260D01*
X869900Y682502D01*
X869965Y682174D01*
X870097Y681512D01*
X870097Y681511D01*
X870677Y680111D01*
X871238Y679271D01*
X872310Y678199D01*
X872623Y677990D01*
X873150Y677637D01*
X873150Y677637D01*
X874550Y677057D01*
X874550Y677057D01*
X874551Y677057D01*
X875081Y676952D01*
X875542Y676860D01*
X875542Y676860D01*
X875542Y676860D01*
X876300Y676860D01*
X920623Y676860D01*
X921353Y676788D01*
X922811Y676184D01*
X923834Y675161D01*
X924438Y673703D01*
X924510Y672968D01*
Y640080D01*
X924510Y639322D01*
X924707Y638331D01*
X925287Y636931D01*
X925849Y636091D01*
X926920Y635019D01*
X927761Y634457D01*
X927761Y634457D01*
X929161Y633877D01*
X930152Y633680D01*
X930910Y633680D01*
X943610Y633680D01*
X944115Y633680D01*
X945106Y633877D01*
X945106Y633877D01*
X946040Y634264D01*
X946880Y634825D01*
X947595Y635540D01*
X948156Y636380D01*
X948543Y637314D01*
X948740Y638305D01*
X948740Y638810D01*
X948740Y638810D01*
X948740Y706120D01*
X948740Y706878D01*
X948740Y706878D01*
X948740Y706878D01*
X948652Y707321D01*
X948543Y707869D01*
X948543Y707869D01*
X948542Y707869D01*
X947962Y709269D01*
X947962Y709269D01*
X947962Y709269D01*
X947680Y709692D01*
X947401Y710109D01*
X947401Y710110D01*
X947401Y710110D01*
X946329Y711181D01*
X945489Y711742D01*
X944526Y712141D01*
X944218Y712203D01*
X943922Y712309D01*
X942727Y712490D01*
X942532Y712481D01*
X942340Y712519D01*
X877570Y712520D01*
X876560Y712520D01*
D02*
G37*
G36*
X1274040Y662339D02*
X1271040D01*
X1269464Y662026D01*
X1268932Y661670D01*
X1263448D01*
X1262916Y662026D01*
X1261340Y662339D01*
X1258340D01*
X1256764Y662026D01*
X1250216D01*
X1248640Y662339D01*
X1245640D01*
X1244064Y662026D01*
X1242727Y661133D01*
X1241834Y659796D01*
X1241521Y658220D01*
Y647775D01*
X1233740D01*
Y650160D01*
X1217660D01*
Y635080D01*
X1226448D01*
X1232710Y628818D01*
X1232997Y627928D01*
X1233028Y627775D01*
X1233031Y627758D01*
X1234256Y625926D01*
X1236088Y624701D01*
X1238250Y624272D01*
X1238379Y624297D01*
X1246933Y615743D01*
X1248193Y614901D01*
X1249680Y614605D01*
X1260776D01*
X1262263Y614901D01*
X1263523Y615743D01*
X1264492Y616712D01*
X1265497Y617383D01*
X1275287Y627173D01*
X1276129Y628433D01*
X1276425Y629920D01*
Y636455D01*
X1276953Y636807D01*
X1277846Y638144D01*
X1278159Y639720D01*
Y658220D01*
X1277846Y659796D01*
X1276953Y661133D01*
X1275616Y662026D01*
X1274040Y662339D01*
D02*
G37*
G36*
X905510Y650290D02*
X876560D01*
X875568Y650093D01*
X875568Y650093D01*
X873701Y649319D01*
X873701Y649319D01*
X872861Y648758D01*
X871432Y647329D01*
X870871Y646489D01*
X870097Y644622D01*
X869900Y643631D01*
Y642620D01*
Y598169D01*
X869900Y597158D01*
X869900Y597158D01*
X869900Y597158D01*
X869989Y596710D01*
X870097Y596167D01*
X870097Y596167D01*
X870097Y596167D01*
X870871Y594300D01*
X870871Y594300D01*
X870152Y593090D01*
X689610D01*
Y592527D01*
X688340Y591695D01*
X685800Y592029D01*
X682787Y591633D01*
X679980Y590470D01*
X677570Y588620D01*
X675720Y586210D01*
X674557Y583402D01*
X674160Y580390D01*
X674557Y577378D01*
X675720Y574570D01*
X677570Y572160D01*
X679980Y570310D01*
X681915Y569508D01*
Y510816D01*
X679829Y509952D01*
X677356Y508054D01*
X675458Y505581D01*
X674265Y502701D01*
X673858Y499610D01*
X674265Y496519D01*
X675458Y493639D01*
X677356Y491166D01*
X679829Y489268D01*
X682709Y488075D01*
X685800Y487668D01*
X688891Y488075D01*
X691771Y489268D01*
X694244Y491166D01*
X696142Y493639D01*
X697335Y496519D01*
X697742Y499610D01*
X697335Y502701D01*
X696142Y505581D01*
X694244Y508054D01*
X691771Y509952D01*
X689685Y510816D01*
Y567690D01*
X920750D01*
X920750Y567690D01*
Y567690D01*
X921640Y566897D01*
X979334Y509202D01*
X979065Y508551D01*
X978658Y505460D01*
X979065Y502369D01*
X980258Y499489D01*
X982156Y497016D01*
X984629Y495118D01*
X987509Y493925D01*
X990600Y493518D01*
X993691Y493925D01*
X996571Y495118D01*
X999044Y497016D01*
X1000942Y499489D01*
X1002135Y502369D01*
X1002542Y505460D01*
X1002135Y508551D01*
X1000942Y511431D01*
X999044Y513904D01*
X998760Y514123D01*
X997870Y514934D01*
X997870D01*
X997870Y514934D01*
Y531296D01*
X998563Y532398D01*
X998794Y532576D01*
X1000692Y535049D01*
X1001885Y537929D01*
X1002292Y541020D01*
X1001885Y544111D01*
X1000692Y546991D01*
X998794Y549464D01*
X996321Y551362D01*
X993441Y552555D01*
X990350Y552962D01*
X987259Y552555D01*
X984379Y551362D01*
X981906Y549464D01*
X980008Y546991D01*
X979144Y544905D01*
X974429D01*
X952914Y566420D01*
X953440Y567690D01*
X1027380D01*
Y474980D01*
X1027380Y466217D01*
X1027308Y465487D01*
X1026704Y464029D01*
X1025681Y463006D01*
X1024223Y462402D01*
X1023493Y462330D01*
X677169D01*
X676178Y462133D01*
X676178Y462133D01*
X674311Y461359D01*
X674311Y461359D01*
X673471Y460798D01*
X672042Y459369D01*
X671481Y458529D01*
X670707Y456661D01*
X670510Y455671D01*
Y438150D01*
X670510Y436887D01*
X670707Y435896D01*
X671674Y433562D01*
X672235Y432722D01*
X674022Y430935D01*
X674022Y430935D01*
X674862Y430374D01*
X677196Y429407D01*
X677196Y429407D01*
X678187Y429210D01*
X679450Y429210D01*
X1046480Y429210D01*
X1047230Y429210D01*
X1047481Y429260D01*
X1047736D01*
X1049208Y429553D01*
X1049444Y429650D01*
X1049694Y429700D01*
X1051080Y430275D01*
X1051292Y430416D01*
X1051528Y430514D01*
X1052776Y431348D01*
X1052956Y431528D01*
X1053169Y431670D01*
X1054230Y432731D01*
X1054372Y432943D01*
X1054552Y433124D01*
X1055386Y434372D01*
X1055484Y434607D01*
X1055625Y434819D01*
X1056200Y436206D01*
X1056249Y436456D01*
X1056347Y436692D01*
X1056640Y438164D01*
Y438419D01*
X1056690Y438670D01*
X1056690Y439420D01*
X1056690Y439420D01*
X1056690Y609600D01*
X1056690Y610350D01*
X1056640Y610601D01*
Y610856D01*
X1056347Y612328D01*
X1056249Y612564D01*
X1056200Y612814D01*
X1055625Y614200D01*
X1055484Y614412D01*
X1055386Y614648D01*
X1054552Y615896D01*
X1054372Y616077D01*
X1054230Y616289D01*
X1053169Y617350D01*
X1052957Y617492D01*
X1052776Y617672D01*
X1051528Y618506D01*
X1051292Y618604D01*
X1051080Y618745D01*
X1049694Y619320D01*
X1049444Y619370D01*
X1049208Y619467D01*
X1048168Y619674D01*
X1048006D01*
X1047850Y619717D01*
X1046668Y619803D01*
X1046574Y619791D01*
X1046481Y619810D01*
X1046480D01*
X1046480Y619810D01*
X915797D01*
X915315Y619857D01*
X914315Y620272D01*
X913642Y620945D01*
X913227Y621945D01*
X913180Y622427D01*
X913179Y642620D01*
X913180Y643630D01*
X913180Y643630D01*
X913180Y643631D01*
X913077Y644146D01*
X912983Y644621D01*
X912983Y644621D01*
X912983Y644622D01*
X912209Y646489D01*
X912209Y646489D01*
X912209Y646489D01*
X912080Y646683D01*
Y647330D01*
X911647D01*
X910219Y648758D01*
X910219Y648758D01*
X910219Y648758D01*
X909769Y649059D01*
X909379Y649320D01*
X909379Y649320D01*
X909378Y649320D01*
X907672Y650026D01*
X907248Y650110D01*
X906829Y650219D01*
X905658Y650285D01*
X905584Y650275D01*
X905511Y650290D01*
X905510D01*
X905510Y650290D01*
D02*
G37*
G36*
X1072820Y488580D02*
X1058240D01*
Y469000D01*
X1072820D01*
Y472365D01*
X1122497D01*
X1123096Y471586D01*
X1124462Y470537D01*
X1126053Y469878D01*
X1127760Y469654D01*
X1129467Y469878D01*
X1131058Y470537D01*
X1132424Y471586D01*
X1133473Y472952D01*
X1134132Y474543D01*
X1134356Y476250D01*
X1134132Y477957D01*
X1133473Y479548D01*
X1132424Y480914D01*
X1131058Y481963D01*
X1129467Y482622D01*
X1127760Y482846D01*
X1126053Y482622D01*
X1124462Y481963D01*
X1123096Y480914D01*
X1122497Y480135D01*
X1072820D01*
Y488580D01*
D02*
G37*
%LPD*%
G36*
X877570Y709930D02*
X942340Y709930D01*
X942340Y709929D01*
X942340Y709930D01*
X943535Y709749D01*
X944498Y709350D01*
X945570Y708278D01*
X946150Y706878D01*
X946150Y706120D01*
X946150Y638810D01*
X946150Y638810D01*
X946150Y638305D01*
X945763Y637371D01*
X945049Y636657D01*
X944115Y636270D01*
X943610Y636270D01*
X930910Y636270D01*
X930152Y636270D01*
X928752Y636850D01*
X927680Y637922D01*
X927100Y639322D01*
X927100Y640080D01*
Y673100D01*
X927100Y673100D01*
X927100Y673100D01*
X926978Y674339D01*
X926030Y676628D01*
X924278Y678380D01*
X921989Y679328D01*
X920750Y679450D01*
X876300Y679450D01*
X875542Y679450D01*
X874141Y680030D01*
X873070Y681102D01*
X872490Y682502D01*
X872490Y683260D01*
Y704850D01*
X872490D01*
X872490Y704850D01*
X872573Y706061D01*
X873263Y707728D01*
X874692Y709157D01*
X876559Y709930D01*
X877570Y709930D01*
D02*
G37*
G36*
X905510Y647700D02*
X905510Y647700D01*
X905511D01*
X906682Y647633D01*
X908388Y646927D01*
X909817Y645498D01*
X910590Y643631D01*
X910590Y642620D01*
X910590Y622300D01*
X910688Y621309D01*
X911446Y619478D01*
X912848Y618076D01*
X914679Y617318D01*
X915670Y617220D01*
X1046480D01*
X1046480Y617220D01*
Y617220D01*
X1046481D01*
X1047662Y617134D01*
X1048703Y616927D01*
X1050089Y616353D01*
X1051337Y615519D01*
X1052399Y614457D01*
X1053233Y613209D01*
X1053807Y611823D01*
X1054100Y610350D01*
X1054100Y609600D01*
X1054100Y439420D01*
X1054100Y439420D01*
X1054100Y438669D01*
X1053807Y437197D01*
X1053233Y435811D01*
X1052399Y434562D01*
X1051337Y433501D01*
X1050089Y432667D01*
X1048703Y432093D01*
X1047230Y431800D01*
X1046480Y431800D01*
X679450Y431800D01*
X678187Y431800D01*
X675853Y432767D01*
X674067Y434553D01*
X673100Y436887D01*
X673100Y438150D01*
Y455671D01*
X673873Y457538D01*
X675302Y458967D01*
X677169Y459740D01*
X1023620D01*
X1024859Y459862D01*
X1027148Y460810D01*
X1028900Y462562D01*
X1029848Y464851D01*
X1029970Y466090D01*
X1029970Y474980D01*
Y589280D01*
X1029969Y589280D01*
X1029896Y590023D01*
X1029327Y591397D01*
X1028276Y592448D01*
X1026903Y593017D01*
X1026160Y593090D01*
X877570Y593090D01*
X876560Y593090D01*
X874693Y593863D01*
X873263Y595291D01*
X872490Y597158D01*
X872490Y598169D01*
Y642620D01*
Y643631D01*
X873263Y645498D01*
X874692Y646927D01*
X876560Y647700D01*
X905510D01*
X905510Y647700D01*
D02*
G37*
D14*
X576780Y639640D02*
X583960Y632460D01*
X640080D01*
X736600Y728980D01*
Y732790D01*
X564080Y639640D02*
X577610Y626110D01*
X653250D02*
X759930Y732790D01*
X577610Y626110D02*
X653250D01*
X576780Y639640D02*
Y647390D01*
X759930Y732790D02*
X762000D01*
X564080Y639640D02*
Y647390D01*
X1238250Y629920D02*
X1249680Y618490D01*
X1260776D01*
X1262417Y620130D01*
X1262750D02*
X1272540Y629920D01*
X1262417Y620130D02*
X1262750D01*
X1272540Y629920D02*
Y648970D01*
X1251612Y630582D02*
X1255422D01*
X1259840Y635000D01*
X1250950Y629920D02*
X1251612Y630582D01*
X1259840Y635000D02*
Y648970D01*
X1223010Y643890D02*
X1245427D01*
X1247140Y645602D02*
Y648970D01*
X1245427Y643890D02*
X1247140Y645602D01*
X1136650Y549910D02*
X1155700D01*
X1075690Y610870D02*
Y659430D01*
Y610870D02*
X1136650Y549910D01*
X1073450Y661670D02*
X1075690Y659430D01*
X1068070Y476250D02*
X1127760D01*
X1065530Y478790D02*
X1068070Y476250D01*
X524510Y641200D02*
X549668D01*
X551380Y642913D01*
Y647390D01*
X685800Y499610D02*
Y580390D01*
X939800D02*
X942758Y577432D01*
Y571082D02*
X972820Y541020D01*
X987810D01*
X942758Y571082D02*
Y577432D01*
X914400Y579630D02*
X987810Y506220D01*
Y505460D02*
Y506220D01*
X914400Y579630D02*
Y580390D01*
D18*
X1182370Y681990D02*
D03*
Y698990D02*
D03*
X462200Y662060D02*
D03*
Y679060D02*
D03*
X957660Y625720D02*
D03*
Y608720D02*
D03*
D19*
X1040130Y675940D02*
D03*
Y662940D02*
D03*
D31*
X1041400Y732790D02*
D03*
D32*
X1016000D02*
D03*
X990600D02*
D03*
X965200D02*
D03*
X939800D02*
D03*
X914400D02*
D03*
X889000D02*
D03*
X863600D02*
D03*
X838200D02*
D03*
X812800D02*
D03*
X787400D02*
D03*
X762000D02*
D03*
X736600D02*
D03*
X711200D02*
D03*
X685800D02*
D03*
Y580390D02*
D03*
X711200D02*
D03*
X736600D02*
D03*
X762000D02*
D03*
X787400D02*
D03*
X812800D02*
D03*
X838200D02*
D03*
X863600D02*
D03*
X889000D02*
D03*
X914400D02*
D03*
X939800D02*
D03*
X965200D02*
D03*
X990600D02*
D03*
X1016000D02*
D03*
X1041400D02*
D03*
D33*
X1047750Y803910D02*
D03*
Y880110D02*
D03*
Y854710D02*
D03*
Y829310D02*
D03*
X742950Y881330D02*
D03*
Y855930D02*
D03*
Y830530D02*
D03*
Y805130D02*
D03*
X821690Y881330D02*
D03*
Y855930D02*
D03*
Y830530D02*
D03*
Y805130D02*
D03*
X900910Y881330D02*
D03*
Y855930D02*
D03*
Y830530D02*
D03*
Y805130D02*
D03*
X685800Y828040D02*
D03*
Y853690D02*
D03*
Y879340D02*
D03*
X990350Y541020D02*
D03*
X1016000D02*
D03*
X1041650D02*
D03*
X990600Y505460D02*
D03*
X1016250D02*
D03*
X1041900D02*
D03*
X685800Y499610D02*
D03*
Y473960D02*
D03*
Y448310D02*
D03*
D34*
X492760Y563880D02*
D03*
X1238250Y629920D02*
D03*
X1250950D02*
D03*
D35*
X1022350Y605790D02*
D03*
X1000125D02*
D03*
X977900D02*
D03*
X1127760Y476250D02*
D03*
X1155700Y549910D02*
D03*
D36*
X1135380Y646430D02*
D03*
X1136650Y709930D02*
D03*
D37*
X1247140Y648970D02*
D03*
X1259840D02*
D03*
X1285240D02*
D03*
X1272540D02*
D03*
X1285240Y705470D02*
D03*
X1272490D02*
D03*
X1259740D02*
D03*
X1247140D02*
D03*
X551380Y703890D02*
D03*
X563980D02*
D03*
X576730D02*
D03*
X589480D02*
D03*
X576780Y647390D02*
D03*
X589480D02*
D03*
X564080D02*
D03*
X551380D02*
D03*
D38*
X1265990Y677220D02*
D03*
X570230Y675640D02*
D03*
D39*
X1225700Y642620D02*
D03*
X1212700D02*
D03*
D40*
X464820Y563880D02*
D03*
X477820D02*
D03*
X1073450Y661670D02*
D03*
X1060450D02*
D03*
D41*
X1242060Y754380D02*
D03*
X1301750Y753110D02*
D03*
X613410Y754380D02*
D03*
X560070Y753110D02*
D03*
D42*
X1216660Y700570D02*
D03*
Y673570D02*
D03*
X494030Y683590D02*
D03*
Y656590D02*
D03*
D43*
X524510Y654200D02*
D03*
Y641200D02*
D03*
D44*
X1045530Y478790D02*
D03*
X1065530D02*
D03*
D45*
X955920Y645080D02*
D03*
X938920D02*
D03*
D46*
X991180Y703389D02*
D03*
Y677989D02*
D03*
Y665288D02*
D03*
X936680Y703389D02*
D03*
Y690688D02*
D03*
Y677989D02*
D03*
Y665288D02*
D03*
X991180Y690688D02*
D03*
D47*
X892040Y688340D02*
D03*
Y637540D02*
D03*
D48*
X789040Y662940D02*
D03*
M02*
