G04*
G04 #@! TF.GenerationSoftware,Altium Limited,Altium Designer,22.5.1 (42)*
G04*
G04 Layer_Color=128*
%FSLAX44Y44*%
%MOMM*%
G71*
G04*
G04 #@! TF.SameCoordinates,8C462A5C-675D-4BC4-B2B0-4FF287324B2F*
G04*
G04*
G04 #@! TF.FilePolarity,Positive*
G04*
G01*
G75*
%ADD70C,0.0508*%
D70*
X1036900Y732790D02*
X1045900D01*
X1041400Y728290D02*
Y737290D01*
X1011500Y732790D02*
X1020500D01*
X1016000Y728290D02*
Y737290D01*
X986100Y732790D02*
X995100D01*
X990600Y728290D02*
Y737290D01*
X960700Y732790D02*
X969700D01*
X965200Y728290D02*
Y737290D01*
X935300Y732790D02*
X944300D01*
X939800Y728290D02*
Y737290D01*
X909900Y732790D02*
X918900D01*
X914400Y728290D02*
Y737290D01*
X884500Y732790D02*
X893500D01*
X889000Y728290D02*
Y737290D01*
X859100Y732790D02*
X868100D01*
X863600Y728290D02*
Y737290D01*
X833700Y732790D02*
X842700D01*
X838200Y728290D02*
Y737290D01*
X808300Y732790D02*
X817300D01*
X812800Y728290D02*
Y737290D01*
X782900Y732790D02*
X791900D01*
X787400Y728290D02*
Y737290D01*
X757500Y732790D02*
X766500D01*
X762000Y728290D02*
Y737290D01*
X732100Y732790D02*
X741100D01*
X736600Y728290D02*
Y737290D01*
X706700Y732790D02*
X715700D01*
X711200Y728290D02*
Y737290D01*
X681300Y732790D02*
X690300D01*
X685800Y728290D02*
Y737290D01*
X681300Y580390D02*
X690300D01*
X685800Y575890D02*
Y584890D01*
X706700Y580390D02*
X715700D01*
X711200Y575890D02*
Y584890D01*
X732100Y580390D02*
X741100D01*
X736600Y575890D02*
Y584890D01*
X757500Y580390D02*
X766500D01*
X762000Y575890D02*
Y584890D01*
X782900Y580390D02*
X791900D01*
X787400Y575890D02*
Y584890D01*
X808300Y580390D02*
X817300D01*
X812800Y575890D02*
Y584890D01*
X833700Y580390D02*
X842700D01*
X838200Y575890D02*
Y584890D01*
X859100Y580390D02*
X868100D01*
X863600Y575890D02*
Y584890D01*
X884500Y580390D02*
X893500D01*
X889000Y575890D02*
Y584890D01*
X909900Y580390D02*
X918900D01*
X914400Y575890D02*
Y584890D01*
X935300Y580390D02*
X944300D01*
X939800Y575890D02*
Y584890D01*
X960700Y580390D02*
X969700D01*
X965200Y575890D02*
Y584890D01*
X986100Y580390D02*
X995100D01*
X990600Y575890D02*
Y584890D01*
X1011500Y580390D02*
X1020500D01*
X1016000Y575890D02*
Y584890D01*
X1036900Y580390D02*
X1045900D01*
X1041400Y575890D02*
Y584890D01*
X1041350Y803910D02*
X1054150D01*
X1047750Y797510D02*
Y810310D01*
X1041350Y880110D02*
X1054150D01*
X1047750Y873710D02*
Y886510D01*
X1041350Y854710D02*
X1054150D01*
X1047750Y848310D02*
Y861110D01*
X1041350Y829310D02*
X1054150D01*
X1047750Y822910D02*
Y835710D01*
X736550Y881330D02*
X749350D01*
X742950Y874930D02*
Y887730D01*
X736550Y855930D02*
X749350D01*
X742950Y849530D02*
Y862330D01*
X736550Y830530D02*
X749350D01*
X742950Y824130D02*
Y836930D01*
X736550Y805130D02*
X749350D01*
X742950Y798730D02*
Y811530D01*
X815290Y881330D02*
X828090D01*
X821690Y874930D02*
Y887730D01*
X815290Y855930D02*
X828090D01*
X821690Y849530D02*
Y862330D01*
X815290Y830530D02*
X828090D01*
X821690Y824130D02*
Y836930D01*
X815290Y805130D02*
X828090D01*
X821690Y798730D02*
Y811530D01*
X894510Y881330D02*
X907310D01*
X900910Y874930D02*
Y887730D01*
X894510Y855930D02*
X907310D01*
X900910Y849530D02*
Y862330D01*
X894510Y830530D02*
X907310D01*
X900910Y824130D02*
Y836930D01*
X894510Y805130D02*
X907310D01*
X900910Y798730D02*
Y811530D01*
X679400Y828040D02*
X692200D01*
X685800Y821640D02*
Y834440D01*
X679400Y853690D02*
X692200D01*
X685800Y847290D02*
Y860090D01*
X679400Y879340D02*
X692200D01*
X685800Y872940D02*
Y885740D01*
X983950Y541020D02*
X996750D01*
X990350Y534620D02*
Y547420D01*
X1009600Y541020D02*
X1022400D01*
X1016000Y534620D02*
Y547420D01*
X1035250Y541020D02*
X1048050D01*
X1041650Y534620D02*
Y547420D01*
X984200Y505460D02*
X997000D01*
X990600Y499060D02*
Y511860D01*
X1009850Y505460D02*
X1022650D01*
X1016250Y499060D02*
Y511860D01*
X1035500Y505460D02*
X1048300D01*
X1041900Y499060D02*
Y511860D01*
X679400Y499610D02*
X692200D01*
X685800Y493210D02*
Y506010D01*
X679400Y473960D02*
X692200D01*
X685800Y467560D02*
Y480360D01*
X679400Y448310D02*
X692200D01*
X685800Y441910D02*
Y454710D01*
X491260Y563880D02*
X494260D01*
X492760Y562380D02*
Y565380D01*
X1236750Y629920D02*
X1239750D01*
X1238250Y628420D02*
Y631420D01*
X1249450Y629920D02*
X1252450D01*
X1250950Y628420D02*
Y631420D01*
X1019850Y605790D02*
X1024850D01*
X1022350Y603290D02*
Y608290D01*
X997625Y605790D02*
X1002625D01*
X1000125Y603290D02*
Y608290D01*
X975400Y605790D02*
X980400D01*
X977900Y603290D02*
Y608290D01*
X1125260Y476250D02*
X1130260D01*
X1127760Y473750D02*
Y478750D01*
X1153200Y549910D02*
X1158200D01*
X1155700Y547410D02*
Y552410D01*
M02*
