M48
;Layer_Color=9474304
;FILE_FORMAT=4:4
METRIC,LZ
;TYPE=PLATED
T1F00S00C0.3000
T2F00S00C0.5000
T3F00S00C0.9000
T4F00S00C1.2800
%
T01
X0123825Y0062992
X0125095
X0049276Y0056388
T02
X009779Y0060579
X01000125
X0102235
X011557Y0054991
X0112776Y0047625
T03
X008128Y0058039
X008382
X008636
X00889
X009144
X009398
X009652
X009906
X01016
X010414
Y0073279
X01016
X009906
X009652
X009398
X009144
X00889
X008636
X008382
X008128
X007874
X00762
X007366
X007112
X006858
Y0058039
X007112
X007366
X00762
X007874
T04
X009906Y0050546
X0101625
X010419
X0104165Y0054102
X01016
X0099035
X006858Y0049961
Y0047396
Y0044831
Y0082804
Y0085369
Y0087934
X0074295Y0088133
Y0085593
Y0083053
Y0080513
X0082169
Y0083053
Y0085593
Y0088133
X0090091
Y0085593
Y0083053
Y0080513
X0104775Y0080391
Y0082931
Y0085471
Y0088011
M30
