G04*
G04 #@! TF.GenerationSoftware,Altium Limited,Altium Designer,22.5.1 (42)*
G04*
G04 Layer_Physical_Order=1*
G04 Layer_Color=255*
%FSLAX44Y44*%
%MOMM*%
G71*
G04*
G04 #@! TF.SameCoordinates,8C462A5C-675D-4BC4-B2B0-4FF287324B2F*
G04*
G04*
G04 #@! TF.FilePolarity,Positive*
G04*
G01*
G75*
%ADD14C,0.2540*%
G04:AMPARAMS|DCode=16|XSize=1mm|YSize=2mm|CornerRadius=0.25mm|HoleSize=0mm|Usage=FLASHONLY|Rotation=270.000|XOffset=0mm|YOffset=0mm|HoleType=Round|Shape=RoundedRectangle|*
%AMROUNDEDRECTD16*
21,1,1.0000,1.5000,0,0,270.0*
21,1,0.5000,2.0000,0,0,270.0*
1,1,0.5000,-0.7500,-0.2500*
1,1,0.5000,-0.7500,0.2500*
1,1,0.5000,0.7500,0.2500*
1,1,0.5000,0.7500,-0.2500*
%
%ADD16ROUNDEDRECTD16*%
%ADD17R,1.4500X0.9500*%
%ADD18R,1.4000X1.0000*%
%ADD19R,1.0000X0.9000*%
%ADD20R,2.5000X1.2000*%
G04:AMPARAMS|DCode=21|XSize=1mm|YSize=2mm|CornerRadius=0.25mm|HoleSize=0mm|Usage=FLASHONLY|Rotation=180.000|XOffset=0mm|YOffset=0mm|HoleType=Round|Shape=RoundedRectangle|*
%AMROUNDEDRECTD21*
21,1,1.0000,1.5000,0,0,180.0*
21,1,0.5000,2.0000,0,0,180.0*
1,1,0.5000,-0.2500,0.7500*
1,1,0.5000,0.2500,0.7500*
1,1,0.5000,0.2500,-0.7500*
1,1,0.5000,-0.2500,-0.7500*
%
%ADD21ROUNDEDRECTD21*%
%ADD31R,1.8000X1.8000*%
%ADD32C,1.8000*%
%ADD33C,1.8600*%
%ADD34C,0.6000*%
%ADD35C,0.8000*%
G36*
X1342390Y894080D02*
X1342390Y894080D01*
X1343891Y894080D01*
X1346835Y893494D01*
X1349609Y892345D01*
X1352105Y890678D01*
X1354228Y888555D01*
X1355896Y886059D01*
X1357044Y883285D01*
X1357630Y880341D01*
X1357630Y878840D01*
X1357630Y607085D01*
X1357630Y607085D01*
Y605830D01*
X1357141Y603368D01*
X1356183Y601048D01*
X1354792Y598959D01*
X1353020Y597180D01*
X1350937Y595781D01*
X1348620Y594814D01*
X1346160Y594316D01*
X1344906Y594311D01*
X1051304Y593177D01*
X1051304Y593177D01*
X1051290Y593090D01*
X955040D01*
X955040Y593090D01*
X954029Y593090D01*
X952162Y593863D01*
X950733Y595292D01*
X949960Y597160D01*
X949960Y598170D01*
Y612140D01*
X949960D01*
X949960Y612140D01*
X950040Y613344D01*
X950733Y615018D01*
X952162Y616447D01*
X954029Y617220D01*
X955040Y617220D01*
X1314454Y617220D01*
X1315720Y617220D01*
X1315720Y617220D01*
Y617220D01*
X1316716Y617269D01*
X1316916Y617309D01*
X1318669Y617657D01*
X1320509Y618419D01*
X1322165Y619526D01*
X1323574Y620934D01*
X1324680Y622590D01*
X1325443Y624431D01*
X1325831Y626384D01*
X1325880Y627380D01*
X1325880Y848360D01*
X1325880Y848360D01*
X1325880Y848360D01*
X1325770Y850601D01*
X1324895Y854996D01*
X1323181Y859136D01*
X1320691Y862862D01*
X1317522Y866031D01*
X1313796Y868521D01*
X1309656Y870236D01*
X1305261Y871110D01*
X1303020Y871220D01*
X674370Y871220D01*
X673107Y871220D01*
X670773Y872187D01*
X668987Y873973D01*
X668020Y876307D01*
X668020Y877570D01*
Y889000D01*
X668020Y889000D01*
X668020Y889000D01*
X668087Y890172D01*
X668793Y891878D01*
X670222Y893307D01*
X672089Y894080D01*
X673100Y894080D01*
X1342390Y894080D01*
X1342390Y894080D01*
D02*
G37*
G36*
X473710Y995680D02*
X1288984Y995680D01*
X1288984Y995680D01*
X1288984Y995680D01*
X1292234Y995680D01*
X1298704Y995044D01*
X1305079Y993777D01*
X1311301Y991893D01*
X1317308Y989409D01*
X1323043Y986349D01*
X1328451Y982742D01*
X1333480Y978623D01*
X1338081Y974032D01*
X1342211Y969012D01*
X1345831Y963612D01*
X1348904Y957884D01*
X1351401Y951883D01*
X1353300Y945666D01*
X1354580Y939293D01*
X1355231Y932825D01*
X1355238Y929575D01*
X1355321Y892784D01*
X1354148Y892297D01*
X1353936Y892509D01*
X1353724Y892651D01*
X1353544Y892831D01*
X1351048Y894499D01*
X1350812Y894596D01*
X1350600Y894738D01*
X1347826Y895887D01*
X1347576Y895937D01*
X1347341Y896034D01*
X1344396Y896620D01*
X1344141D01*
X1343891Y896670D01*
X1342391Y896670D01*
X1342390Y896670D01*
X673100Y896670D01*
X672089Y896670D01*
X671098Y896473D01*
X669231Y895699D01*
X668391Y895138D01*
X666962Y893709D01*
X666401Y892869D01*
X665694Y891163D01*
X665610Y890738D01*
X665501Y890319D01*
X665434Y889147D01*
X665445Y889073D01*
X665430Y889000D01*
Y877570D01*
X665430Y876307D01*
X665627Y875316D01*
X666594Y872982D01*
X667156Y872142D01*
X668942Y870356D01*
X669782Y869794D01*
X672116Y868827D01*
X673107Y868630D01*
X674370Y868630D01*
X680670D01*
X681230Y868307D01*
X684241Y867500D01*
X687359D01*
X690370Y868307D01*
X690930Y868630D01*
X1044847Y868630D01*
X1046191Y868270D01*
X1049309D01*
X1050653Y868630D01*
X1302957Y868630D01*
X1304943Y868533D01*
X1308900Y867745D01*
X1312569Y866226D01*
X1315871Y864019D01*
X1318679Y861211D01*
X1320886Y857909D01*
X1322405Y854240D01*
X1323192Y850283D01*
X1323290Y848292D01*
X1323290Y627443D01*
X1323254Y626702D01*
X1322952Y625186D01*
X1322385Y623817D01*
X1321562Y622585D01*
X1320515Y621538D01*
X1319283Y620715D01*
X1317914Y620148D01*
X1316411Y619849D01*
X1316411Y619849D01*
X1316411D01*
X1316398Y619846D01*
X1315655Y619810D01*
X1314454Y619810D01*
X955040Y619810D01*
X954030Y619810D01*
X954030Y619810D01*
X954029Y619810D01*
X953492Y619703D01*
X953039Y619613D01*
X953038Y619613D01*
X953038Y619613D01*
X951171Y618839D01*
X950331Y618278D01*
X950331Y618278D01*
X948902Y616849D01*
X948902Y616849D01*
X948902Y616849D01*
X948591Y616384D01*
X948341Y616008D01*
X948341Y616008D01*
X948340Y616008D01*
X947647Y614335D01*
X947565Y613922D01*
X947456Y613516D01*
X947376Y612312D01*
X947387Y612225D01*
X947370Y612140D01*
Y598170D01*
X947370Y597160D01*
X947567Y596169D01*
X947567Y596169D01*
X948341Y594301D01*
X948341Y594301D01*
X948622Y593881D01*
X948902Y593461D01*
X948902Y593461D01*
X950331Y592032D01*
X951171Y591471D01*
X953038Y590697D01*
X954029Y590500D01*
X955040Y590500D01*
X955040Y590500D01*
X957194D01*
X957720Y589230D01*
X955966Y587476D01*
X954446Y584844D01*
X953660Y581909D01*
Y578871D01*
X954446Y575936D01*
X955966Y573304D01*
X958114Y571156D01*
X960746Y569636D01*
X963681Y568850D01*
X966719D01*
X969654Y569636D01*
X972286Y571156D01*
X974434Y573304D01*
X975954Y575936D01*
X976740Y578871D01*
Y581909D01*
X975954Y584844D01*
X974434Y587476D01*
X972680Y589230D01*
X973206Y590500D01*
X982594D01*
X983120Y589230D01*
X981366Y587476D01*
X979846Y584844D01*
X979060Y581909D01*
Y578871D01*
X979846Y575936D01*
X981366Y573304D01*
X983514Y571156D01*
X986146Y569636D01*
X989081Y568850D01*
X992119D01*
X995054Y569636D01*
X997686Y571156D01*
X999834Y573304D01*
X1001354Y575936D01*
X1002140Y578871D01*
Y581909D01*
X1001354Y584844D01*
X999834Y587476D01*
X998080Y589230D01*
X998606Y590500D01*
X1033394D01*
X1033920Y589230D01*
X1032166Y587476D01*
X1030647Y584844D01*
X1029860Y581909D01*
Y578871D01*
X1030647Y575936D01*
X1032166Y573304D01*
X1034314Y571156D01*
X1036946Y569636D01*
X1039881Y568850D01*
X1042919D01*
X1045854Y569636D01*
X1048486Y571156D01*
X1050634Y573304D01*
X1052153Y575936D01*
X1052940Y578871D01*
Y581909D01*
X1052153Y584844D01*
X1050634Y587476D01*
X1048880Y589230D01*
X1049406Y590500D01*
X1051290D01*
X1051582Y590558D01*
X1051879Y590568D01*
X1051926Y590589D01*
X1344915Y591721D01*
X1346171Y591726D01*
X1346420Y591777D01*
X1346674Y591777D01*
X1349134Y592275D01*
X1349369Y592374D01*
X1349619Y592424D01*
X1351935Y593391D01*
X1352146Y593533D01*
X1352381Y593631D01*
X1354464Y595031D01*
X1354644Y595211D01*
X1354718Y595261D01*
X1355658Y595022D01*
X1355989Y594886D01*
X1356275Y467314D01*
X1356275Y467314D01*
X1356281Y464573D01*
X1355576Y459135D01*
X1354167Y453835D01*
X1352077Y448766D01*
X1349342Y444013D01*
X1346010Y439658D01*
X1342137Y435777D01*
X1337790Y432434D01*
X1333043Y429689D01*
X1327978Y427588D01*
X1322682Y426167D01*
X1317246Y425450D01*
X1314504Y425450D01*
X468630Y425450D01*
X465883Y425450D01*
X460436Y426167D01*
X455130Y427589D01*
X450054Y429691D01*
X445296Y432438D01*
X440938Y435783D01*
X437053Y439668D01*
X433708Y444026D01*
X430961Y448784D01*
X428859Y453859D01*
X427437Y459166D01*
X426720Y464613D01*
X426720Y467360D01*
Y948690D01*
X426720Y951770D01*
X427524Y957877D01*
X429118Y963827D01*
X431475Y969518D01*
X434555Y974852D01*
X438305Y979739D01*
X442661Y984095D01*
X447548Y987845D01*
X452882Y990925D01*
X458573Y993282D01*
X464523Y994876D01*
X470630Y995680D01*
X473710Y995680D01*
D02*
G37*
%LPC*%
G36*
X902469Y842370D02*
X899351D01*
X898008Y842010D01*
D01*
X896340Y841563D01*
X893640Y840004D01*
X891436Y837800D01*
X889877Y835100D01*
X889070Y832089D01*
Y828971D01*
X889877Y825960D01*
X891436Y823260D01*
X893640Y821056D01*
X896340Y819497D01*
Y816163D01*
X893640Y814604D01*
X891436Y812400D01*
X889877Y809700D01*
X889070Y806689D01*
Y803571D01*
X889877Y800560D01*
X891436Y797860D01*
X893640Y795656D01*
X896340Y794097D01*
X899351Y793290D01*
X902469D01*
X905480Y794097D01*
X906095Y794452D01*
X910515Y790031D01*
Y743696D01*
X909946Y743543D01*
X907314Y742024D01*
X905166Y739876D01*
X903646Y737244D01*
X902860Y734309D01*
Y731271D01*
X903646Y728336D01*
X905166Y725704D01*
X907314Y723556D01*
X909946Y722037D01*
X912881Y721250D01*
X915919D01*
X918854Y722037D01*
X921486Y723556D01*
X932714D01*
X935346Y722037D01*
X938281Y721250D01*
X941319D01*
X944254Y722037D01*
X946886Y723556D01*
X949034Y725704D01*
X950554Y728336D01*
X951340Y731271D01*
Y734309D01*
X950554Y737244D01*
X949034Y739876D01*
X946886Y742024D01*
X944254Y743543D01*
X943685Y743696D01*
Y791640D01*
X943389Y793127D01*
X942547Y794387D01*
X911588Y825345D01*
X911943Y825960D01*
X912750Y828971D01*
Y832089D01*
X911943Y835100D01*
X910384Y837800D01*
X908180Y840004D01*
X905480Y841563D01*
X902469Y842370D01*
D02*
G37*
G36*
X865119Y744330D02*
X862081D01*
X859146Y743543D01*
X856514Y742024D01*
X845286D01*
X842654Y743543D01*
X839719Y744330D01*
X836681D01*
X833746Y743543D01*
X831114Y742024D01*
X828966Y739876D01*
X827447Y737244D01*
X826660Y734309D01*
Y731271D01*
X827447Y728336D01*
X828966Y725704D01*
X831114Y723556D01*
X833746Y722037D01*
X836681Y721250D01*
X838067D01*
X838411Y720735D01*
X900223Y658923D01*
X901483Y658081D01*
X902970Y657785D01*
X1204891D01*
X1232710Y629966D01*
Y628818D01*
X1233553Y626782D01*
X1235112Y625223D01*
X1237148Y624380D01*
X1239352D01*
X1241388Y625223D01*
X1247812D01*
X1249848Y624380D01*
X1252052D01*
X1254088Y625223D01*
X1255647Y626782D01*
X1256490Y628818D01*
Y631022D01*
X1255647Y633058D01*
X1254088Y634617D01*
X1253789Y634741D01*
X1253035Y635869D01*
X1215597Y673307D01*
X1214337Y674149D01*
X1212850Y674445D01*
X927439D01*
X874059Y727825D01*
X874353Y728336D01*
X875140Y731271D01*
Y734309D01*
X874353Y737244D01*
X872834Y739876D01*
X870686Y742024D01*
X868054Y743543D01*
X865119Y744330D01*
D02*
G37*
G36*
X1049309Y841150D02*
X1046191D01*
X1043180Y840343D01*
X1040480Y838784D01*
X1038276Y836580D01*
X1036717Y833880D01*
X1035910Y830869D01*
Y827751D01*
X1036717Y824740D01*
X1037072Y824125D01*
X1013253Y800307D01*
X1012411Y799047D01*
X1012115Y797560D01*
Y743696D01*
X1011546Y743543D01*
X1008914Y742024D01*
X1006766Y739876D01*
X1005247Y737244D01*
X1004460Y734309D01*
Y731271D01*
X1005247Y728336D01*
X1006766Y725704D01*
X1008914Y723556D01*
X1011546Y722037D01*
X1014481Y721250D01*
X1017519D01*
X1020454Y722037D01*
X1021241Y721250D01*
X1052940D01*
Y744330D01*
X1045285D01*
Y791113D01*
X1046191Y792070D01*
X1049309D01*
X1052320Y792877D01*
X1055020Y794436D01*
X1057224Y796640D01*
X1058783Y799340D01*
X1059590Y802351D01*
Y805469D01*
X1058783Y808480D01*
X1057224Y811180D01*
Y822040D01*
X1058783Y824740D01*
X1059590Y827751D01*
Y830869D01*
X1058783Y833880D01*
X1057224Y836580D01*
X1055020Y838784D01*
X1052320Y840343D01*
X1049309Y841150D01*
D02*
G37*
G36*
X992119Y744330D02*
X989081D01*
X986146Y743543D01*
X983514Y742024D01*
X981366Y739876D01*
X979846Y737244D01*
X979060Y734309D01*
Y731271D01*
X979846Y728336D01*
X981366Y725704D01*
X983514Y723556D01*
X986146Y722037D01*
X989081Y721250D01*
X992119D01*
X995054Y722037D01*
X997686Y723556D01*
X999834Y725704D01*
X1001354Y728336D01*
X1002140Y731271D01*
Y734309D01*
X1001354Y737244D01*
X999834Y739876D01*
X997686Y742024D01*
X995054Y743543D01*
X992119Y744330D01*
D02*
G37*
G36*
X823249Y842370D02*
X820131D01*
X818788Y842010D01*
X817120Y841563D01*
X814420Y840004D01*
X812216Y837800D01*
X810657Y835100D01*
X809850Y832089D01*
Y828971D01*
X810657Y825960D01*
X812216Y823260D01*
Y812400D01*
X810657Y809700D01*
X809850Y806689D01*
Y803571D01*
X810657Y800560D01*
X811290Y799463D01*
X810053Y798226D01*
X809211Y796966D01*
X808915Y795480D01*
Y743696D01*
X808346Y743543D01*
X805714Y742024D01*
X803566Y739876D01*
X802047Y737244D01*
X801260Y734309D01*
Y731271D01*
X802047Y728336D01*
X803566Y725704D01*
X805714Y723556D01*
X808346Y722037D01*
X811281Y721250D01*
X814319D01*
X817254Y722037D01*
X819886Y723556D01*
X822034Y725704D01*
X823553Y728336D01*
X824340Y731271D01*
Y734309D01*
X823553Y737244D01*
X822034Y739876D01*
X819886Y742024D01*
X817254Y743543D01*
X816685Y743696D01*
Y792952D01*
X817953Y793874D01*
X820131Y793290D01*
X823249D01*
X826260Y794097D01*
X828960Y795656D01*
X831164Y797860D01*
X848866D01*
X885115Y761611D01*
Y743696D01*
X884546Y743543D01*
X881914Y742024D01*
X879766Y739876D01*
X878247Y737244D01*
X877460Y734309D01*
Y731271D01*
X878247Y728336D01*
X879766Y725704D01*
X881914Y723556D01*
X884546Y722037D01*
X887481Y721250D01*
X890519D01*
X893454Y722037D01*
X896086Y723556D01*
X898234Y725704D01*
X899753Y728336D01*
X900540Y731271D01*
Y734309D01*
X899753Y737244D01*
X898234Y739876D01*
X896086Y742024D01*
X893454Y743543D01*
X892885Y743696D01*
Y763220D01*
X892589Y764707D01*
X891747Y765967D01*
X832368Y825345D01*
X832723Y825960D01*
X833530Y828971D01*
Y832089D01*
X832723Y835100D01*
X831164Y837800D01*
X828960Y840004D01*
X826260Y841563D01*
X823249Y842370D01*
D02*
G37*
G36*
X744509D02*
X741391D01*
X738380Y841563D01*
X735680Y840004D01*
X733476Y837800D01*
X731917Y835100D01*
X731110Y832089D01*
Y828971D01*
X731917Y825960D01*
X733476Y823260D01*
Y812400D01*
X731917Y809700D01*
X731110Y806689D01*
Y803571D01*
X731917Y800560D01*
X732272Y799945D01*
X708453Y776127D01*
X707611Y774867D01*
X707315Y773380D01*
Y743696D01*
X706746Y743543D01*
X704114Y742024D01*
X701966Y739876D01*
X700446Y737244D01*
X699660Y734309D01*
Y731271D01*
X700446Y728336D01*
X701966Y725704D01*
X704114Y723556D01*
X706746Y722037D01*
X709681Y721250D01*
X712719D01*
X715654Y722037D01*
X718286Y723556D01*
X720434Y725704D01*
X721954Y728336D01*
X722740Y731271D01*
Y734309D01*
X721954Y737244D01*
X720434Y739876D01*
X718286Y742024D01*
X715654Y743543D01*
X715085Y743696D01*
Y771771D01*
X737765Y794452D01*
X738380Y794097D01*
X741391Y793290D01*
X744509D01*
X747520Y794097D01*
X750220Y795656D01*
X752424Y797860D01*
X753658Y799997D01*
X754443Y800100D01*
X767886D01*
X783515Y784471D01*
Y743696D01*
X782946Y743543D01*
X780314Y742024D01*
X778166Y739876D01*
X776646Y737244D01*
X775860Y734309D01*
Y731271D01*
X776646Y728336D01*
X778166Y725704D01*
X780314Y723556D01*
X782946Y722037D01*
X785881Y721250D01*
X788919D01*
X791854Y722037D01*
X794486Y723556D01*
X796634Y725704D01*
X798154Y728336D01*
X798940Y731271D01*
Y734309D01*
X798154Y737244D01*
X796634Y739876D01*
X794486Y742024D01*
X791854Y743543D01*
X791285Y743696D01*
Y786080D01*
X790989Y787567D01*
X790147Y788827D01*
X753628Y825345D01*
X753983Y825960D01*
X754790Y828971D01*
Y832089D01*
X753983Y835100D01*
X752424Y837800D01*
X750220Y840004D01*
X747520Y841563D01*
X745852Y842010D01*
D01*
X744509Y842370D01*
D02*
G37*
G36*
X763519Y744330D02*
X760481D01*
X757546Y743543D01*
X754914Y742024D01*
X752766Y739876D01*
X751246Y737244D01*
X750460Y734309D01*
Y731271D01*
X751246Y728336D01*
X752766Y725704D01*
X754914Y723556D01*
X757546Y722037D01*
X760481Y721250D01*
X763519D01*
X766454Y722037D01*
X769086Y723556D01*
X771234Y725704D01*
X772754Y728336D01*
X773540Y731271D01*
Y734309D01*
X772754Y737244D01*
X771234Y739876D01*
X769086Y742024D01*
X766454Y743543D01*
X763519Y744330D01*
D02*
G37*
G36*
X738119D02*
X735081D01*
X732146Y743543D01*
X729514Y742024D01*
X727366Y739876D01*
X725846Y737244D01*
X725060Y734309D01*
Y731271D01*
X725846Y728336D01*
X727366Y725704D01*
X729514Y723556D01*
X732146Y722037D01*
X735081Y721250D01*
X738119D01*
X741054Y722037D01*
X743686Y723556D01*
X745834Y725704D01*
X747354Y728336D01*
X748140Y731271D01*
Y734309D01*
X747354Y737244D01*
X745834Y739876D01*
X743686Y742024D01*
X741054Y743543D01*
X738119Y744330D01*
D02*
G37*
G36*
X687359Y839880D02*
X684241D01*
X681230Y839073D01*
X678530Y837514D01*
X676326Y835310D01*
X674767Y832610D01*
X673960Y829599D01*
Y826481D01*
X674767Y823470D01*
X676326Y820770D01*
X678530Y818566D01*
X681230Y817007D01*
X681915Y816823D01*
Y743696D01*
X681346Y743543D01*
X678714Y742024D01*
X676566Y739876D01*
X675046Y737244D01*
X674260Y734309D01*
Y731271D01*
X675046Y728336D01*
X676566Y725704D01*
X678714Y723556D01*
X681346Y722037D01*
X684281Y721250D01*
X687319D01*
X690254Y722037D01*
X692886Y723556D01*
X695034Y725704D01*
X696553Y728336D01*
X697340Y731271D01*
Y734309D01*
X696553Y737244D01*
X695034Y739876D01*
X692886Y742024D01*
X690254Y743543D01*
X689685Y743696D01*
Y816823D01*
X690370Y817007D01*
X693070Y818566D01*
X695274Y820770D01*
X696833Y823470D01*
X697640Y826481D01*
Y829599D01*
X696833Y832610D01*
X695274Y835310D01*
X693070Y837514D01*
X690370Y839073D01*
X687359Y839880D01*
D02*
G37*
G36*
X769108Y593140D02*
X769108Y593140D01*
X769108Y593140D01*
X754380Y593139D01*
X754379Y593139D01*
X753622Y593139D01*
X752631Y592942D01*
X751231Y592362D01*
X750390Y591801D01*
X749319Y590729D01*
X748757Y589889D01*
X748177Y588489D01*
X747980Y587498D01*
Y586299D01*
X746710Y585959D01*
X745834Y587476D01*
X743686Y589624D01*
X741054Y591143D01*
X738119Y591930D01*
X735081D01*
X732146Y591143D01*
X729514Y589624D01*
X727366Y587476D01*
X725846Y584844D01*
X725060Y581909D01*
Y578871D01*
X725846Y575936D01*
X727366Y573304D01*
X729514Y571156D01*
X732146Y569636D01*
X734485Y569010D01*
X734317Y567740D01*
X722630Y567740D01*
X722630Y567740D01*
X722377D01*
X722036Y567672D01*
X721569Y567765D01*
X713576D01*
X713408Y569035D01*
X715654Y569636D01*
X718286Y571156D01*
X720434Y573304D01*
X721954Y575936D01*
X722740Y578871D01*
Y581909D01*
X721954Y584844D01*
X720434Y587476D01*
X718286Y589624D01*
X715654Y591143D01*
X712719Y591930D01*
X709681D01*
X706746Y591143D01*
X704114Y589624D01*
X701966Y587476D01*
X700446Y584844D01*
X699660Y581909D01*
Y578871D01*
X700446Y575936D01*
X701966Y573304D01*
X704114Y571156D01*
X706746Y569636D01*
X708992Y569035D01*
X708824Y567765D01*
X688176D01*
X688008Y569035D01*
X690254Y569636D01*
X692886Y571156D01*
X695034Y573304D01*
X696553Y575936D01*
X697340Y578871D01*
Y581909D01*
X696553Y584844D01*
X695034Y587476D01*
X692886Y589624D01*
X690254Y591143D01*
X687319Y591930D01*
X684281D01*
X681346Y591143D01*
X678714Y589624D01*
X676566Y587476D01*
X675046Y584844D01*
X674260Y581909D01*
Y578871D01*
X675046Y575936D01*
X676566Y573304D01*
X678714Y571156D01*
X681346Y569636D01*
X683592Y569035D01*
X683425Y567765D01*
X496710D01*
X495898Y568577D01*
X493862Y569420D01*
X491658D01*
X489622Y568577D01*
X488063Y567018D01*
X487220Y564982D01*
Y562778D01*
X488063Y560742D01*
X489622Y559183D01*
X491658Y558340D01*
X493862D01*
X495898Y559183D01*
X496710Y559995D01*
X718770D01*
Y520700D01*
X718770Y519689D01*
X718967Y518699D01*
X718967Y518698D01*
X719741Y516831D01*
X719741Y516831D01*
X720302Y515991D01*
X721731Y514562D01*
X722571Y514001D01*
X723135Y513767D01*
X724126Y513570D01*
X735016D01*
X735529Y513227D01*
X736520Y513030D01*
X762000D01*
X763010Y513030D01*
X763010Y513030D01*
X763010Y513030D01*
X763380Y513104D01*
X764001Y513227D01*
X764001Y513227D01*
X765869Y514001D01*
X766185Y514212D01*
X766709Y514562D01*
X766709Y514562D01*
X768138Y515991D01*
X768300Y516234D01*
X769570Y515849D01*
Y504190D01*
X769570Y504190D01*
Y503685D01*
X769767Y502694D01*
X770154Y501760D01*
X770715Y500920D01*
X771430Y500205D01*
X772270Y499644D01*
X773204Y499257D01*
X774195Y499060D01*
X792480D01*
X792772Y499118D01*
X793069Y499128D01*
X794227Y499398D01*
X794420Y499486D01*
X794629Y499528D01*
X794910Y499644D01*
X794910Y499644D01*
X794910Y499644D01*
X795332Y499926D01*
X795750Y500205D01*
X795750Y500205D01*
X795750Y500205D01*
X796464Y500920D01*
X796837Y501477D01*
X797438Y501612D01*
X797682D01*
X798283Y501477D01*
X798655Y500920D01*
X799370Y500205D01*
X800210Y499644D01*
X801144Y499257D01*
X802135Y499060D01*
X820420D01*
X820712Y499118D01*
X821009Y499128D01*
X822167Y499398D01*
X822360Y499486D01*
X822569Y499528D01*
X822850Y499644D01*
X822850Y499644D01*
X822850Y499644D01*
X823272Y499926D01*
X823690Y500205D01*
X823690Y500205D01*
X823690Y500205D01*
X824405Y500920D01*
X824966Y501760D01*
X825353Y502694D01*
X825353Y502694D01*
X825488Y503372D01*
X826782D01*
X826917Y502694D01*
X827304Y501760D01*
X827866Y500920D01*
X828580Y500205D01*
X829420Y499644D01*
X830354Y499257D01*
X831345Y499060D01*
X849630D01*
X849921Y499118D01*
X850219Y499128D01*
X851377Y499398D01*
X851570Y499486D01*
X851779Y499528D01*
X852060Y499644D01*
X852060Y499644D01*
X852060Y499644D01*
X852482Y499926D01*
X852900Y500205D01*
X852900Y500205D01*
X852900Y500205D01*
X853615Y500920D01*
X853987Y501477D01*
X854588Y501612D01*
X854832D01*
X855433Y501477D01*
X855806Y500920D01*
X856520Y500205D01*
X857360Y499644D01*
X858294Y499257D01*
X859285Y499060D01*
X877570D01*
X877861Y499118D01*
X878159Y499128D01*
X879317Y499398D01*
X879510Y499486D01*
X879719Y499528D01*
X880000Y499644D01*
X880000Y499644D01*
X880000Y499644D01*
X880422Y499926D01*
X880840Y500205D01*
X880840Y500205D01*
X880840Y500205D01*
X881554Y500920D01*
X881927Y501477D01*
X882528Y501612D01*
X882772D01*
X883373Y501477D01*
X883745Y500920D01*
X884460Y500205D01*
X885300Y499644D01*
X886234Y499257D01*
X887225Y499060D01*
X905510D01*
X905801Y499118D01*
X906099Y499128D01*
X907257Y499398D01*
X907450Y499486D01*
X907659Y499528D01*
X907940Y499644D01*
X907940Y499644D01*
X907940Y499644D01*
X908362Y499926D01*
X908780Y500205D01*
X908780Y500205D01*
X908780Y500205D01*
X909494Y500920D01*
X910056Y501760D01*
X910443Y502694D01*
X910443Y502694D01*
X910561Y503291D01*
X910640Y503685D01*
X910640Y503685D01*
X910640Y503685D01*
X910640Y504190D01*
X910640Y530860D01*
X910602Y531052D01*
X910611Y531248D01*
X910429Y532443D01*
X910323Y532738D01*
X910262Y533046D01*
X909863Y534009D01*
X909301Y534849D01*
X908229Y535921D01*
X907389Y536483D01*
X907389Y536483D01*
X905989Y537063D01*
X905989Y537063D01*
X904998Y537260D01*
X889000Y537260D01*
X888999Y537260D01*
X888242D01*
X887251Y537062D01*
X885851Y536482D01*
X885011Y535921D01*
X883939Y534849D01*
X883377Y534009D01*
X883337Y533912D01*
X881963Y533912D01*
X881923Y534009D01*
X881361Y534849D01*
X880289Y535921D01*
X879449Y536483D01*
X879449Y536483D01*
X878049Y537063D01*
X878049Y537063D01*
X877058Y537260D01*
X861060Y537260D01*
X861059Y537260D01*
X860302D01*
X859311Y537062D01*
X857911Y536482D01*
X857070Y535921D01*
X855999Y534849D01*
X855437Y534009D01*
X855397Y533912D01*
X854023Y533912D01*
X853983Y534009D01*
X853421Y534849D01*
X852349Y535921D01*
X851509Y536483D01*
X851509Y536483D01*
X850109Y537063D01*
X850109Y537063D01*
X849118Y537260D01*
X833120Y537260D01*
X833119Y537260D01*
X832362D01*
X831371Y537062D01*
X829971Y536482D01*
X829130Y535921D01*
X828059Y534849D01*
X827497Y534009D01*
X826917Y532609D01*
X826720Y531618D01*
X825461Y531643D01*
X825339Y532443D01*
X825233Y532738D01*
X825172Y533046D01*
X824773Y534009D01*
X824211Y534849D01*
X823139Y535921D01*
X822299Y536483D01*
X822299Y536483D01*
X820899Y537063D01*
X820899Y537063D01*
X819908Y537260D01*
X803910Y537260D01*
X803909Y537260D01*
X803152D01*
X802161Y537062D01*
X800761Y536482D01*
X799921Y535921D01*
X798849Y534849D01*
X798287Y534009D01*
X798247Y533912D01*
X796873Y533912D01*
X796833Y534009D01*
X796271Y534849D01*
X795199Y535921D01*
X794359Y536483D01*
X794359Y536483D01*
X792959Y537063D01*
X792959Y537063D01*
X791968Y537260D01*
X775970Y537260D01*
X775969Y537260D01*
X775212D01*
X774221Y537062D01*
X772821Y536482D01*
X771981Y535921D01*
X770940Y534880D01*
X770807Y534885D01*
X769670Y535281D01*
X769670Y561213D01*
X769693Y561447D01*
X769721Y561516D01*
X769721Y561516D01*
X769918Y561990D01*
X770240Y562312D01*
X770783Y562537D01*
X771017Y562560D01*
X771143D01*
X772134Y562757D01*
X772600Y562951D01*
X773441Y563512D01*
X773798Y563869D01*
X773798Y563869D01*
X774359Y564709D01*
X774553Y565176D01*
X774553Y565176D01*
X774661Y565719D01*
X774750Y566167D01*
Y578107D01*
X776020Y578275D01*
X776646Y575936D01*
X778166Y573304D01*
X780314Y571156D01*
X782946Y569636D01*
X783515Y569484D01*
Y561659D01*
X776090D01*
X774124Y561268D01*
X772456Y560154D01*
X771342Y558487D01*
X770951Y556520D01*
Y551520D01*
X771342Y549553D01*
X772456Y547886D01*
X774124Y546772D01*
X776090Y546381D01*
X791090D01*
X793056Y546772D01*
X794724Y547886D01*
X795838Y549553D01*
X796229Y551520D01*
Y556520D01*
X795838Y558487D01*
X794724Y560154D01*
X793056Y561268D01*
X791285Y561620D01*
Y569484D01*
X791854Y569636D01*
X794486Y571156D01*
X796634Y573304D01*
X798154Y575936D01*
X798940Y578871D01*
Y581909D01*
X798154Y584844D01*
X796634Y587476D01*
X794486Y589624D01*
X791854Y591143D01*
X788919Y591930D01*
X785881D01*
X782946Y591143D01*
X780314Y589624D01*
X778166Y587476D01*
X776646Y584844D01*
X776020Y582505D01*
X774750Y582673D01*
Y586739D01*
X774749Y586742D01*
Y586743D01*
X774713Y586926D01*
X774723Y587113D01*
X774555Y588272D01*
X774448Y588577D01*
X774385Y588893D01*
X773973Y589889D01*
X773411Y590729D01*
X772339Y591801D01*
X772339Y591801D01*
X771816Y592151D01*
X771499Y592362D01*
X770099Y592943D01*
X770099Y592943D01*
X769572Y593047D01*
X769108Y593140D01*
D02*
G37*
G36*
X941319Y591930D02*
X938281D01*
X935346Y591143D01*
X932714Y589624D01*
X930566Y587476D01*
X929046Y584844D01*
X928260Y581909D01*
Y578871D01*
X929046Y575936D01*
X930566Y573304D01*
X932714Y571156D01*
X935346Y569636D01*
X938281Y568850D01*
X941319D01*
X944254Y569636D01*
X946886Y571156D01*
X949034Y573304D01*
X950554Y575936D01*
X951340Y578871D01*
Y581909D01*
X950554Y584844D01*
X949034Y587476D01*
X946886Y589624D01*
X944254Y591143D01*
X941319Y591930D01*
D02*
G37*
G36*
X915919D02*
X912881D01*
X909946Y591143D01*
X907314Y589624D01*
X905166Y587476D01*
X903646Y584844D01*
X902860Y581909D01*
Y578871D01*
X903646Y575936D01*
X905166Y573304D01*
X907314Y571156D01*
X909946Y569636D01*
X912881Y568850D01*
X915919D01*
X918854Y569636D01*
X921486Y571156D01*
X923634Y573304D01*
X925154Y575936D01*
X925940Y578871D01*
Y581909D01*
X925154Y584844D01*
X923634Y587476D01*
X921486Y589624D01*
X918854Y591143D01*
X915919Y591930D01*
D02*
G37*
G36*
X1198240Y583450D02*
X1168160D01*
Y566370D01*
X1198240D01*
Y583450D01*
D02*
G37*
G36*
X1143240D02*
X1113160D01*
Y566370D01*
X1143240D01*
Y583450D01*
D02*
G37*
G36*
X1116330Y560120D02*
X1116329Y560120D01*
X1115825Y560120D01*
X1114834Y559923D01*
X1113900Y559536D01*
X1113060Y558974D01*
X1112345Y558260D01*
X1111784Y557420D01*
X1111397Y556486D01*
X1111397Y556486D01*
X1111279Y555889D01*
X1111200Y555495D01*
X1111200Y555495D01*
X1111200Y555495D01*
X1111200Y554990D01*
X1111200Y544830D01*
X1111200Y544830D01*
X1111200Y544325D01*
X1111200Y544325D01*
X1111200Y544325D01*
X1111279Y543930D01*
X1111397Y543334D01*
X1111397Y543334D01*
X1111784Y542400D01*
X1112346Y541560D01*
X1113060Y540845D01*
X1113900Y540284D01*
X1114834Y539897D01*
X1115825Y539700D01*
X1116330Y539700D01*
X1195575D01*
X1196566Y539897D01*
X1197500Y540284D01*
X1198340Y540845D01*
X1199054Y541560D01*
X1199616Y542400D01*
X1200003Y543334D01*
X1200003Y543334D01*
X1200200Y544325D01*
Y554990D01*
X1200142Y555279D01*
X1200133Y555574D01*
X1199869Y556717D01*
X1199780Y556913D01*
X1199738Y557124D01*
X1199616Y557420D01*
X1199616Y557420D01*
X1199055Y558260D01*
X1198340Y558974D01*
X1197500Y559536D01*
X1196566Y559923D01*
X1196566Y559923D01*
X1196566Y559923D01*
X1196035Y560028D01*
X1195575Y560120D01*
X1195575Y560120D01*
X1195575Y560120D01*
X1195070Y560120D01*
X1116330Y560120D01*
D02*
G37*
G36*
X890519Y591930D02*
X887481D01*
X884546Y591143D01*
X881914Y589624D01*
X879766Y587476D01*
X878247Y584844D01*
X877460Y581909D01*
Y578871D01*
X878247Y575936D01*
X879766Y573304D01*
X881914Y571156D01*
X884546Y569636D01*
X885803Y569300D01*
Y560375D01*
X885471Y560154D01*
X884357Y558487D01*
X883966Y556520D01*
Y551520D01*
X884357Y549553D01*
X885471Y547886D01*
X887139Y546772D01*
X889105Y546381D01*
X904105D01*
X906071Y546772D01*
X907739Y547886D01*
X908853Y549553D01*
X909244Y551520D01*
Y556520D01*
X908853Y558487D01*
X907739Y560154D01*
X906071Y561268D01*
X904105Y561659D01*
X893572D01*
Y569705D01*
X896086Y571156D01*
X898234Y573304D01*
X899753Y575936D01*
X900540Y578871D01*
Y581909D01*
X899753Y584844D01*
X898234Y587476D01*
X896086Y589624D01*
X893454Y591143D01*
X890519Y591930D01*
D02*
G37*
G36*
X865119D02*
X862081D01*
X859146Y591143D01*
X856514Y589624D01*
X854366Y587476D01*
X852847Y584844D01*
X852060Y581909D01*
Y578871D01*
X852847Y575936D01*
X854366Y573304D01*
X856514Y571156D01*
X859146Y569636D01*
X859715Y569484D01*
Y561433D01*
X858885Y561268D01*
X857218Y560154D01*
X856104Y558487D01*
X855713Y556520D01*
Y551520D01*
X856104Y549553D01*
X857218Y547886D01*
X858885Y546772D01*
X860851Y546381D01*
X875851D01*
X877818Y546772D01*
X879485Y547886D01*
X880599Y549553D01*
X880990Y551520D01*
Y556520D01*
X880599Y558487D01*
X879485Y560154D01*
X877818Y561268D01*
X875851Y561659D01*
X867485D01*
Y569484D01*
X868054Y569636D01*
X870686Y571156D01*
X872834Y573304D01*
X874353Y575936D01*
X875140Y578871D01*
Y581909D01*
X874353Y584844D01*
X872834Y587476D01*
X870686Y589624D01*
X868054Y591143D01*
X865119Y591930D01*
D02*
G37*
G36*
X839719D02*
X836681D01*
X833746Y591143D01*
X831114Y589624D01*
X828966Y587476D01*
X827447Y584844D01*
X826660Y581909D01*
Y578871D01*
X827447Y575936D01*
X828966Y573304D01*
X831114Y571156D01*
X833746Y569636D01*
X834315Y569484D01*
Y561659D01*
X832598D01*
X830631Y561268D01*
X828964Y560154D01*
X827850Y558487D01*
X827459Y556520D01*
Y551520D01*
X827850Y549553D01*
X828964Y547886D01*
X830631Y546772D01*
X832598Y546381D01*
X847598D01*
X849564Y546772D01*
X851231Y547886D01*
X852345Y549553D01*
X852736Y551520D01*
Y556520D01*
X852345Y558487D01*
X851231Y560154D01*
X849564Y561268D01*
X847598Y561659D01*
X842085D01*
Y569484D01*
X842654Y569636D01*
X845286Y571156D01*
X847434Y573304D01*
X848953Y575936D01*
X849740Y578871D01*
Y581909D01*
X848953Y584844D01*
X847434Y587476D01*
X845286Y589624D01*
X842654Y591143D01*
X839719Y591930D01*
D02*
G37*
G36*
X814319D02*
X811281D01*
X808346Y591143D01*
X805714Y589624D01*
X803566Y587476D01*
X802047Y584844D01*
X801260Y581909D01*
Y578871D01*
X802047Y575936D01*
X803566Y573304D01*
X805714Y571156D01*
X808346Y569636D01*
X808915Y569484D01*
Y561659D01*
X804344D01*
X802377Y561268D01*
X800710Y560154D01*
X799596Y558487D01*
X799205Y556520D01*
Y551520D01*
X799596Y549553D01*
X800710Y547886D01*
X802377Y546772D01*
X804344Y546381D01*
X819344D01*
X821310Y546772D01*
X822977Y547886D01*
X824091Y549553D01*
X824482Y551520D01*
Y556520D01*
X824091Y558487D01*
X822977Y560154D01*
X821310Y561268D01*
X819344Y561659D01*
X816685D01*
Y569484D01*
X817254Y569636D01*
X819886Y571156D01*
X822034Y573304D01*
X823553Y575936D01*
X824340Y578871D01*
Y581909D01*
X823553Y584844D01*
X822034Y587476D01*
X819886Y589624D01*
X817254Y591143D01*
X814319Y591930D01*
D02*
G37*
G36*
X1043209Y552860D02*
X1040091D01*
X1037080Y552053D01*
X1034380Y550494D01*
X1032176Y548290D01*
X1030617Y545590D01*
X1029810Y542579D01*
Y539461D01*
X1030617Y536450D01*
X1032176Y533750D01*
X1034380Y531546D01*
X1037080Y529987D01*
X1040091Y529180D01*
X1043209D01*
X1046220Y529987D01*
X1048920Y531546D01*
X1051124Y533750D01*
X1052683Y536450D01*
X1053490Y539461D01*
Y542579D01*
X1052683Y545590D01*
X1051124Y548290D01*
X1048920Y550494D01*
X1046220Y552053D01*
X1043209Y552860D01*
D02*
G37*
G36*
X991909D02*
X988791D01*
X985780Y552053D01*
X983080Y550494D01*
X980876Y548290D01*
X979317Y545590D01*
X978510Y542579D01*
Y539461D01*
X979317Y536450D01*
X980876Y533750D01*
X983080Y531546D01*
X985780Y529987D01*
X988791Y529180D01*
X991909D01*
X994920Y529987D01*
X997620Y531546D01*
X999824Y533750D01*
X1001383Y536450D01*
X1002190Y539461D01*
Y542579D01*
X1001383Y545590D01*
X999824Y548290D01*
X997620Y550494D01*
X994920Y552053D01*
X991909Y552860D01*
D02*
G37*
G36*
X1043459Y517300D02*
X1040341D01*
X1037330Y516493D01*
X1034630Y514934D01*
X1032426Y512730D01*
X1030867Y510030D01*
X1030060Y507019D01*
Y503901D01*
X1030867Y500890D01*
X1032426Y498190D01*
X1034630Y495986D01*
X1037330Y494427D01*
X1040341Y493620D01*
X1043459D01*
X1046470Y494427D01*
X1049170Y495986D01*
X1051374Y498190D01*
X1052933Y500890D01*
X1053740Y503901D01*
Y507019D01*
X1052933Y510030D01*
X1051374Y512730D01*
X1049170Y514934D01*
X1046470Y516493D01*
X1043459Y517300D01*
D02*
G37*
G36*
X992159D02*
X989041D01*
X986030Y516493D01*
X983330Y514934D01*
X981126Y512730D01*
X979567Y510030D01*
X978760Y507019D01*
Y503901D01*
X979567Y500890D01*
X981126Y498190D01*
X983330Y495986D01*
X986030Y494427D01*
X989041Y493620D01*
X992159D01*
X995170Y494427D01*
X997870Y495986D01*
X1000074Y498190D01*
X1001633Y500890D01*
X1002440Y503901D01*
Y507019D01*
X1001633Y510030D01*
X1000074Y512730D01*
X997870Y514934D01*
X995170Y516493D01*
X992159Y517300D01*
D02*
G37*
G36*
X687359Y511450D02*
X684241D01*
X681230Y510643D01*
X678530Y509084D01*
X676326Y506880D01*
X674767Y504180D01*
X673960Y501169D01*
Y498051D01*
X674767Y495040D01*
X676326Y492340D01*
X678530Y490136D01*
X681230Y488577D01*
X684241Y487770D01*
X687359D01*
X690370Y488577D01*
X693070Y490136D01*
X695274Y492340D01*
X696833Y495040D01*
X697640Y498051D01*
Y501169D01*
X696833Y504180D01*
X695274Y506880D01*
X693070Y509084D01*
X690370Y510643D01*
X687359Y511450D01*
D02*
G37*
G36*
X1153160Y492810D02*
X1120140D01*
X1119149Y492613D01*
X1118309Y492051D01*
X1117747Y491211D01*
X1117550Y490220D01*
Y463550D01*
X1117747Y462559D01*
X1118309Y461719D01*
X1119149Y461157D01*
X1120140Y460960D01*
X1153160D01*
X1154151Y461157D01*
X1154991Y461719D01*
X1155553Y462559D01*
X1155750Y463550D01*
Y490220D01*
X1155553Y491211D01*
X1154991Y492051D01*
X1154151Y492613D01*
X1153160Y492810D01*
D02*
G37*
G36*
X687359Y460150D02*
X684241D01*
X681230Y459343D01*
X678530Y457784D01*
X676326Y455580D01*
X674767Y452880D01*
X673960Y449869D01*
Y446751D01*
X674767Y443740D01*
X676326Y441040D01*
X678530Y438836D01*
X681230Y437277D01*
X684241Y436470D01*
X687359D01*
X690370Y437277D01*
X693070Y438836D01*
X695274Y441040D01*
X696833Y443740D01*
X697640Y446751D01*
Y449869D01*
X696833Y452880D01*
X695274Y455580D01*
X693070Y457784D01*
X690370Y459343D01*
X687359Y460150D01*
D02*
G37*
%LPD*%
G36*
X770508Y589970D02*
X771580Y588898D01*
X771992Y587902D01*
X772160Y586743D01*
Y586740D01*
X772160Y586740D01*
X772160Y586739D01*
Y566167D01*
X771967Y565701D01*
X771609Y565343D01*
X771143Y565150D01*
X770890D01*
X770147Y565077D01*
X768773Y564508D01*
X767722Y563457D01*
X767329Y562507D01*
X767153Y562083D01*
X767080Y561340D01*
X767080D01*
X767080Y561340D01*
X767080Y520700D01*
X767080Y519689D01*
X766307Y517822D01*
X764877Y516393D01*
X763010Y515620D01*
X762000Y515620D01*
X736520D01*
Y516160D01*
X724126D01*
X723562Y516393D01*
X722133Y517822D01*
X721360Y519689D01*
X721360Y520700D01*
Y564133D01*
X721553Y564599D01*
X721911Y564957D01*
X722377Y565150D01*
X722630D01*
X722630Y565150D01*
X744220Y565150D01*
X745459Y565272D01*
X747748Y566220D01*
X749500Y567972D01*
X750448Y570261D01*
X750570Y571500D01*
X750570Y571500D01*
Y587498D01*
X751150Y588898D01*
X752222Y589970D01*
X753622Y590550D01*
X754380Y590550D01*
X754380Y590550D01*
X769108Y590550D01*
X770508Y589970D01*
D02*
G37*
G36*
X904998Y534670D02*
X906398Y534090D01*
X907470Y533018D01*
X907869Y532055D01*
X908050Y530860D01*
X908050Y530860D01*
X908050Y504190D01*
X908050Y503685D01*
X907663Y502751D01*
X906949Y502037D01*
X906668Y501920D01*
X905510Y501650D01*
X887225D01*
X886291Y502037D01*
X885577Y502751D01*
X885190Y503685D01*
Y504190D01*
X885190Y504190D01*
X885190Y531618D01*
X885770Y533018D01*
X886842Y534090D01*
X888242Y534670D01*
X889000D01*
X889000Y534670D01*
X904998Y534670D01*
D02*
G37*
G36*
X877058D02*
X878458Y534090D01*
X879530Y533018D01*
X879929Y532055D01*
X880110Y530860D01*
X880110Y530860D01*
X880110Y504190D01*
X880110Y503685D01*
X879723Y502751D01*
X879009Y502037D01*
X878728Y501920D01*
X877570Y501650D01*
X859285D01*
X858351Y502037D01*
X857637Y502751D01*
X857250Y503685D01*
Y504190D01*
X857250Y504190D01*
X857250Y531618D01*
X857830Y533018D01*
X858902Y534090D01*
X860302Y534670D01*
X861060D01*
X861060Y534670D01*
X877058Y534670D01*
D02*
G37*
G36*
X849118D02*
X850518Y534090D01*
X851590Y533018D01*
X851989Y532055D01*
X852170Y530860D01*
X852170Y530860D01*
X852170Y504190D01*
X852170Y503685D01*
X851783Y502751D01*
X851069Y502037D01*
X850788Y501920D01*
X849630Y501650D01*
X831345D01*
X830411Y502037D01*
X829697Y502751D01*
X829310Y503685D01*
Y504190D01*
X829310Y504190D01*
X829310Y531618D01*
X829890Y533018D01*
X830962Y534090D01*
X832362Y534670D01*
X833120D01*
X833120Y534670D01*
X849118Y534670D01*
D02*
G37*
G36*
X819908D02*
X821308Y534090D01*
X822380Y533018D01*
X822779Y532055D01*
X822960Y530860D01*
X822960Y530860D01*
X822960Y504190D01*
X822960Y503685D01*
X822573Y502751D01*
X821859Y502037D01*
X821578Y501920D01*
X820420Y501650D01*
X802135D01*
X801201Y502037D01*
X800487Y502751D01*
X800100Y503685D01*
Y504190D01*
X800100Y504190D01*
X800100Y531618D01*
X800680Y533018D01*
X801752Y534090D01*
X803152Y534670D01*
X803910D01*
X803910Y534670D01*
X819908Y534670D01*
D02*
G37*
G36*
X791968D02*
X793368Y534090D01*
X794440Y533018D01*
X794839Y532055D01*
X795020Y530860D01*
X795020Y530860D01*
X795020Y504190D01*
X795020Y503685D01*
X794633Y502751D01*
X793919Y502037D01*
X793638Y501920D01*
X792480Y501650D01*
X774195D01*
X773261Y502037D01*
X772547Y502751D01*
X772160Y503685D01*
Y504190D01*
X772160Y504190D01*
X772160Y531618D01*
X772740Y533018D01*
X773812Y534090D01*
X775212Y534670D01*
X775970D01*
X775970Y534670D01*
X791968Y534670D01*
D02*
G37*
G36*
X1195070Y557530D02*
X1195575Y557530D01*
X1196509Y557143D01*
X1197223Y556429D01*
X1197346Y556133D01*
X1197610Y554990D01*
Y554990D01*
X1197610Y554990D01*
X1197610Y554990D01*
Y544325D01*
X1197223Y543391D01*
X1196509Y542677D01*
X1195575Y542290D01*
X1116330D01*
X1115825Y542290D01*
X1114891Y542677D01*
X1114177Y543391D01*
X1113790Y544325D01*
X1113790Y544830D01*
X1113790Y544830D01*
X1113790Y554990D01*
X1113790Y555495D01*
X1114177Y556429D01*
X1114891Y557143D01*
X1115825Y557530D01*
X1116330Y557530D01*
X1116330Y557530D01*
X1195070Y557530D01*
D02*
G37*
G36*
X1153160Y463550D02*
X1120140D01*
Y490220D01*
X1153160D01*
Y463550D01*
D02*
G37*
D14*
X711200Y773380D02*
X742950Y805130D01*
X711200Y732790D02*
Y773380D01*
X721569Y563880D02*
X741131Y544317D01*
X492760Y563880D02*
X721569D01*
X1206500Y661670D02*
X1238250Y629920D01*
X902970Y661670D02*
X1206500D01*
X925830Y670560D02*
X1212850D01*
X1250288Y633122D01*
Y630582D02*
X1250950Y629920D01*
X1250288Y630582D02*
Y633122D01*
X1016000Y797560D02*
X1047750Y829310D01*
X1016000Y732790D02*
Y797560D01*
X1047750Y799564D02*
Y803910D01*
X1041400Y732790D02*
Y793214D01*
X1047750Y799564D01*
X900910Y830530D02*
X939800Y791640D01*
Y732790D02*
Y791640D01*
X900910Y805130D02*
X914400Y791640D01*
Y732790D02*
Y791640D01*
X889000Y732790D02*
Y763220D01*
X821690Y830530D02*
X889000Y763220D01*
X812800Y795480D02*
X821690Y804370D01*
Y805130D01*
X812800Y732790D02*
Y795480D01*
X742950Y830530D02*
X787400Y786080D01*
Y732790D02*
Y786080D01*
X685800Y732790D02*
Y828040D01*
X1145240Y476250D02*
X1145240Y476250D01*
X1127760Y476250D02*
X1145240D01*
X841158Y723482D02*
X902970Y661670D01*
X838200Y732790D02*
X841158Y729832D01*
Y723482D02*
Y729832D01*
X863600Y732790D02*
X925830Y670560D01*
X889688Y557656D02*
Y579702D01*
Y557656D02*
X893324Y554020D01*
X896605D01*
X889000Y580390D02*
X889688Y579702D01*
X863600Y557656D02*
X867236Y554020D01*
X868351D01*
X863600Y557656D02*
Y580390D01*
X838200Y555918D02*
Y580390D01*
Y555918D02*
X840098Y554020D01*
X812800Y554976D02*
Y580390D01*
X811844Y554020D02*
X812800Y554976D01*
X783764Y554020D02*
X787400Y557656D01*
X783590Y554020D02*
X783764D01*
X787400Y557656D02*
Y580390D01*
D16*
X896620Y528140D02*
D03*
X896605Y554020D02*
D03*
X868366Y528140D02*
D03*
X868351Y554020D02*
D03*
X840112Y528140D02*
D03*
X840098Y554020D02*
D03*
X811859Y528140D02*
D03*
X811844Y554020D02*
D03*
X783590D02*
D03*
X783605Y528140D02*
D03*
D17*
X897890Y487680D02*
D03*
Y507680D02*
D03*
X869315D02*
D03*
Y487680D02*
D03*
X840740Y507680D02*
D03*
Y487680D02*
D03*
X812165Y507680D02*
D03*
Y487680D02*
D03*
X783590Y507680D02*
D03*
Y487680D02*
D03*
D18*
X757000Y522850D02*
D03*
Y505850D02*
D03*
X993140Y859790D02*
D03*
Y876790D02*
D03*
D19*
X728980Y522120D02*
D03*
Y509120D02*
D03*
D20*
X1128200Y574910D02*
D03*
Y549910D02*
D03*
Y524910D02*
D03*
X1183200D02*
D03*
Y549910D02*
D03*
Y574910D02*
D03*
D21*
X1145240Y476250D02*
D03*
X1171120Y476265D02*
D03*
D31*
X1041400Y732790D02*
D03*
D32*
X1016000D02*
D03*
X990600D02*
D03*
X965200D02*
D03*
X939800D02*
D03*
X914400D02*
D03*
X889000D02*
D03*
X863600D02*
D03*
X838200D02*
D03*
X812800D02*
D03*
X787400D02*
D03*
X762000D02*
D03*
X736600D02*
D03*
X711200D02*
D03*
X685800D02*
D03*
Y580390D02*
D03*
X711200D02*
D03*
X736600D02*
D03*
X762000D02*
D03*
X787400D02*
D03*
X812800D02*
D03*
X838200D02*
D03*
X863600D02*
D03*
X889000D02*
D03*
X914400D02*
D03*
X939800D02*
D03*
X965200D02*
D03*
X990600D02*
D03*
X1016000D02*
D03*
X1041400D02*
D03*
D33*
X1047750Y803910D02*
D03*
Y880110D02*
D03*
Y854710D02*
D03*
Y829310D02*
D03*
X742950Y881330D02*
D03*
Y855930D02*
D03*
Y830530D02*
D03*
Y805130D02*
D03*
X821690Y881330D02*
D03*
Y855930D02*
D03*
Y830530D02*
D03*
Y805130D02*
D03*
X900910Y881330D02*
D03*
Y855930D02*
D03*
Y830530D02*
D03*
Y805130D02*
D03*
X685800Y828040D02*
D03*
Y853690D02*
D03*
Y879340D02*
D03*
X990350Y541020D02*
D03*
X1016000D02*
D03*
X1041650D02*
D03*
X990600Y505460D02*
D03*
X1016250D02*
D03*
X1041900D02*
D03*
X685800Y499610D02*
D03*
Y473960D02*
D03*
Y448310D02*
D03*
D34*
X492760Y563880D02*
D03*
X1238250Y629920D02*
D03*
X1250950D02*
D03*
D35*
X1022350Y605790D02*
D03*
X1000125D02*
D03*
X977900D02*
D03*
X1127760Y476250D02*
D03*
X1155700Y549910D02*
D03*
M02*
