G04*
G04 #@! TF.GenerationSoftware,Altium Limited,Altium Designer,22.5.1 (42)*
G04*
G04 Layer_Color=32896*
%FSLAX44Y44*%
%MOMM*%
G71*
G04*
G04 #@! TF.SameCoordinates,8C462A5C-675D-4BC4-B2B0-4FF287324B2F*
G04*
G04*
G04 #@! TF.FilePolarity,Positive*
G04*
G01*
G75*
%ADD10C,0.2000*%
%ADD14C,0.2540*%
%ADD62C,0.2500*%
%ADD63C,0.6000*%
G36*
X1283170Y733423D02*
X1283541Y733349D01*
X1283883Y733245D01*
X1284165Y733126D01*
X1284388Y732992D01*
X1284477Y732933D01*
X1284552Y732888D01*
X1284626Y732844D01*
X1284670Y732814D01*
X1284685Y732799D01*
X1284700Y732784D01*
X1284968Y732517D01*
X1285176Y732220D01*
X1285354Y731908D01*
X1285473Y731610D01*
X1285577Y731343D01*
X1285607Y731224D01*
X1285636Y731120D01*
X1285651Y731046D01*
X1285666Y730986D01*
X1285681Y730942D01*
Y730927D01*
X1284477Y730719D01*
X1284418Y731031D01*
X1284329Y731298D01*
X1284240Y731521D01*
X1284135Y731700D01*
X1284046Y731848D01*
X1283972Y731952D01*
X1283913Y732012D01*
X1283898Y732027D01*
X1283705Y732175D01*
X1283511Y732279D01*
X1283318Y732368D01*
X1283125Y732413D01*
X1282977Y732442D01*
X1282843Y732472D01*
X1282724D01*
X1282471Y732457D01*
X1282248Y732398D01*
X1282055Y732338D01*
X1281892Y732249D01*
X1281758Y732175D01*
X1281654Y732101D01*
X1281595Y732041D01*
X1281580Y732027D01*
X1281431Y731863D01*
X1281327Y731670D01*
X1281238Y731492D01*
X1281193Y731328D01*
X1281164Y731165D01*
X1281134Y731046D01*
Y730972D01*
Y730957D01*
Y730942D01*
X1281164Y730645D01*
X1281238Y730392D01*
X1281327Y730184D01*
X1281446Y730021D01*
X1281565Y729887D01*
X1281654Y729783D01*
X1281728Y729723D01*
X1281758Y729708D01*
X1281996Y729575D01*
X1282233Y729486D01*
X1282456Y729411D01*
X1282664Y729367D01*
X1282858Y729337D01*
X1282991Y729322D01*
X1283185D01*
X1283244Y729337D01*
X1283318D01*
X1283452Y728282D01*
X1283274Y728327D01*
X1283110Y728356D01*
X1282962Y728371D01*
X1282843Y728386D01*
X1282739Y728401D01*
X1282605D01*
X1282308Y728371D01*
X1282055Y728312D01*
X1281817Y728237D01*
X1281624Y728133D01*
X1281461Y728029D01*
X1281342Y727955D01*
X1281283Y727896D01*
X1281253Y727866D01*
X1281075Y727658D01*
X1280941Y727435D01*
X1280837Y727197D01*
X1280777Y726989D01*
X1280733Y726796D01*
X1280718Y726647D01*
X1280703Y726588D01*
Y726544D01*
Y726529D01*
Y726514D01*
X1280733Y726202D01*
X1280792Y725919D01*
X1280881Y725667D01*
X1280985Y725459D01*
X1281104Y725281D01*
X1281193Y725162D01*
X1281253Y725087D01*
X1281283Y725058D01*
X1281505Y724864D01*
X1281743Y724716D01*
X1281981Y724627D01*
X1282219Y724552D01*
X1282412Y724508D01*
X1282560Y724493D01*
X1282620Y724478D01*
X1282709D01*
X1282962Y724493D01*
X1283199Y724552D01*
X1283407Y724627D01*
X1283571Y724701D01*
X1283719Y724790D01*
X1283823Y724850D01*
X1283883Y724909D01*
X1283913Y724924D01*
X1284076Y725117D01*
X1284225Y725340D01*
X1284344Y725592D01*
X1284433Y725830D01*
X1284507Y726053D01*
X1284552Y726232D01*
X1284581Y726291D01*
Y726350D01*
X1284596Y726380D01*
Y726395D01*
X1285800Y726232D01*
X1285770Y726009D01*
X1285725Y725801D01*
X1285592Y725414D01*
X1285443Y725072D01*
X1285265Y724775D01*
X1285190Y724656D01*
X1285101Y724552D01*
X1285027Y724463D01*
X1284968Y724374D01*
X1284908Y724315D01*
X1284864Y724270D01*
X1284849Y724255D01*
X1284834Y724240D01*
X1284670Y724107D01*
X1284492Y723988D01*
X1284329Y723884D01*
X1284150Y723809D01*
X1283794Y723661D01*
X1283452Y723572D01*
X1283303Y723542D01*
X1283155Y723527D01*
X1283036Y723512D01*
X1282917Y723497D01*
X1282828Y723483D01*
X1282709D01*
X1282456Y723497D01*
X1282204Y723527D01*
X1281966Y723557D01*
X1281743Y723616D01*
X1281535Y723691D01*
X1281342Y723765D01*
X1281164Y723839D01*
X1281000Y723928D01*
X1280867Y724003D01*
X1280733Y724077D01*
X1280614Y724151D01*
X1280525Y724225D01*
X1280450Y724285D01*
X1280406Y724315D01*
X1280376Y724344D01*
X1280361Y724359D01*
X1280198Y724538D01*
X1280049Y724716D01*
X1279930Y724894D01*
X1279826Y725072D01*
X1279722Y725251D01*
X1279648Y725444D01*
X1279544Y725786D01*
X1279500Y725934D01*
X1279470Y726083D01*
X1279455Y726202D01*
X1279440Y726321D01*
X1279425Y726410D01*
Y726469D01*
Y726514D01*
Y726529D01*
X1279440Y726870D01*
X1279500Y727182D01*
X1279574Y727450D01*
X1279663Y727673D01*
X1279767Y727851D01*
X1279841Y727985D01*
X1279901Y728074D01*
X1279915Y728104D01*
X1280109Y728327D01*
X1280332Y728505D01*
X1280555Y728653D01*
X1280762Y728757D01*
X1280956Y728847D01*
X1281104Y728891D01*
X1281164Y728921D01*
X1281208D01*
X1281238Y728936D01*
X1281253D01*
X1281015Y729055D01*
X1280807Y729203D01*
X1280644Y729337D01*
X1280495Y729471D01*
X1280391Y729590D01*
X1280302Y729679D01*
X1280257Y729738D01*
X1280242Y729768D01*
X1280124Y729961D01*
X1280049Y730169D01*
X1279990Y730362D01*
X1279945Y730541D01*
X1279915Y730689D01*
X1279901Y730808D01*
Y730882D01*
Y730912D01*
X1279915Y731165D01*
X1279960Y731387D01*
X1280020Y731596D01*
X1280079Y731789D01*
X1280138Y731937D01*
X1280198Y732056D01*
X1280242Y732131D01*
X1280257Y732160D01*
X1280406Y732368D01*
X1280569Y732561D01*
X1280748Y732725D01*
X1280911Y732859D01*
X1281060Y732963D01*
X1281178Y733037D01*
X1281268Y733082D01*
X1281283Y733096D01*
X1281297D01*
X1281550Y733215D01*
X1281803Y733304D01*
X1282055Y733364D01*
X1282278Y733408D01*
X1282471Y733438D01*
X1282620Y733453D01*
X1282962D01*
X1283170Y733423D01*
D02*
G37*
G36*
X1295146Y727762D02*
Y727480D01*
X1295131Y727212D01*
X1295116Y726960D01*
X1295087Y726722D01*
X1295057Y726514D01*
X1295027Y726306D01*
X1294997Y726127D01*
X1294953Y725964D01*
X1294923Y725815D01*
X1294893Y725682D01*
X1294864Y725563D01*
X1294834Y725474D01*
X1294804Y725399D01*
X1294789Y725355D01*
X1294774Y725325D01*
Y725310D01*
X1294611Y724998D01*
X1294418Y724716D01*
X1294225Y724493D01*
X1294017Y724300D01*
X1293838Y724136D01*
X1293675Y724032D01*
X1293616Y723988D01*
X1293586Y723973D01*
X1293556Y723943D01*
X1293541D01*
X1293199Y723795D01*
X1292813Y723676D01*
X1292442Y723601D01*
X1292085Y723542D01*
X1291922Y723527D01*
X1291773Y723512D01*
X1291639Y723497D01*
X1291520D01*
X1291431Y723483D01*
X1291297D01*
X1290792Y723512D01*
X1290347Y723572D01*
X1290139Y723601D01*
X1289960Y723646D01*
X1289782Y723705D01*
X1289633Y723750D01*
X1289500Y723795D01*
X1289366Y723854D01*
X1289262Y723899D01*
X1289187Y723928D01*
X1289113Y723973D01*
X1289069Y723988D01*
X1289039Y724017D01*
X1289024D01*
X1288727Y724240D01*
X1288459Y724463D01*
X1288251Y724701D01*
X1288088Y724924D01*
X1287969Y725132D01*
X1287880Y725281D01*
X1287850Y725340D01*
X1287835Y725385D01*
X1287820Y725414D01*
Y725429D01*
X1287702Y725771D01*
X1287627Y726157D01*
X1287568Y726544D01*
X1287523Y726915D01*
X1287509Y727093D01*
X1287494Y727257D01*
Y727391D01*
X1287479Y727524D01*
Y727628D01*
Y727702D01*
Y727747D01*
Y727762D01*
Y733408D01*
X1288772D01*
Y727762D01*
Y727435D01*
X1288801Y727123D01*
X1288831Y726855D01*
X1288861Y726603D01*
X1288905Y726365D01*
X1288965Y726172D01*
X1289024Y725994D01*
X1289069Y725830D01*
X1289128Y725696D01*
X1289187Y725578D01*
X1289232Y725489D01*
X1289292Y725414D01*
X1289321Y725355D01*
X1289351Y725310D01*
X1289381Y725295D01*
Y725281D01*
X1289500Y725162D01*
X1289648Y725072D01*
X1289960Y724909D01*
X1290287Y724805D01*
X1290629Y724716D01*
X1290926Y724671D01*
X1291060Y724656D01*
X1291179D01*
X1291283Y724642D01*
X1291416D01*
X1291714Y724656D01*
X1291981Y724686D01*
X1292219Y724746D01*
X1292427Y724805D01*
X1292590Y724850D01*
X1292709Y724909D01*
X1292783Y724939D01*
X1292813Y724954D01*
X1293021Y725087D01*
X1293185Y725236D01*
X1293333Y725399D01*
X1293437Y725548D01*
X1293526Y725682D01*
X1293586Y725786D01*
X1293616Y725860D01*
X1293630Y725890D01*
X1293675Y726009D01*
X1293705Y726142D01*
X1293764Y726440D01*
X1293794Y726751D01*
X1293824Y727049D01*
X1293838Y727331D01*
X1293853Y727450D01*
Y727554D01*
Y727643D01*
Y727702D01*
Y727747D01*
Y727762D01*
Y733408D01*
X1295146D01*
Y727762D01*
D02*
G37*
G36*
X587137Y731914D02*
X587374Y731899D01*
X587820Y731810D01*
X588013Y731766D01*
X588207Y731706D01*
X588370Y731632D01*
X588519Y731572D01*
X588652Y731498D01*
X588771Y731439D01*
X588875Y731364D01*
X588964Y731320D01*
X589024Y731275D01*
X589068Y731231D01*
X589098Y731216D01*
X589113Y731201D01*
X589262Y731052D01*
X589380Y730904D01*
X589603Y730562D01*
X589767Y730220D01*
X589886Y729878D01*
X589975Y729581D01*
X589990Y729447D01*
X590019Y729329D01*
X590034Y729240D01*
X590049Y729165D01*
Y729121D01*
Y729106D01*
X588816Y728972D01*
X588786Y729299D01*
X588727Y729581D01*
X588652Y729819D01*
X588548Y730027D01*
X588459Y730190D01*
X588370Y730309D01*
X588311Y730369D01*
X588296Y730398D01*
X588088Y730577D01*
X587865Y730711D01*
X587627Y730800D01*
X587404Y730874D01*
X587211Y730904D01*
X587062Y730919D01*
X587003Y730933D01*
X586914D01*
X586617Y730919D01*
X586349Y730859D01*
X586126Y730785D01*
X585933Y730696D01*
X585785Y730592D01*
X585666Y730517D01*
X585606Y730458D01*
X585577Y730443D01*
X585398Y730250D01*
X585279Y730042D01*
X585190Y729849D01*
X585116Y729656D01*
X585086Y729492D01*
X585071Y729358D01*
X585056Y729269D01*
Y729254D01*
Y729240D01*
X585086Y728987D01*
X585146Y728719D01*
X585235Y728482D01*
X585339Y728259D01*
X585443Y728066D01*
X585532Y727917D01*
X585562Y727858D01*
X585591Y727813D01*
X585621Y727798D01*
Y727783D01*
X585740Y727635D01*
X585874Y727471D01*
X586022Y727308D01*
X586201Y727144D01*
X586557Y726803D01*
X586914Y726461D01*
X587241Y726179D01*
X587389Y726045D01*
X587523Y725941D01*
X587627Y725837D01*
X587701Y725777D01*
X587761Y725733D01*
X587776Y725718D01*
X588132Y725406D01*
X588459Y725124D01*
X588727Y724871D01*
X588950Y724663D01*
X589128Y724485D01*
X589247Y724351D01*
X589321Y724262D01*
X589351Y724247D01*
Y724232D01*
X589544Y723994D01*
X589692Y723771D01*
X589841Y723549D01*
X589945Y723355D01*
X590034Y723177D01*
X590094Y723058D01*
X590123Y722969D01*
X590138Y722954D01*
Y722939D01*
X590183Y722791D01*
X590227Y722642D01*
X590242Y722508D01*
X590257Y722390D01*
X590272Y722285D01*
Y722196D01*
Y722137D01*
Y722122D01*
X583808D01*
Y723266D01*
X588608D01*
X588444Y723504D01*
X588281Y723697D01*
X588207Y723786D01*
X588147Y723846D01*
X588117Y723890D01*
X588103Y723905D01*
X588028Y723979D01*
X587954Y724054D01*
X587761Y724232D01*
X587523Y724440D01*
X587300Y724648D01*
X587077Y724841D01*
X586899Y724990D01*
X586825Y725049D01*
X586765Y725094D01*
X586736Y725124D01*
X586721Y725138D01*
X586483Y725346D01*
X586275Y725525D01*
X586067Y725703D01*
X585889Y725866D01*
X585725Y726030D01*
X585577Y726164D01*
X585428Y726297D01*
X585309Y726416D01*
X585205Y726520D01*
X585116Y726609D01*
X584982Y726743D01*
X584908Y726832D01*
X584878Y726862D01*
X584685Y727100D01*
X584507Y727308D01*
X584373Y727516D01*
X584269Y727694D01*
X584180Y727843D01*
X584120Y727947D01*
X584091Y728021D01*
X584076Y728051D01*
X583987Y728259D01*
X583927Y728467D01*
X583883Y728660D01*
X583853Y728838D01*
X583838Y728987D01*
X583823Y729106D01*
Y729180D01*
Y729210D01*
X583838Y729418D01*
X583853Y729626D01*
X583957Y729997D01*
X584091Y730324D01*
X584239Y730607D01*
X584388Y730829D01*
X584462Y730919D01*
X584522Y731008D01*
X584581Y731067D01*
X584626Y731112D01*
X584640Y731127D01*
X584655Y731141D01*
X584819Y731275D01*
X584982Y731409D01*
X585160Y731513D01*
X585354Y731602D01*
X585725Y731736D01*
X586082Y731825D01*
X586245Y731870D01*
X586394Y731884D01*
X586527Y731899D01*
X586646Y731914D01*
X586750Y731929D01*
X586884D01*
X587137Y731914D01*
D02*
G37*
G36*
X599440Y726238D02*
Y725956D01*
X599425Y725688D01*
X599410Y725436D01*
X599381Y725198D01*
X599351Y724990D01*
X599321Y724782D01*
X599291Y724604D01*
X599247Y724440D01*
X599217Y724291D01*
X599187Y724158D01*
X599158Y724039D01*
X599128Y723950D01*
X599098Y723875D01*
X599083Y723831D01*
X599068Y723801D01*
Y723786D01*
X598905Y723474D01*
X598712Y723192D01*
X598519Y722969D01*
X598311Y722776D01*
X598132Y722612D01*
X597969Y722508D01*
X597910Y722464D01*
X597880Y722449D01*
X597850Y722419D01*
X597835D01*
X597494Y722271D01*
X597107Y722152D01*
X596736Y722077D01*
X596379Y722018D01*
X596216Y722003D01*
X596067Y721988D01*
X595933Y721973D01*
X595814D01*
X595725Y721959D01*
X595592D01*
X595086Y721988D01*
X594641Y722048D01*
X594432Y722077D01*
X594254Y722122D01*
X594076Y722181D01*
X593927Y722226D01*
X593794Y722271D01*
X593660Y722330D01*
X593556Y722375D01*
X593481Y722404D01*
X593407Y722449D01*
X593363Y722464D01*
X593333Y722494D01*
X593318D01*
X593021Y722716D01*
X592753Y722939D01*
X592545Y723177D01*
X592382Y723400D01*
X592263Y723608D01*
X592174Y723756D01*
X592144Y723816D01*
X592129Y723860D01*
X592114Y723890D01*
Y723905D01*
X591996Y724247D01*
X591921Y724633D01*
X591862Y725020D01*
X591817Y725391D01*
X591802Y725569D01*
X591788Y725733D01*
Y725866D01*
X591773Y726000D01*
Y726104D01*
Y726179D01*
Y726223D01*
Y726238D01*
Y731884D01*
X593065D01*
Y726238D01*
Y725911D01*
X593095Y725599D01*
X593125Y725331D01*
X593155Y725079D01*
X593199Y724841D01*
X593259Y724648D01*
X593318Y724470D01*
X593363Y724306D01*
X593422Y724173D01*
X593481Y724054D01*
X593526Y723964D01*
X593586Y723890D01*
X593615Y723831D01*
X593645Y723786D01*
X593675Y723771D01*
Y723756D01*
X593794Y723638D01*
X593942Y723549D01*
X594254Y723385D01*
X594581Y723281D01*
X594923Y723192D01*
X595220Y723147D01*
X595354Y723132D01*
X595473D01*
X595577Y723118D01*
X595710D01*
X596008Y723132D01*
X596275Y723162D01*
X596513Y723222D01*
X596721Y723281D01*
X596884Y723326D01*
X597003Y723385D01*
X597077Y723415D01*
X597107Y723430D01*
X597315Y723563D01*
X597479Y723712D01*
X597627Y723875D01*
X597731Y724024D01*
X597820Y724158D01*
X597880Y724262D01*
X597910Y724336D01*
X597924Y724366D01*
X597969Y724485D01*
X597999Y724618D01*
X598058Y724915D01*
X598088Y725228D01*
X598117Y725525D01*
X598132Y725807D01*
X598147Y725926D01*
Y726030D01*
Y726119D01*
Y726179D01*
Y726223D01*
Y726238D01*
Y731884D01*
X599440D01*
Y726238D01*
D02*
G37*
G36*
X899441Y733723D02*
X899604Y733485D01*
X899782Y733263D01*
X899961Y733055D01*
X900124Y732891D01*
X900258Y732757D01*
X900347Y732668D01*
X900362Y732653D01*
X900377Y732638D01*
X900659Y732401D01*
X900956Y732178D01*
X901254Y731985D01*
X901521Y731821D01*
X901759Y731687D01*
X901863Y731643D01*
X901952Y731598D01*
X902011Y731554D01*
X902071Y731524D01*
X902100Y731509D01*
X902115D01*
Y730335D01*
X901907Y730424D01*
X901684Y730528D01*
X901476Y730618D01*
X901283Y730722D01*
X901120Y730811D01*
X900986Y730885D01*
X900897Y730945D01*
X900882Y730959D01*
X900867D01*
X900614Y731108D01*
X900392Y731272D01*
X900199Y731405D01*
X900035Y731539D01*
X899901Y731643D01*
X899797Y731717D01*
X899738Y731777D01*
X899723Y731792D01*
Y724154D01*
X898519D01*
Y733961D01*
X899307D01*
X899441Y733723D01*
D02*
G37*
G36*
X912368Y728270D02*
Y727988D01*
X912353Y727720D01*
X912338Y727468D01*
X912309Y727230D01*
X912279Y727022D01*
X912249Y726814D01*
X912219Y726636D01*
X912175Y726472D01*
X912145Y726323D01*
X912115Y726190D01*
X912086Y726071D01*
X912056Y725982D01*
X912026Y725907D01*
X912011Y725863D01*
X911997Y725833D01*
Y725818D01*
X911833Y725506D01*
X911640Y725224D01*
X911447Y725001D01*
X911239Y724808D01*
X911060Y724644D01*
X910897Y724540D01*
X910837Y724496D01*
X910808Y724481D01*
X910778Y724451D01*
X910763D01*
X910422Y724303D01*
X910035Y724184D01*
X909664Y724109D01*
X909307Y724050D01*
X909144Y724035D01*
X908995Y724020D01*
X908861Y724005D01*
X908742D01*
X908653Y723991D01*
X908520D01*
X908014Y724020D01*
X907569Y724080D01*
X907361Y724109D01*
X907182Y724154D01*
X907004Y724213D01*
X906855Y724258D01*
X906722Y724303D01*
X906588Y724362D01*
X906484Y724407D01*
X906410Y724436D01*
X906335Y724481D01*
X906291Y724496D01*
X906261Y724526D01*
X906246D01*
X905949Y724748D01*
X905682Y724971D01*
X905473Y725209D01*
X905310Y725432D01*
X905191Y725640D01*
X905102Y725788D01*
X905072Y725848D01*
X905057Y725892D01*
X905042Y725922D01*
Y725937D01*
X904924Y726279D01*
X904849Y726665D01*
X904790Y727051D01*
X904745Y727423D01*
X904731Y727601D01*
X904716Y727765D01*
Y727898D01*
X904701Y728032D01*
Y728136D01*
Y728211D01*
Y728255D01*
Y728270D01*
Y733916D01*
X905993D01*
Y728270D01*
Y727943D01*
X906023Y727631D01*
X906053Y727364D01*
X906083Y727111D01*
X906127Y726873D01*
X906187Y726680D01*
X906246Y726502D01*
X906291Y726338D01*
X906350Y726205D01*
X906410Y726086D01*
X906454Y725996D01*
X906514Y725922D01*
X906543Y725863D01*
X906573Y725818D01*
X906603Y725803D01*
Y725788D01*
X906722Y725670D01*
X906870Y725581D01*
X907182Y725417D01*
X907509Y725313D01*
X907851Y725224D01*
X908148Y725179D01*
X908282Y725164D01*
X908401D01*
X908505Y725150D01*
X908638D01*
X908936Y725164D01*
X909203Y725194D01*
X909441Y725254D01*
X909649Y725313D01*
X909812Y725358D01*
X909931Y725417D01*
X910005Y725447D01*
X910035Y725462D01*
X910243Y725595D01*
X910407Y725744D01*
X910555Y725907D01*
X910659Y726056D01*
X910748Y726190D01*
X910808Y726294D01*
X910837Y726368D01*
X910852Y726398D01*
X910897Y726517D01*
X910927Y726650D01*
X910986Y726947D01*
X911016Y727260D01*
X911046Y727557D01*
X911060Y727839D01*
X911075Y727958D01*
Y728062D01*
Y728151D01*
Y728211D01*
Y728255D01*
Y728270D01*
Y733916D01*
X912368D01*
Y728270D01*
D02*
G37*
G36*
X1214051Y665366D02*
X1214288Y665351D01*
X1214734Y665262D01*
X1214927Y665218D01*
X1215120Y665158D01*
X1215284Y665084D01*
X1215433Y665024D01*
X1215566Y664950D01*
X1215685Y664891D01*
X1215789Y664816D01*
X1215878Y664772D01*
X1215938Y664727D01*
X1215982Y664683D01*
X1216012Y664668D01*
X1216027Y664653D01*
X1216176Y664504D01*
X1216294Y664356D01*
X1216517Y664014D01*
X1216681Y663672D01*
X1216800Y663330D01*
X1216889Y663033D01*
X1216904Y662899D01*
X1216933Y662781D01*
X1216948Y662691D01*
X1216963Y662617D01*
Y662573D01*
Y662558D01*
X1215730Y662424D01*
X1215700Y662751D01*
X1215641Y663033D01*
X1215566Y663271D01*
X1215462Y663479D01*
X1215373Y663642D01*
X1215284Y663761D01*
X1215225Y663821D01*
X1215210Y663850D01*
X1215002Y664029D01*
X1214779Y664163D01*
X1214541Y664252D01*
X1214318Y664326D01*
X1214125Y664356D01*
X1213976Y664370D01*
X1213917Y664385D01*
X1213828D01*
X1213531Y664370D01*
X1213263Y664311D01*
X1213040Y664237D01*
X1212847Y664148D01*
X1212699Y664044D01*
X1212580Y663969D01*
X1212520Y663910D01*
X1212490Y663895D01*
X1212312Y663702D01*
X1212193Y663494D01*
X1212104Y663301D01*
X1212030Y663108D01*
X1212000Y662944D01*
X1211985Y662810D01*
X1211970Y662721D01*
Y662706D01*
Y662691D01*
X1212000Y662439D01*
X1212060Y662171D01*
X1212149Y661934D01*
X1212253Y661711D01*
X1212357Y661518D01*
X1212446Y661369D01*
X1212476Y661310D01*
X1212505Y661265D01*
X1212535Y661250D01*
Y661235D01*
X1212654Y661087D01*
X1212788Y660923D01*
X1212936Y660760D01*
X1213114Y660596D01*
X1213471Y660255D01*
X1213828Y659913D01*
X1214155Y659631D01*
X1214303Y659497D01*
X1214437Y659393D01*
X1214541Y659289D01*
X1214615Y659229D01*
X1214675Y659185D01*
X1214690Y659170D01*
X1215046Y658858D01*
X1215373Y658576D01*
X1215641Y658323D01*
X1215863Y658115D01*
X1216042Y657937D01*
X1216161Y657803D01*
X1216235Y657714D01*
X1216265Y657699D01*
Y657684D01*
X1216458Y657446D01*
X1216606Y657223D01*
X1216755Y657001D01*
X1216859Y656807D01*
X1216948Y656629D01*
X1217008Y656510D01*
X1217037Y656421D01*
X1217052Y656406D01*
Y656391D01*
X1217097Y656243D01*
X1217141Y656094D01*
X1217156Y655960D01*
X1217171Y655842D01*
X1217186Y655737D01*
Y655648D01*
Y655589D01*
Y655574D01*
X1210722D01*
Y656718D01*
X1215522D01*
X1215358Y656956D01*
X1215195Y657149D01*
X1215120Y657238D01*
X1215061Y657298D01*
X1215031Y657342D01*
X1215016Y657357D01*
X1214942Y657431D01*
X1214868Y657506D01*
X1214675Y657684D01*
X1214437Y657892D01*
X1214214Y658100D01*
X1213991Y658293D01*
X1213813Y658442D01*
X1213739Y658501D01*
X1213679Y658546D01*
X1213650Y658576D01*
X1213635Y658590D01*
X1213397Y658798D01*
X1213189Y658977D01*
X1212981Y659155D01*
X1212803Y659318D01*
X1212639Y659482D01*
X1212490Y659616D01*
X1212342Y659749D01*
X1212223Y659868D01*
X1212119Y659972D01*
X1212030Y660061D01*
X1211896Y660195D01*
X1211822Y660284D01*
X1211792Y660314D01*
X1211599Y660552D01*
X1211421Y660760D01*
X1211287Y660968D01*
X1211183Y661146D01*
X1211094Y661295D01*
X1211034Y661399D01*
X1211005Y661473D01*
X1210990Y661503D01*
X1210901Y661711D01*
X1210841Y661919D01*
X1210797Y662112D01*
X1210767Y662290D01*
X1210752Y662439D01*
X1210737Y662558D01*
Y662632D01*
Y662662D01*
X1210752Y662870D01*
X1210767Y663078D01*
X1210871Y663449D01*
X1211005Y663776D01*
X1211153Y664059D01*
X1211302Y664281D01*
X1211376Y664370D01*
X1211435Y664460D01*
X1211495Y664519D01*
X1211540Y664564D01*
X1211554Y664579D01*
X1211569Y664593D01*
X1211733Y664727D01*
X1211896Y664861D01*
X1212074Y664965D01*
X1212268Y665054D01*
X1212639Y665188D01*
X1212996Y665277D01*
X1213159Y665322D01*
X1213308Y665336D01*
X1213441Y665351D01*
X1213560Y665366D01*
X1213664Y665381D01*
X1213798D01*
X1214051Y665366D01*
D02*
G37*
G36*
X1221005Y665143D02*
X1221168Y664905D01*
X1221346Y664683D01*
X1221525Y664474D01*
X1221688Y664311D01*
X1221822Y664177D01*
X1221911Y664088D01*
X1221926Y664073D01*
X1221941Y664059D01*
X1222223Y663821D01*
X1222520Y663598D01*
X1222818Y663405D01*
X1223085Y663241D01*
X1223323Y663108D01*
X1223427Y663063D01*
X1223516Y663018D01*
X1223575Y662974D01*
X1223635Y662944D01*
X1223664Y662929D01*
X1223679D01*
Y661755D01*
X1223471Y661844D01*
X1223248Y661948D01*
X1223040Y662038D01*
X1222847Y662142D01*
X1222684Y662231D01*
X1222550Y662305D01*
X1222461Y662365D01*
X1222446Y662379D01*
X1222431D01*
X1222178Y662528D01*
X1221956Y662691D01*
X1221762Y662825D01*
X1221599Y662959D01*
X1221465Y663063D01*
X1221361Y663137D01*
X1221302Y663197D01*
X1221287Y663212D01*
Y655574D01*
X1220083D01*
Y665381D01*
X1220871D01*
X1221005Y665143D01*
D02*
G37*
G36*
X1233932Y655574D02*
X1232639D01*
Y659913D01*
X1230975D01*
X1230826Y659898D01*
X1230708D01*
X1230604Y659883D01*
X1230529Y659868D01*
X1230470D01*
X1230440Y659853D01*
X1230425D01*
X1230202Y659779D01*
X1230024Y659690D01*
X1229950Y659645D01*
X1229890Y659616D01*
X1229861Y659601D01*
X1229846Y659586D01*
X1229727Y659512D01*
X1229623Y659408D01*
X1229400Y659200D01*
X1229326Y659096D01*
X1229251Y659006D01*
X1229207Y658947D01*
X1229192Y658932D01*
X1229043Y658739D01*
X1228895Y658531D01*
X1228731Y658308D01*
X1228583Y658085D01*
X1228449Y657892D01*
X1228345Y657743D01*
X1228315Y657684D01*
X1228286Y657639D01*
X1228256Y657610D01*
Y657595D01*
X1226963Y655574D01*
X1225343D01*
X1227037Y658219D01*
X1227231Y658501D01*
X1227424Y658754D01*
X1227602Y658977D01*
X1227766Y659170D01*
X1227899Y659318D01*
X1228003Y659437D01*
X1228078Y659497D01*
X1228107Y659527D01*
X1228211Y659616D01*
X1228345Y659705D01*
X1228598Y659868D01*
X1228702Y659928D01*
X1228791Y659972D01*
X1228850Y660002D01*
X1228880Y660017D01*
X1228627Y660061D01*
X1228390Y660106D01*
X1228167Y660165D01*
X1227973Y660240D01*
X1227780Y660314D01*
X1227617Y660388D01*
X1227454Y660463D01*
X1227320Y660537D01*
X1227201Y660611D01*
X1227097Y660671D01*
X1227008Y660745D01*
X1226933Y660789D01*
X1226889Y660849D01*
X1226844Y660879D01*
X1226814Y660908D01*
X1226696Y661042D01*
X1226592Y661191D01*
X1226413Y661488D01*
X1226294Y661770D01*
X1226220Y662053D01*
X1226161Y662290D01*
X1226146Y662394D01*
Y662483D01*
X1226131Y662558D01*
Y662617D01*
Y662647D01*
Y662662D01*
X1226146Y662959D01*
X1226190Y663226D01*
X1226265Y663479D01*
X1226339Y663702D01*
X1226413Y663880D01*
X1226488Y664014D01*
X1226532Y664103D01*
X1226547Y664133D01*
X1226711Y664370D01*
X1226889Y664564D01*
X1227067Y664727D01*
X1227245Y664846D01*
X1227394Y664950D01*
X1227513Y665024D01*
X1227602Y665054D01*
X1227617Y665069D01*
X1227632D01*
X1227766Y665114D01*
X1227914Y665158D01*
X1228226Y665218D01*
X1228553Y665277D01*
X1228865Y665307D01*
X1229162Y665322D01*
X1229281D01*
X1229400Y665336D01*
X1233932D01*
Y655574D01*
D02*
G37*
G36*
X519457Y677081D02*
X519620Y676843D01*
X519798Y676621D01*
X519977Y676413D01*
X520140Y676249D01*
X520274Y676115D01*
X520363Y676026D01*
X520378Y676011D01*
X520393Y675996D01*
X520675Y675759D01*
X520972Y675536D01*
X521269Y675343D01*
X521537Y675179D01*
X521775Y675045D01*
X521879Y675001D01*
X521968Y674956D01*
X522027Y674912D01*
X522087Y674882D01*
X522116Y674867D01*
X522131D01*
Y673693D01*
X521923Y673783D01*
X521700Y673886D01*
X521492Y673976D01*
X521299Y674080D01*
X521136Y674169D01*
X521002Y674243D01*
X520913Y674303D01*
X520898Y674317D01*
X520883D01*
X520630Y674466D01*
X520408Y674630D01*
X520215Y674763D01*
X520051Y674897D01*
X519917Y675001D01*
X519813Y675075D01*
X519754Y675135D01*
X519739Y675150D01*
Y667512D01*
X518535D01*
Y677319D01*
X519323D01*
X519457Y677081D01*
D02*
G37*
G36*
X511879D02*
X512042Y676843D01*
X512220Y676621D01*
X512399Y676413D01*
X512562Y676249D01*
X512696Y676115D01*
X512785Y676026D01*
X512800Y676011D01*
X512815Y675996D01*
X513097Y675759D01*
X513394Y675536D01*
X513691Y675343D01*
X513959Y675179D01*
X514197Y675045D01*
X514301Y675001D01*
X514390Y674956D01*
X514449Y674912D01*
X514509Y674882D01*
X514538Y674867D01*
X514553D01*
Y673693D01*
X514345Y673783D01*
X514122Y673886D01*
X513914Y673976D01*
X513721Y674080D01*
X513558Y674169D01*
X513424Y674243D01*
X513335Y674303D01*
X513320Y674317D01*
X513305D01*
X513052Y674466D01*
X512830Y674630D01*
X512636Y674763D01*
X512473Y674897D01*
X512339Y675001D01*
X512235Y675075D01*
X512176Y675135D01*
X512161Y675150D01*
Y667512D01*
X510957D01*
Y677319D01*
X511745D01*
X511879Y677081D01*
D02*
G37*
G36*
X532384Y667512D02*
X531091D01*
Y671851D01*
X529427D01*
X529278Y671836D01*
X529160D01*
X529056Y671821D01*
X528981Y671806D01*
X528922D01*
X528892Y671791D01*
X528877D01*
X528654Y671717D01*
X528476Y671628D01*
X528402Y671583D01*
X528342Y671554D01*
X528313Y671539D01*
X528298Y671524D01*
X528179Y671450D01*
X528075Y671346D01*
X527852Y671138D01*
X527778Y671034D01*
X527703Y670944D01*
X527659Y670885D01*
X527644Y670870D01*
X527495Y670677D01*
X527347Y670469D01*
X527183Y670246D01*
X527035Y670023D01*
X526901Y669830D01*
X526797Y669681D01*
X526767Y669622D01*
X526738Y669577D01*
X526708Y669548D01*
Y669533D01*
X525415Y667512D01*
X523796D01*
X525489Y670157D01*
X525683Y670439D01*
X525876Y670692D01*
X526054Y670915D01*
X526217Y671108D01*
X526351Y671256D01*
X526455Y671375D01*
X526530Y671435D01*
X526559Y671464D01*
X526663Y671554D01*
X526797Y671643D01*
X527050Y671806D01*
X527154Y671866D01*
X527243Y671910D01*
X527302Y671940D01*
X527332Y671955D01*
X527079Y671999D01*
X526842Y672044D01*
X526619Y672103D01*
X526426Y672178D01*
X526232Y672252D01*
X526069Y672326D01*
X525905Y672401D01*
X525772Y672475D01*
X525653Y672549D01*
X525549Y672609D01*
X525460Y672683D01*
X525385Y672728D01*
X525341Y672787D01*
X525296Y672817D01*
X525266Y672846D01*
X525148Y672980D01*
X525044Y673129D01*
X524865Y673426D01*
X524747Y673708D01*
X524672Y673990D01*
X524613Y674228D01*
X524598Y674332D01*
Y674421D01*
X524583Y674496D01*
Y674555D01*
Y674585D01*
Y674600D01*
X524598Y674897D01*
X524642Y675164D01*
X524717Y675417D01*
X524791Y675640D01*
X524865Y675818D01*
X524940Y675952D01*
X524984Y676041D01*
X524999Y676071D01*
X525163Y676309D01*
X525341Y676502D01*
X525519Y676665D01*
X525697Y676784D01*
X525846Y676888D01*
X525965Y676962D01*
X526054Y676992D01*
X526069Y677007D01*
X526084D01*
X526217Y677051D01*
X526366Y677096D01*
X526678Y677156D01*
X527005Y677215D01*
X527317Y677245D01*
X527614Y677260D01*
X527733D01*
X527852Y677274D01*
X532384D01*
Y667512D01*
D02*
G37*
G36*
X1060223Y503853D02*
X1060386Y503615D01*
X1060564Y503393D01*
X1060743Y503185D01*
X1060906Y503021D01*
X1061040Y502887D01*
X1061129Y502798D01*
X1061144Y502783D01*
X1061159Y502769D01*
X1061441Y502531D01*
X1061738Y502308D01*
X1062036Y502115D01*
X1062303Y501951D01*
X1062541Y501818D01*
X1062645Y501773D01*
X1062734Y501728D01*
X1062793Y501684D01*
X1062853Y501654D01*
X1062882Y501639D01*
X1062897D01*
Y500465D01*
X1062689Y500555D01*
X1062466Y500658D01*
X1062258Y500748D01*
X1062065Y500852D01*
X1061902Y500941D01*
X1061768Y501015D01*
X1061679Y501075D01*
X1061664Y501089D01*
X1061649D01*
X1061396Y501238D01*
X1061174Y501401D01*
X1060981Y501535D01*
X1060817Y501669D01*
X1060683Y501773D01*
X1060579Y501847D01*
X1060520Y501907D01*
X1060505Y501922D01*
Y494284D01*
X1059301D01*
Y504091D01*
X1060089D01*
X1060223Y503853D01*
D02*
G37*
G36*
X1073150Y494284D02*
X1071857D01*
Y498623D01*
X1070193D01*
X1070044Y498608D01*
X1069926D01*
X1069822Y498593D01*
X1069747Y498578D01*
X1069688D01*
X1069658Y498563D01*
X1069643D01*
X1069420Y498489D01*
X1069242Y498400D01*
X1069168Y498355D01*
X1069108Y498326D01*
X1069079Y498311D01*
X1069064Y498296D01*
X1068945Y498222D01*
X1068841Y498118D01*
X1068618Y497910D01*
X1068544Y497806D01*
X1068469Y497716D01*
X1068425Y497657D01*
X1068410Y497642D01*
X1068261Y497449D01*
X1068113Y497241D01*
X1067949Y497018D01*
X1067801Y496795D01*
X1067667Y496602D01*
X1067563Y496453D01*
X1067533Y496394D01*
X1067504Y496349D01*
X1067474Y496320D01*
Y496305D01*
X1066181Y494284D01*
X1064561D01*
X1066255Y496929D01*
X1066449Y497211D01*
X1066642Y497464D01*
X1066820Y497687D01*
X1066983Y497880D01*
X1067117Y498028D01*
X1067221Y498147D01*
X1067296Y498207D01*
X1067325Y498237D01*
X1067429Y498326D01*
X1067563Y498415D01*
X1067816Y498578D01*
X1067920Y498638D01*
X1068009Y498682D01*
X1068068Y498712D01*
X1068098Y498727D01*
X1067845Y498771D01*
X1067608Y498816D01*
X1067385Y498875D01*
X1067191Y498950D01*
X1066998Y499024D01*
X1066835Y499098D01*
X1066672Y499173D01*
X1066538Y499247D01*
X1066419Y499321D01*
X1066315Y499381D01*
X1066226Y499455D01*
X1066151Y499500D01*
X1066107Y499559D01*
X1066062Y499589D01*
X1066032Y499618D01*
X1065914Y499752D01*
X1065810Y499901D01*
X1065631Y500198D01*
X1065512Y500480D01*
X1065438Y500762D01*
X1065379Y501000D01*
X1065364Y501104D01*
Y501193D01*
X1065349Y501268D01*
Y501327D01*
Y501357D01*
Y501372D01*
X1065364Y501669D01*
X1065408Y501936D01*
X1065483Y502189D01*
X1065557Y502412D01*
X1065631Y502590D01*
X1065706Y502724D01*
X1065750Y502813D01*
X1065765Y502843D01*
X1065928Y503080D01*
X1066107Y503274D01*
X1066285Y503437D01*
X1066463Y503556D01*
X1066612Y503660D01*
X1066731Y503734D01*
X1066820Y503764D01*
X1066835Y503779D01*
X1066850D01*
X1066983Y503824D01*
X1067132Y503868D01*
X1067444Y503927D01*
X1067771Y503987D01*
X1068083Y504017D01*
X1068380Y504031D01*
X1068499D01*
X1068618Y504046D01*
X1073150D01*
Y494284D01*
D02*
G37*
G36*
X1053447Y504061D02*
X1053789Y504002D01*
X1054101Y503913D01*
X1054353Y503809D01*
X1054561Y503690D01*
X1054710Y503601D01*
X1054769Y503571D01*
X1054814Y503541D01*
X1054829Y503511D01*
X1054844D01*
X1055096Y503274D01*
X1055304Y503021D01*
X1055483Y502754D01*
X1055631Y502486D01*
X1055750Y502248D01*
X1055795Y502144D01*
X1055824Y502055D01*
X1055854Y501981D01*
X1055884Y501922D01*
X1055899Y501892D01*
Y501877D01*
X1055958Y501669D01*
X1056018Y501461D01*
X1056092Y501000D01*
X1056151Y500540D01*
X1056196Y500094D01*
X1056211Y499886D01*
X1056226Y499693D01*
Y499529D01*
X1056240Y499381D01*
Y499262D01*
Y499173D01*
Y499113D01*
Y499098D01*
X1056226Y498608D01*
X1056196Y498133D01*
X1056151Y497716D01*
X1056092Y497315D01*
X1056018Y496959D01*
X1055943Y496632D01*
X1055854Y496334D01*
X1055765Y496082D01*
X1055676Y495844D01*
X1055587Y495651D01*
X1055512Y495488D01*
X1055438Y495354D01*
X1055379Y495250D01*
X1055334Y495176D01*
X1055304Y495131D01*
X1055290Y495116D01*
X1055126Y494938D01*
X1054963Y494789D01*
X1054784Y494655D01*
X1054591Y494537D01*
X1054413Y494447D01*
X1054220Y494358D01*
X1053863Y494239D01*
X1053700Y494210D01*
X1053551Y494180D01*
X1053417Y494150D01*
X1053298Y494135D01*
X1053194Y494121D01*
X1053061D01*
X1052674Y494150D01*
X1052333Y494210D01*
X1052035Y494299D01*
X1051768Y494403D01*
X1051575Y494507D01*
X1051411Y494596D01*
X1051367Y494641D01*
X1051322Y494655D01*
X1051307Y494685D01*
X1051292D01*
X1051040Y494923D01*
X1050832Y495190D01*
X1050654Y495458D01*
X1050505Y495725D01*
X1050386Y495963D01*
X1050341Y496052D01*
X1050297Y496141D01*
X1050267Y496216D01*
X1050252Y496275D01*
X1050237Y496305D01*
Y496320D01*
X1050178Y496528D01*
X1050119Y496736D01*
X1050029Y497196D01*
X1049970Y497657D01*
X1049925Y498103D01*
X1049911Y498311D01*
X1049896Y498504D01*
Y498667D01*
X1049881Y498816D01*
Y498935D01*
Y499024D01*
Y499084D01*
Y499098D01*
X1049896Y499618D01*
Y499841D01*
X1049911Y500064D01*
X1049925Y500272D01*
X1049955Y500465D01*
X1049970Y500629D01*
X1049985Y500792D01*
X1050014Y500926D01*
X1050029Y501060D01*
X1050044Y501164D01*
X1050074Y501238D01*
X1050089Y501312D01*
Y501357D01*
X1050104Y501387D01*
Y501401D01*
X1050193Y501713D01*
X1050297Y501996D01*
X1050401Y502248D01*
X1050490Y502456D01*
X1050579Y502620D01*
X1050654Y502754D01*
X1050698Y502828D01*
X1050713Y502858D01*
X1050862Y503066D01*
X1051025Y503244D01*
X1051188Y503407D01*
X1051337Y503541D01*
X1051486Y503630D01*
X1051590Y503705D01*
X1051664Y503749D01*
X1051694Y503764D01*
X1051917Y503868D01*
X1052154Y503957D01*
X1052392Y504017D01*
X1052600Y504046D01*
X1052778Y504076D01*
X1052927Y504091D01*
X1053061D01*
X1053447Y504061D01*
D02*
G37*
G36*
X1035849Y699148D02*
X1036087Y699118D01*
X1036310Y699074D01*
X1036518Y699029D01*
X1036889Y698881D01*
X1037053Y698792D01*
X1037202Y698717D01*
X1037350Y698628D01*
X1037469Y698539D01*
X1037573Y698465D01*
X1037647Y698405D01*
X1037722Y698346D01*
X1037766Y698301D01*
X1037796Y698271D01*
X1037811Y698257D01*
X1037959Y698078D01*
X1038093Y697900D01*
X1038212Y697707D01*
X1038301Y697499D01*
X1038390Y697306D01*
X1038465Y697097D01*
X1038568Y696726D01*
X1038598Y696548D01*
X1038628Y696384D01*
X1038643Y696236D01*
X1038658Y696117D01*
X1038672Y696013D01*
Y695924D01*
Y695879D01*
Y695864D01*
X1038658Y695597D01*
X1038643Y695344D01*
X1038598Y695121D01*
X1038539Y694898D01*
X1038479Y694690D01*
X1038405Y694497D01*
X1038331Y694319D01*
X1038257Y694170D01*
X1038182Y694022D01*
X1038108Y693903D01*
X1038034Y693799D01*
X1037974Y693710D01*
X1037915Y693635D01*
X1037870Y693591D01*
X1037855Y693561D01*
X1037840Y693546D01*
X1037677Y693398D01*
X1037514Y693264D01*
X1037335Y693145D01*
X1037172Y693041D01*
X1036993Y692952D01*
X1036830Y692878D01*
X1036503Y692774D01*
X1036221Y692714D01*
X1036102Y692699D01*
X1035998Y692684D01*
X1035909Y692670D01*
X1035790D01*
X1035522Y692684D01*
X1035270Y692729D01*
X1035047Y692774D01*
X1034854Y692848D01*
X1034690Y692907D01*
X1034557Y692952D01*
X1034482Y692997D01*
X1034453Y693011D01*
X1034230Y693160D01*
X1034036Y693308D01*
X1033858Y693472D01*
X1033725Y693621D01*
X1033606Y693739D01*
X1033531Y693858D01*
X1033472Y693918D01*
X1033457Y693947D01*
Y693843D01*
Y693769D01*
Y693725D01*
Y693710D01*
Y693427D01*
X1033487Y693160D01*
X1033516Y692922D01*
X1033546Y692699D01*
X1033576Y692506D01*
X1033606Y692357D01*
X1033621Y692313D01*
Y692268D01*
X1033635Y692253D01*
Y692239D01*
X1033710Y691986D01*
X1033784Y691763D01*
X1033858Y691570D01*
X1033918Y691406D01*
X1033992Y691273D01*
X1034036Y691169D01*
X1034066Y691109D01*
X1034081Y691095D01*
X1034185Y690946D01*
X1034304Y690812D01*
X1034408Y690693D01*
X1034527Y690604D01*
X1034616Y690530D01*
X1034690Y690470D01*
X1034750Y690441D01*
X1034765Y690426D01*
X1034928Y690337D01*
X1035091Y690277D01*
X1035255Y690233D01*
X1035404Y690203D01*
X1035537Y690188D01*
X1035641Y690173D01*
X1035731D01*
X1035968Y690188D01*
X1036176Y690233D01*
X1036355Y690292D01*
X1036503Y690352D01*
X1036637Y690411D01*
X1036726Y690470D01*
X1036786Y690515D01*
X1036800Y690530D01*
X1036949Y690678D01*
X1037068Y690872D01*
X1037157Y691065D01*
X1037231Y691258D01*
X1037291Y691421D01*
X1037320Y691570D01*
X1037335Y691629D01*
X1037350Y691674D01*
Y691689D01*
Y691704D01*
X1038494Y691615D01*
X1038420Y691199D01*
X1038301Y690842D01*
X1038167Y690530D01*
X1038019Y690277D01*
X1037870Y690084D01*
X1037751Y689936D01*
X1037662Y689846D01*
X1037647Y689831D01*
X1037632Y689817D01*
X1037335Y689609D01*
X1037038Y689460D01*
X1036726Y689341D01*
X1036429Y689267D01*
X1036161Y689222D01*
X1036042Y689207D01*
X1035953D01*
X1035864Y689193D01*
X1035760D01*
X1035374Y689222D01*
X1035002Y689282D01*
X1034690Y689371D01*
X1034408Y689475D01*
X1034185Y689579D01*
X1034096Y689623D01*
X1034022Y689668D01*
X1033947Y689713D01*
X1033903Y689727D01*
X1033888Y689757D01*
X1033873D01*
X1033591Y689995D01*
X1033353Y690262D01*
X1033145Y690545D01*
X1032967Y690827D01*
X1032833Y691065D01*
X1032788Y691169D01*
X1032744Y691273D01*
X1032714Y691347D01*
X1032684Y691406D01*
X1032670Y691436D01*
Y691451D01*
X1032595Y691674D01*
X1032536Y691897D01*
X1032432Y692387D01*
X1032357Y692892D01*
X1032298Y693368D01*
X1032283Y693591D01*
X1032268Y693784D01*
Y693977D01*
X1032253Y694126D01*
Y694259D01*
Y694349D01*
Y694423D01*
Y694438D01*
Y694765D01*
X1032268Y695077D01*
X1032298Y695359D01*
X1032313Y695627D01*
X1032343Y695864D01*
X1032387Y696087D01*
X1032417Y696295D01*
X1032461Y696473D01*
X1032506Y696637D01*
X1032536Y696786D01*
X1032566Y696904D01*
X1032610Y696993D01*
X1032625Y697068D01*
X1032655Y697127D01*
X1032670Y697157D01*
Y697172D01*
X1032833Y697514D01*
X1033026Y697811D01*
X1033234Y698048D01*
X1033427Y698271D01*
X1033606Y698435D01*
X1033739Y698554D01*
X1033799Y698583D01*
X1033843Y698613D01*
X1033858Y698643D01*
X1033873D01*
X1034170Y698821D01*
X1034482Y698940D01*
X1034765Y699029D01*
X1035032Y699103D01*
X1035270Y699133D01*
X1035374Y699148D01*
X1035448D01*
X1035522Y699163D01*
X1035612D01*
X1035849Y699148D01*
D02*
G37*
G36*
X1048004Y689356D02*
X1046711D01*
Y693695D01*
X1045047D01*
X1044899Y693680D01*
X1044780D01*
X1044676Y693665D01*
X1044601Y693650D01*
X1044542D01*
X1044512Y693635D01*
X1044497D01*
X1044274Y693561D01*
X1044096Y693472D01*
X1044022Y693427D01*
X1043962Y693398D01*
X1043933Y693383D01*
X1043918Y693368D01*
X1043799Y693294D01*
X1043695Y693190D01*
X1043472Y692982D01*
X1043398Y692878D01*
X1043323Y692788D01*
X1043279Y692729D01*
X1043264Y692714D01*
X1043115Y692521D01*
X1042967Y692313D01*
X1042803Y692090D01*
X1042655Y691867D01*
X1042521Y691674D01*
X1042417Y691525D01*
X1042387Y691466D01*
X1042358Y691421D01*
X1042328Y691392D01*
Y691377D01*
X1041035Y689356D01*
X1039416D01*
X1041109Y692001D01*
X1041303Y692283D01*
X1041496Y692536D01*
X1041674Y692759D01*
X1041837Y692952D01*
X1041971Y693101D01*
X1042075Y693219D01*
X1042150Y693279D01*
X1042179Y693308D01*
X1042283Y693398D01*
X1042417Y693487D01*
X1042670Y693650D01*
X1042774Y693710D01*
X1042863Y693754D01*
X1042922Y693784D01*
X1042952Y693799D01*
X1042699Y693843D01*
X1042462Y693888D01*
X1042239Y693947D01*
X1042046Y694022D01*
X1041852Y694096D01*
X1041689Y694170D01*
X1041525Y694245D01*
X1041392Y694319D01*
X1041273Y694393D01*
X1041169Y694453D01*
X1041080Y694527D01*
X1041005Y694572D01*
X1040961Y694631D01*
X1040916Y694661D01*
X1040887Y694690D01*
X1040768Y694824D01*
X1040664Y694973D01*
X1040485Y695270D01*
X1040367Y695552D01*
X1040292Y695835D01*
X1040233Y696072D01*
X1040218Y696176D01*
Y696265D01*
X1040203Y696340D01*
Y696399D01*
Y696429D01*
Y696444D01*
X1040218Y696741D01*
X1040263Y697008D01*
X1040337Y697261D01*
X1040411Y697484D01*
X1040485Y697662D01*
X1040560Y697796D01*
X1040604Y697885D01*
X1040619Y697915D01*
X1040782Y698152D01*
X1040961Y698346D01*
X1041139Y698509D01*
X1041317Y698628D01*
X1041466Y698732D01*
X1041585Y698806D01*
X1041674Y698836D01*
X1041689Y698851D01*
X1041704D01*
X1041837Y698895D01*
X1041986Y698940D01*
X1042298Y698999D01*
X1042625Y699059D01*
X1042937Y699089D01*
X1043234Y699103D01*
X1043353D01*
X1043472Y699118D01*
X1048004D01*
Y689356D01*
D02*
G37*
G36*
X1081786Y674624D02*
X1080493D01*
Y678963D01*
X1078829D01*
X1078680Y678948D01*
X1078562D01*
X1078458Y678933D01*
X1078383Y678918D01*
X1078324D01*
X1078294Y678903D01*
X1078279D01*
X1078056Y678829D01*
X1077878Y678740D01*
X1077804Y678695D01*
X1077744Y678666D01*
X1077715Y678651D01*
X1077700Y678636D01*
X1077581Y678562D01*
X1077477Y678458D01*
X1077254Y678250D01*
X1077180Y678146D01*
X1077105Y678056D01*
X1077061Y677997D01*
X1077046Y677982D01*
X1076897Y677789D01*
X1076749Y677581D01*
X1076585Y677358D01*
X1076437Y677135D01*
X1076303Y676942D01*
X1076199Y676793D01*
X1076169Y676734D01*
X1076140Y676689D01*
X1076110Y676660D01*
Y676645D01*
X1074817Y674624D01*
X1073197D01*
X1074891Y677269D01*
X1075085Y677551D01*
X1075278Y677804D01*
X1075456Y678027D01*
X1075620Y678220D01*
X1075753Y678369D01*
X1075857Y678487D01*
X1075932Y678547D01*
X1075961Y678577D01*
X1076065Y678666D01*
X1076199Y678755D01*
X1076452Y678918D01*
X1076556Y678978D01*
X1076645Y679022D01*
X1076704Y679052D01*
X1076734Y679067D01*
X1076481Y679111D01*
X1076244Y679156D01*
X1076021Y679215D01*
X1075827Y679290D01*
X1075634Y679364D01*
X1075471Y679438D01*
X1075307Y679513D01*
X1075174Y679587D01*
X1075055Y679661D01*
X1074951Y679721D01*
X1074862Y679795D01*
X1074787Y679839D01*
X1074743Y679899D01*
X1074698Y679929D01*
X1074669Y679958D01*
X1074550Y680092D01*
X1074446Y680241D01*
X1074267Y680538D01*
X1074148Y680820D01*
X1074074Y681103D01*
X1074015Y681340D01*
X1074000Y681444D01*
Y681533D01*
X1073985Y681608D01*
Y681667D01*
Y681697D01*
Y681712D01*
X1074000Y682009D01*
X1074044Y682276D01*
X1074119Y682529D01*
X1074193Y682752D01*
X1074267Y682930D01*
X1074342Y683064D01*
X1074386Y683153D01*
X1074401Y683183D01*
X1074565Y683420D01*
X1074743Y683614D01*
X1074921Y683777D01*
X1075099Y683896D01*
X1075248Y684000D01*
X1075367Y684074D01*
X1075456Y684104D01*
X1075471Y684119D01*
X1075486D01*
X1075620Y684164D01*
X1075768Y684208D01*
X1076080Y684268D01*
X1076407Y684327D01*
X1076719Y684357D01*
X1077016Y684371D01*
X1077135D01*
X1077254Y684386D01*
X1081786D01*
Y674624D01*
D02*
G37*
G36*
X1069527Y684416D02*
X1069735Y684401D01*
X1070136Y684312D01*
X1070493Y684208D01*
X1070776Y684074D01*
X1070909Y684000D01*
X1071013Y683941D01*
X1071102Y683866D01*
X1071191Y683822D01*
X1071251Y683777D01*
X1071295Y683733D01*
X1071310Y683718D01*
X1071325Y683703D01*
X1071459Y683569D01*
X1071578Y683420D01*
X1071682Y683272D01*
X1071756Y683109D01*
X1071905Y682811D01*
X1071994Y682529D01*
X1072038Y682276D01*
X1072053Y682172D01*
X1072068Y682083D01*
X1072083Y682009D01*
Y681949D01*
Y681920D01*
Y681905D01*
X1072068Y681652D01*
X1072024Y681429D01*
X1071964Y681221D01*
X1071905Y681043D01*
X1071845Y680894D01*
X1071786Y680790D01*
X1071741Y680731D01*
X1071727Y680701D01*
X1071578Y680523D01*
X1071400Y680374D01*
X1071221Y680241D01*
X1071028Y680122D01*
X1070865Y680048D01*
X1070731Y679973D01*
X1070642Y679943D01*
X1070627Y679929D01*
X1070612D01*
X1070924Y679825D01*
X1071206Y679691D01*
X1071444Y679542D01*
X1071637Y679394D01*
X1071786Y679260D01*
X1071905Y679141D01*
X1071964Y679067D01*
X1071994Y679052D01*
Y679037D01*
X1072157Y678784D01*
X1072261Y678517D01*
X1072350Y678250D01*
X1072410Y677997D01*
X1072440Y677789D01*
X1072455Y677685D01*
Y677611D01*
X1072469Y677536D01*
Y677492D01*
Y677462D01*
Y677447D01*
X1072455Y677209D01*
X1072425Y676987D01*
X1072395Y676779D01*
X1072336Y676571D01*
X1072187Y676214D01*
X1072113Y676050D01*
X1072024Y675902D01*
X1071949Y675768D01*
X1071875Y675649D01*
X1071801Y675545D01*
X1071727Y675456D01*
X1071667Y675397D01*
X1071637Y675352D01*
X1071608Y675322D01*
X1071593Y675307D01*
X1071414Y675159D01*
X1071236Y675025D01*
X1071043Y674921D01*
X1070850Y674817D01*
X1070657Y674743D01*
X1070463Y674669D01*
X1070092Y674565D01*
X1069914Y674535D01*
X1069765Y674505D01*
X1069616Y674490D01*
X1069498Y674475D01*
X1069394Y674461D01*
X1069260D01*
X1068992Y674475D01*
X1068740Y674490D01*
X1068502Y674535D01*
X1068294Y674594D01*
X1068086Y674654D01*
X1067893Y674728D01*
X1067714Y674802D01*
X1067551Y674892D01*
X1067402Y674966D01*
X1067284Y675040D01*
X1067180Y675114D01*
X1067090Y675174D01*
X1067016Y675233D01*
X1066972Y675278D01*
X1066942Y675293D01*
X1066927Y675307D01*
X1066764Y675471D01*
X1066630Y675634D01*
X1066511Y675813D01*
X1066407Y675991D01*
X1066318Y676169D01*
X1066258Y676348D01*
X1066140Y676674D01*
X1066080Y676972D01*
X1066065Y677105D01*
X1066050Y677209D01*
X1066036Y677299D01*
Y677358D01*
Y677403D01*
Y677418D01*
X1066050Y677744D01*
X1066110Y678042D01*
X1066184Y678309D01*
X1066273Y678532D01*
X1066362Y678725D01*
X1066437Y678859D01*
X1066496Y678948D01*
X1066511Y678978D01*
X1066704Y679201D01*
X1066927Y679409D01*
X1067150Y679572D01*
X1067373Y679706D01*
X1067566Y679795D01*
X1067729Y679869D01*
X1067789Y679899D01*
X1067833Y679914D01*
X1067863Y679929D01*
X1067878D01*
X1067625Y680033D01*
X1067402Y680166D01*
X1067209Y680285D01*
X1067061Y680404D01*
X1066942Y680523D01*
X1066853Y680612D01*
X1066808Y680672D01*
X1066793Y680686D01*
X1066674Y680880D01*
X1066585Y681088D01*
X1066526Y681281D01*
X1066481Y681474D01*
X1066451Y681637D01*
X1066437Y681756D01*
Y681845D01*
Y681875D01*
X1066451Y682068D01*
X1066466Y682262D01*
X1066555Y682603D01*
X1066689Y682915D01*
X1066823Y683183D01*
X1066972Y683391D01*
X1067046Y683480D01*
X1067105Y683554D01*
X1067150Y683614D01*
X1067195Y683658D01*
X1067209Y683673D01*
X1067224Y683688D01*
X1067373Y683822D01*
X1067536Y683941D01*
X1067700Y684030D01*
X1067878Y684119D01*
X1068220Y684253D01*
X1068547Y684342D01*
X1068844Y684386D01*
X1068963Y684416D01*
X1069082D01*
X1069171Y684431D01*
X1069290D01*
X1069527Y684416D01*
D02*
G37*
G36*
X473229Y586403D02*
X473392Y586166D01*
X473570Y585943D01*
X473749Y585734D01*
X473912Y585571D01*
X474046Y585437D01*
X474135Y585348D01*
X474150Y585333D01*
X474165Y585318D01*
X474447Y585081D01*
X474744Y584858D01*
X475042Y584665D01*
X475309Y584501D01*
X475547Y584367D01*
X475651Y584323D01*
X475740Y584278D01*
X475799Y584234D01*
X475859Y584204D01*
X475888Y584189D01*
X475903D01*
Y583015D01*
X475695Y583105D01*
X475472Y583209D01*
X475264Y583298D01*
X475071Y583402D01*
X474908Y583491D01*
X474774Y583565D01*
X474685Y583625D01*
X474670Y583639D01*
X474655D01*
X474403Y583788D01*
X474180Y583951D01*
X473987Y584085D01*
X473823Y584219D01*
X473689Y584323D01*
X473585Y584397D01*
X473526Y584457D01*
X473511Y584472D01*
Y576834D01*
X472307D01*
Y586641D01*
X473095D01*
X473229Y586403D01*
D02*
G37*
G36*
X486156Y576834D02*
X484863D01*
Y581173D01*
X483199D01*
X483050Y581158D01*
X482932D01*
X482828Y581143D01*
X482753Y581128D01*
X482694D01*
X482664Y581113D01*
X482649D01*
X482426Y581039D01*
X482248Y580950D01*
X482174Y580905D01*
X482114Y580876D01*
X482085Y580861D01*
X482070Y580846D01*
X481951Y580772D01*
X481847Y580668D01*
X481624Y580460D01*
X481550Y580356D01*
X481475Y580266D01*
X481431Y580207D01*
X481416Y580192D01*
X481267Y579999D01*
X481119Y579791D01*
X480955Y579568D01*
X480807Y579345D01*
X480673Y579152D01*
X480569Y579003D01*
X480539Y578944D01*
X480510Y578899D01*
X480480Y578870D01*
Y578855D01*
X479187Y576834D01*
X477567D01*
X479261Y579479D01*
X479455Y579761D01*
X479648Y580014D01*
X479826Y580237D01*
X479990Y580430D01*
X480123Y580578D01*
X480227Y580697D01*
X480302Y580757D01*
X480331Y580787D01*
X480435Y580876D01*
X480569Y580965D01*
X480822Y581128D01*
X480926Y581188D01*
X481015Y581232D01*
X481074Y581262D01*
X481104Y581277D01*
X480851Y581321D01*
X480614Y581366D01*
X480391Y581425D01*
X480197Y581500D01*
X480004Y581574D01*
X479841Y581648D01*
X479678Y581723D01*
X479544Y581797D01*
X479425Y581871D01*
X479321Y581931D01*
X479232Y582005D01*
X479157Y582049D01*
X479113Y582109D01*
X479068Y582139D01*
X479039Y582168D01*
X478920Y582302D01*
X478816Y582451D01*
X478637Y582748D01*
X478518Y583030D01*
X478444Y583312D01*
X478385Y583550D01*
X478370Y583654D01*
Y583743D01*
X478355Y583818D01*
Y583877D01*
Y583907D01*
Y583922D01*
X478370Y584219D01*
X478414Y584486D01*
X478489Y584739D01*
X478563Y584962D01*
X478637Y585140D01*
X478712Y585274D01*
X478756Y585363D01*
X478771Y585393D01*
X478935Y585630D01*
X479113Y585824D01*
X479291Y585987D01*
X479469Y586106D01*
X479618Y586210D01*
X479737Y586284D01*
X479826Y586314D01*
X479841Y586329D01*
X479856D01*
X479990Y586373D01*
X480138Y586418D01*
X480450Y586478D01*
X480777Y586537D01*
X481089Y586567D01*
X481386Y586581D01*
X481505D01*
X481624Y586596D01*
X486156D01*
Y576834D01*
D02*
G37*
G36*
X987093Y729659D02*
X987256Y729421D01*
X987434Y729199D01*
X987613Y728990D01*
X987776Y728827D01*
X987910Y728693D01*
X987999Y728604D01*
X988014Y728589D01*
X988029Y728575D01*
X988311Y728337D01*
X988608Y728114D01*
X988905Y727921D01*
X989173Y727757D01*
X989410Y727624D01*
X989514Y727579D01*
X989604Y727534D01*
X989663Y727490D01*
X989723Y727460D01*
X989752Y727445D01*
X989767D01*
Y726271D01*
X989559Y726360D01*
X989336Y726464D01*
X989128Y726554D01*
X988935Y726658D01*
X988772Y726747D01*
X988638Y726821D01*
X988549Y726881D01*
X988534Y726895D01*
X988519D01*
X988266Y727044D01*
X988044Y727207D01*
X987850Y727341D01*
X987687Y727475D01*
X987553Y727579D01*
X987449Y727653D01*
X987390Y727713D01*
X987375Y727728D01*
Y720090D01*
X986171D01*
Y729897D01*
X986959D01*
X987093Y729659D01*
D02*
G37*
G36*
X997093Y729986D02*
X997553Y729912D01*
X997954Y729823D01*
X998148Y729763D01*
X998311Y729704D01*
X998475Y729644D01*
X998608Y729585D01*
X998727Y729540D01*
X998831Y729496D01*
X998920Y729451D01*
X998980Y729421D01*
X999009Y729407D01*
X999024Y729392D01*
X999411Y729139D01*
X999737Y728842D01*
X1000020Y728545D01*
X1000258Y728248D01*
X1000451Y727995D01*
X1000525Y727876D01*
X1000584Y727772D01*
X1000629Y727698D01*
X1000659Y727638D01*
X1000688Y727594D01*
Y727579D01*
X1000882Y727133D01*
X1001030Y726673D01*
X1001119Y726242D01*
X1001194Y725826D01*
X1001223Y725647D01*
X1001238Y725484D01*
X1001253Y725335D01*
Y725201D01*
X1001268Y725112D01*
Y725023D01*
Y724979D01*
Y724964D01*
X1001238Y724429D01*
X1001179Y723939D01*
X1001090Y723493D01*
X1001030Y723299D01*
X1000971Y723106D01*
X1000926Y722943D01*
X1000867Y722794D01*
X1000822Y722661D01*
X1000778Y722557D01*
X1000748Y722467D01*
X1000718Y722408D01*
X1000688Y722363D01*
Y722349D01*
X1000451Y721933D01*
X1000183Y721576D01*
X999916Y721264D01*
X999648Y721011D01*
X999411Y720818D01*
X999307Y720729D01*
X999218Y720669D01*
X999143Y720625D01*
X999084Y720580D01*
X999054Y720565D01*
X999039Y720551D01*
X998623Y720343D01*
X998207Y720194D01*
X997806Y720075D01*
X997434Y720001D01*
X997271Y719986D01*
X997122Y719956D01*
X996989Y719941D01*
X996870D01*
X996781Y719927D01*
X996647D01*
X996171Y719956D01*
X995726Y720016D01*
X995310Y720120D01*
X995131Y720164D01*
X994953Y720224D01*
X994804Y720283D01*
X994671Y720328D01*
X994552Y720387D01*
X994448Y720432D01*
X994359Y720462D01*
X994299Y720491D01*
X994269Y720521D01*
X994255D01*
X993868Y720239D01*
X993482Y720001D01*
X993125Y719793D01*
X992813Y719629D01*
X992665Y719570D01*
X992546Y719510D01*
X992427Y719451D01*
X992338Y719421D01*
X992263Y719392D01*
X992204Y719362D01*
X992174Y719347D01*
X992159D01*
X991758Y720224D01*
X992055Y720343D01*
X992353Y720491D01*
X992635Y720640D01*
X992887Y720788D01*
X993110Y720922D01*
X993200Y720982D01*
X993289Y721026D01*
X993348Y721071D01*
X993393Y721100D01*
X993422Y721130D01*
X993437D01*
X993170Y721413D01*
X992947Y721695D01*
X992754Y721977D01*
X992605Y722230D01*
X992486Y722453D01*
X992427Y722557D01*
X992397Y722631D01*
X992367Y722705D01*
X992338Y722750D01*
X992323Y722779D01*
Y722794D01*
X992204Y723166D01*
X992115Y723537D01*
X992041Y723909D01*
X991996Y724236D01*
X991981Y724399D01*
X991966Y724533D01*
Y724652D01*
X991951Y724756D01*
Y724845D01*
Y724904D01*
Y724949D01*
Y724964D01*
X991981Y725499D01*
X992041Y725989D01*
X992130Y726420D01*
X992189Y726628D01*
X992234Y726806D01*
X992293Y726985D01*
X992353Y727133D01*
X992397Y727252D01*
X992442Y727356D01*
X992471Y727445D01*
X992501Y727520D01*
X992531Y727549D01*
Y727564D01*
X992769Y727980D01*
X993021Y728337D01*
X993304Y728649D01*
X993571Y728901D01*
X993809Y729095D01*
X993913Y729184D01*
X994002Y729243D01*
X994076Y729303D01*
X994136Y729332D01*
X994165Y729362D01*
X994180D01*
X994388Y729481D01*
X994596Y729585D01*
X995012Y729734D01*
X995428Y729852D01*
X995800Y729941D01*
X995978Y729956D01*
X996127Y729986D01*
X996275Y730001D01*
X996394D01*
X996483Y730016D01*
X996617D01*
X997093Y729986D01*
D02*
G37*
G36*
X1322832Y779272D02*
X1321584D01*
Y787578D01*
X1318775Y779272D01*
X1317616D01*
X1314764Y787444D01*
Y779272D01*
X1313515D01*
Y789034D01*
X1315269D01*
X1317602Y782244D01*
X1317720Y781872D01*
X1317839Y781560D01*
X1317928Y781293D01*
X1317988Y781070D01*
X1318047Y780907D01*
X1318092Y780788D01*
X1318107Y780713D01*
X1318122Y780684D01*
X1318181Y780877D01*
X1318255Y781115D01*
X1318330Y781352D01*
X1318404Y781590D01*
X1318478Y781798D01*
X1318538Y781962D01*
X1318553Y782036D01*
X1318568Y782080D01*
X1318582Y782110D01*
Y782125D01*
X1320900Y789034D01*
X1322832D01*
Y779272D01*
D02*
G37*
G36*
X1312327Y782704D02*
Y781605D01*
X1308092D01*
Y779272D01*
X1306888D01*
Y781605D01*
X1305566D01*
Y782704D01*
X1306888D01*
Y789019D01*
X1307869D01*
X1312327Y782704D01*
D02*
G37*
G36*
X1249591Y790319D02*
X1249962Y790245D01*
X1250304Y790141D01*
X1250586Y790022D01*
X1250809Y789888D01*
X1250898Y789829D01*
X1250973Y789784D01*
X1251047Y789740D01*
X1251091Y789710D01*
X1251106Y789695D01*
X1251121Y789680D01*
X1251388Y789413D01*
X1251597Y789116D01*
X1251775Y788804D01*
X1251894Y788506D01*
X1251998Y788239D01*
X1252028Y788120D01*
X1252057Y788016D01*
X1252072Y787942D01*
X1252087Y787882D01*
X1252102Y787838D01*
Y787823D01*
X1250898Y787615D01*
X1250839Y787927D01*
X1250750Y788194D01*
X1250660Y788417D01*
X1250556Y788596D01*
X1250467Y788744D01*
X1250393Y788848D01*
X1250333Y788908D01*
X1250319Y788923D01*
X1250126Y789071D01*
X1249932Y789175D01*
X1249739Y789264D01*
X1249546Y789309D01*
X1249397Y789339D01*
X1249264Y789368D01*
X1249145D01*
X1248892Y789353D01*
X1248669Y789294D01*
X1248476Y789234D01*
X1248313Y789145D01*
X1248179Y789071D01*
X1248075Y788997D01*
X1248016Y788937D01*
X1248001Y788923D01*
X1247852Y788759D01*
X1247748Y788566D01*
X1247659Y788388D01*
X1247614Y788224D01*
X1247585Y788061D01*
X1247555Y787942D01*
Y787868D01*
Y787853D01*
Y787838D01*
X1247585Y787541D01*
X1247659Y787288D01*
X1247748Y787080D01*
X1247867Y786917D01*
X1247986Y786783D01*
X1248075Y786679D01*
X1248149Y786619D01*
X1248179Y786605D01*
X1248417Y786471D01*
X1248654Y786382D01*
X1248877Y786307D01*
X1249085Y786263D01*
X1249279Y786233D01*
X1249412Y786218D01*
X1249605D01*
X1249665Y786233D01*
X1249739D01*
X1249873Y785178D01*
X1249695Y785223D01*
X1249531Y785252D01*
X1249383Y785267D01*
X1249264Y785282D01*
X1249160Y785297D01*
X1249026D01*
X1248729Y785267D01*
X1248476Y785208D01*
X1248238Y785133D01*
X1248045Y785029D01*
X1247882Y784925D01*
X1247763Y784851D01*
X1247703Y784792D01*
X1247674Y784762D01*
X1247495Y784554D01*
X1247362Y784331D01*
X1247258Y784093D01*
X1247198Y783885D01*
X1247154Y783692D01*
X1247139Y783543D01*
X1247124Y783484D01*
Y783439D01*
Y783425D01*
Y783410D01*
X1247154Y783098D01*
X1247213Y782815D01*
X1247302Y782563D01*
X1247406Y782355D01*
X1247525Y782177D01*
X1247614Y782058D01*
X1247674Y781983D01*
X1247703Y781954D01*
X1247926Y781760D01*
X1248164Y781612D01*
X1248402Y781523D01*
X1248640Y781448D01*
X1248833Y781404D01*
X1248981Y781389D01*
X1249041Y781374D01*
X1249130D01*
X1249383Y781389D01*
X1249620Y781448D01*
X1249828Y781523D01*
X1249992Y781597D01*
X1250140Y781686D01*
X1250244Y781746D01*
X1250304Y781805D01*
X1250333Y781820D01*
X1250497Y782013D01*
X1250646Y782236D01*
X1250764Y782488D01*
X1250854Y782726D01*
X1250928Y782949D01*
X1250973Y783128D01*
X1251002Y783187D01*
Y783246D01*
X1251017Y783276D01*
Y783291D01*
X1252221Y783128D01*
X1252191Y782905D01*
X1252146Y782697D01*
X1252013Y782310D01*
X1251864Y781969D01*
X1251686Y781671D01*
X1251611Y781552D01*
X1251522Y781448D01*
X1251448Y781359D01*
X1251388Y781270D01*
X1251329Y781211D01*
X1251284Y781166D01*
X1251270Y781151D01*
X1251255Y781136D01*
X1251091Y781003D01*
X1250913Y780884D01*
X1250750Y780780D01*
X1250571Y780705D01*
X1250215Y780557D01*
X1249873Y780468D01*
X1249724Y780438D01*
X1249576Y780423D01*
X1249457Y780408D01*
X1249338Y780393D01*
X1249249Y780379D01*
X1249130D01*
X1248877Y780393D01*
X1248625Y780423D01*
X1248387Y780453D01*
X1248164Y780512D01*
X1247956Y780587D01*
X1247763Y780661D01*
X1247585Y780735D01*
X1247421Y780824D01*
X1247287Y780899D01*
X1247154Y780973D01*
X1247035Y781047D01*
X1246946Y781122D01*
X1246871Y781181D01*
X1246827Y781211D01*
X1246797Y781240D01*
X1246782Y781255D01*
X1246619Y781433D01*
X1246470Y781612D01*
X1246351Y781790D01*
X1246247Y781969D01*
X1246143Y782147D01*
X1246069Y782340D01*
X1245965Y782682D01*
X1245920Y782830D01*
X1245891Y782979D01*
X1245876Y783098D01*
X1245861Y783217D01*
X1245846Y783306D01*
Y783365D01*
Y783410D01*
Y783425D01*
X1245861Y783766D01*
X1245920Y784078D01*
X1245995Y784346D01*
X1246084Y784569D01*
X1246188Y784747D01*
X1246262Y784881D01*
X1246322Y784970D01*
X1246337Y785000D01*
X1246530Y785223D01*
X1246752Y785401D01*
X1246975Y785549D01*
X1247183Y785654D01*
X1247377Y785743D01*
X1247525Y785787D01*
X1247585Y785817D01*
X1247629D01*
X1247659Y785832D01*
X1247674D01*
X1247436Y785951D01*
X1247228Y786099D01*
X1247065Y786233D01*
X1246916Y786367D01*
X1246812Y786486D01*
X1246723Y786575D01*
X1246678Y786634D01*
X1246663Y786664D01*
X1246544Y786857D01*
X1246470Y787065D01*
X1246411Y787258D01*
X1246366Y787437D01*
X1246337Y787585D01*
X1246322Y787704D01*
Y787778D01*
Y787808D01*
X1246337Y788061D01*
X1246381Y788283D01*
X1246441Y788492D01*
X1246500Y788685D01*
X1246559Y788833D01*
X1246619Y788952D01*
X1246663Y789026D01*
X1246678Y789056D01*
X1246827Y789264D01*
X1246990Y789457D01*
X1247169Y789621D01*
X1247332Y789755D01*
X1247481Y789859D01*
X1247599Y789933D01*
X1247689Y789977D01*
X1247703Y789992D01*
X1247718D01*
X1247971Y790111D01*
X1248224Y790200D01*
X1248476Y790260D01*
X1248699Y790304D01*
X1248892Y790334D01*
X1249041Y790349D01*
X1249383D01*
X1249591Y790319D01*
D02*
G37*
G36*
X1263142Y780542D02*
X1261894D01*
Y788848D01*
X1259085Y780542D01*
X1257926D01*
X1255074Y788714D01*
Y780542D01*
X1253825D01*
Y790304D01*
X1255579D01*
X1257912Y783514D01*
X1258030Y783142D01*
X1258149Y782830D01*
X1258239Y782563D01*
X1258298Y782340D01*
X1258357Y782177D01*
X1258402Y782058D01*
X1258417Y781983D01*
X1258432Y781954D01*
X1258491Y782147D01*
X1258565Y782384D01*
X1258640Y782622D01*
X1258714Y782860D01*
X1258788Y783068D01*
X1258848Y783232D01*
X1258863Y783306D01*
X1258877Y783350D01*
X1258892Y783380D01*
Y783395D01*
X1261210Y790304D01*
X1263142D01*
Y780542D01*
D02*
G37*
G36*
X620614Y790334D02*
X620851Y790319D01*
X621297Y790230D01*
X621490Y790185D01*
X621684Y790126D01*
X621847Y790052D01*
X621996Y789992D01*
X622129Y789918D01*
X622248Y789859D01*
X622352Y789784D01*
X622441Y789740D01*
X622501Y789695D01*
X622545Y789651D01*
X622575Y789636D01*
X622590Y789621D01*
X622738Y789472D01*
X622857Y789324D01*
X623080Y788982D01*
X623244Y788640D01*
X623363Y788298D01*
X623452Y788001D01*
X623467Y787868D01*
X623496Y787749D01*
X623511Y787660D01*
X623526Y787585D01*
Y787541D01*
Y787526D01*
X622293Y787392D01*
X622263Y787719D01*
X622204Y788001D01*
X622129Y788239D01*
X622025Y788447D01*
X621936Y788610D01*
X621847Y788729D01*
X621788Y788789D01*
X621773Y788819D01*
X621565Y788997D01*
X621342Y789130D01*
X621104Y789220D01*
X620881Y789294D01*
X620688Y789324D01*
X620539Y789339D01*
X620480Y789353D01*
X620391D01*
X620094Y789339D01*
X619826Y789279D01*
X619603Y789205D01*
X619410Y789116D01*
X619262Y789012D01*
X619143Y788937D01*
X619083Y788878D01*
X619053Y788863D01*
X618875Y788670D01*
X618756Y788462D01*
X618667Y788269D01*
X618593Y788075D01*
X618563Y787912D01*
X618548Y787778D01*
X618533Y787689D01*
Y787674D01*
Y787660D01*
X618563Y787407D01*
X618623Y787139D01*
X618712Y786902D01*
X618816Y786679D01*
X618920Y786486D01*
X619009Y786337D01*
X619039Y786278D01*
X619068Y786233D01*
X619098Y786218D01*
Y786203D01*
X619217Y786055D01*
X619351Y785891D01*
X619499Y785728D01*
X619678Y785564D01*
X620034Y785223D01*
X620391Y784881D01*
X620718Y784598D01*
X620866Y784465D01*
X621000Y784361D01*
X621104Y784257D01*
X621178Y784197D01*
X621238Y784153D01*
X621253Y784138D01*
X621609Y783826D01*
X621936Y783543D01*
X622204Y783291D01*
X622426Y783083D01*
X622605Y782905D01*
X622724Y782771D01*
X622798Y782682D01*
X622828Y782667D01*
Y782652D01*
X623021Y782414D01*
X623169Y782191D01*
X623318Y781969D01*
X623422Y781775D01*
X623511Y781597D01*
X623571Y781478D01*
X623600Y781389D01*
X623615Y781374D01*
Y781359D01*
X623660Y781211D01*
X623704Y781062D01*
X623719Y780928D01*
X623734Y780809D01*
X623749Y780705D01*
Y780616D01*
Y780557D01*
Y780542D01*
X617285D01*
Y781686D01*
X622085D01*
X621921Y781924D01*
X621758Y782117D01*
X621684Y782206D01*
X621624Y782266D01*
X621594Y782310D01*
X621580Y782325D01*
X621505Y782399D01*
X621431Y782474D01*
X621238Y782652D01*
X621000Y782860D01*
X620777Y783068D01*
X620554Y783261D01*
X620376Y783410D01*
X620302Y783469D01*
X620242Y783514D01*
X620213Y783543D01*
X620198Y783558D01*
X619960Y783766D01*
X619752Y783945D01*
X619544Y784123D01*
X619366Y784286D01*
X619202Y784450D01*
X619053Y784584D01*
X618905Y784717D01*
X618786Y784836D01*
X618682Y784940D01*
X618593Y785029D01*
X618459Y785163D01*
X618385Y785252D01*
X618355Y785282D01*
X618162Y785520D01*
X617984Y785728D01*
X617850Y785936D01*
X617746Y786114D01*
X617657Y786263D01*
X617597Y786367D01*
X617568Y786441D01*
X617553Y786471D01*
X617464Y786679D01*
X617404Y786887D01*
X617360Y787080D01*
X617330Y787258D01*
X617315Y787407D01*
X617300Y787526D01*
Y787600D01*
Y787630D01*
X617315Y787838D01*
X617330Y788046D01*
X617434Y788417D01*
X617568Y788744D01*
X617716Y789026D01*
X617865Y789249D01*
X617939Y789339D01*
X617999Y789428D01*
X618058Y789487D01*
X618102Y789532D01*
X618117Y789547D01*
X618132Y789561D01*
X618296Y789695D01*
X618459Y789829D01*
X618637Y789933D01*
X618831Y790022D01*
X619202Y790156D01*
X619559Y790245D01*
X619722Y790290D01*
X619871Y790304D01*
X620005Y790319D01*
X620123Y790334D01*
X620227Y790349D01*
X620361D01*
X620614Y790334D01*
D02*
G37*
G36*
X634492Y780542D02*
X633244D01*
Y788848D01*
X630435Y780542D01*
X629277D01*
X626424Y788714D01*
Y780542D01*
X625175D01*
Y790304D01*
X626929D01*
X629262Y783514D01*
X629380Y783142D01*
X629499Y782830D01*
X629589Y782563D01*
X629648Y782340D01*
X629707Y782177D01*
X629752Y782058D01*
X629767Y781983D01*
X629782Y781954D01*
X629841Y782147D01*
X629915Y782384D01*
X629990Y782622D01*
X630064Y782860D01*
X630138Y783068D01*
X630198Y783232D01*
X630213Y783306D01*
X630228Y783350D01*
X630242Y783380D01*
Y783395D01*
X632560Y790304D01*
X634492D01*
Y780542D01*
D02*
G37*
G36*
X566650Y788841D02*
X566813Y788604D01*
X566991Y788381D01*
X567170Y788173D01*
X567333Y788009D01*
X567467Y787875D01*
X567556Y787786D01*
X567571Y787771D01*
X567586Y787757D01*
X567868Y787519D01*
X568165Y787296D01*
X568462Y787103D01*
X568730Y786939D01*
X568968Y786805D01*
X569072Y786761D01*
X569161Y786716D01*
X569220Y786672D01*
X569280Y786642D01*
X569309Y786627D01*
X569324D01*
Y785453D01*
X569116Y785543D01*
X568893Y785647D01*
X568685Y785736D01*
X568492Y785840D01*
X568329Y785929D01*
X568195Y786003D01*
X568106Y786063D01*
X568091Y786077D01*
X568076D01*
X567823Y786226D01*
X567601Y786389D01*
X567407Y786523D01*
X567244Y786657D01*
X567110Y786761D01*
X567006Y786835D01*
X566947Y786895D01*
X566932Y786909D01*
Y779272D01*
X565728D01*
Y789079D01*
X566516D01*
X566650Y788841D01*
D02*
G37*
G36*
X581152Y779272D02*
X579904D01*
Y787578D01*
X577095Y779272D01*
X575937D01*
X573084Y787444D01*
Y779272D01*
X571835D01*
Y789034D01*
X573589D01*
X575922Y782244D01*
X576040Y781872D01*
X576159Y781560D01*
X576249Y781293D01*
X576308Y781070D01*
X576367Y780907D01*
X576412Y780788D01*
X576427Y780713D01*
X576442Y780684D01*
X576501Y780877D01*
X576575Y781115D01*
X576650Y781352D01*
X576724Y781590D01*
X576798Y781798D01*
X576858Y781962D01*
X576873Y782036D01*
X576888Y782080D01*
X576902Y782110D01*
Y782125D01*
X579220Y789034D01*
X581152D01*
Y779272D01*
D02*
G37*
G36*
X1134887Y670306D02*
X1133654D01*
Y677973D01*
X1128528Y670306D01*
X1127205D01*
Y680068D01*
X1128439D01*
Y672401D01*
X1133580Y680068D01*
X1134887D01*
Y670306D01*
D02*
G37*
G36*
X1141455Y680202D02*
X1141931Y680143D01*
X1142376Y680039D01*
X1142570Y679979D01*
X1142748Y679935D01*
X1142911Y679875D01*
X1143060Y679816D01*
X1143194Y679771D01*
X1143298Y679712D01*
X1143372Y679682D01*
X1143446Y679652D01*
X1143476Y679623D01*
X1143491D01*
X1143699Y679504D01*
X1143877Y679370D01*
X1144234Y679088D01*
X1144516Y678791D01*
X1144769Y678493D01*
X1144947Y678211D01*
X1145021Y678107D01*
X1145096Y678003D01*
X1145140Y677914D01*
X1145170Y677854D01*
X1145200Y677810D01*
Y677795D01*
X1145393Y677334D01*
X1145541Y676859D01*
X1145645Y676413D01*
X1145720Y675997D01*
X1145749Y675819D01*
X1145764Y675655D01*
X1145779Y675507D01*
Y675373D01*
X1145794Y675269D01*
Y675195D01*
Y675150D01*
Y675135D01*
X1145764Y674615D01*
X1145705Y674125D01*
X1145601Y673679D01*
X1145556Y673471D01*
X1145497Y673293D01*
X1145437Y673114D01*
X1145393Y672966D01*
X1145333Y672832D01*
X1145289Y672728D01*
X1145259Y672639D01*
X1145229Y672579D01*
X1145200Y672535D01*
Y672520D01*
X1144947Y672119D01*
X1144665Y671762D01*
X1144382Y671450D01*
X1144085Y671198D01*
X1143833Y671004D01*
X1143729Y670930D01*
X1143625Y670871D01*
X1143550Y670811D01*
X1143476Y670781D01*
X1143446Y670767D01*
X1143431Y670752D01*
X1142986Y670544D01*
X1142525Y670395D01*
X1142094Y670291D01*
X1141678Y670217D01*
X1141500Y670187D01*
X1141336Y670172D01*
X1141188Y670157D01*
X1141054D01*
X1140950Y670143D01*
X1140816D01*
X1140430Y670157D01*
X1140044Y670202D01*
X1139702Y670261D01*
X1139390Y670336D01*
X1139256Y670365D01*
X1139122Y670395D01*
X1139018Y670425D01*
X1138929Y670455D01*
X1138855Y670484D01*
X1138795Y670499D01*
X1138766Y670514D01*
X1138751D01*
X1138379Y670677D01*
X1138008Y670856D01*
X1137681Y671049D01*
X1137384Y671227D01*
X1137131Y671406D01*
X1137027Y671465D01*
X1136938Y671539D01*
X1136864Y671584D01*
X1136819Y671628D01*
X1136789Y671643D01*
X1136775Y671658D01*
Y675284D01*
X1140905D01*
Y674140D01*
X1138038D01*
Y672297D01*
X1138216Y672163D01*
X1138409Y672030D01*
X1138602Y671911D01*
X1138795Y671807D01*
X1138974Y671718D01*
X1139122Y671658D01*
X1139182Y671628D01*
X1139226Y671614D01*
X1139241Y671599D01*
X1139256D01*
X1139553Y671495D01*
X1139850Y671420D01*
X1140133Y671361D01*
X1140370Y671331D01*
X1140579Y671302D01*
X1140742Y671287D01*
X1140891D01*
X1141247Y671302D01*
X1141589Y671346D01*
X1141886Y671420D01*
X1142168Y671495D01*
X1142391Y671569D01*
X1142495Y671614D01*
X1142570Y671643D01*
X1142629Y671658D01*
X1142674Y671688D01*
X1142703Y671703D01*
X1142718D01*
X1143015Y671881D01*
X1143283Y672089D01*
X1143506Y672312D01*
X1143684Y672520D01*
X1143818Y672713D01*
X1143922Y672862D01*
X1143966Y672921D01*
X1143996Y672966D01*
X1144011Y672996D01*
Y673010D01*
X1144159Y673367D01*
X1144264Y673724D01*
X1144353Y674095D01*
X1144397Y674452D01*
X1144412Y674600D01*
X1144427Y674749D01*
X1144442Y674883D01*
Y674987D01*
X1144457Y675091D01*
Y675150D01*
Y675195D01*
Y675210D01*
X1144442Y675596D01*
X1144397Y675967D01*
X1144338Y676294D01*
X1144264Y676591D01*
X1144204Y676829D01*
X1144174Y676933D01*
X1144145Y677007D01*
X1144115Y677082D01*
X1144100Y677126D01*
X1144085Y677156D01*
Y677171D01*
X1143996Y677364D01*
X1143907Y677542D01*
X1143803Y677706D01*
X1143699Y677854D01*
X1143610Y677973D01*
X1143535Y678062D01*
X1143491Y678122D01*
X1143476Y678137D01*
X1143313Y678300D01*
X1143149Y678434D01*
X1142971Y678553D01*
X1142807Y678657D01*
X1142659Y678746D01*
X1142540Y678805D01*
X1142466Y678835D01*
X1142436Y678850D01*
X1142183Y678939D01*
X1141931Y679013D01*
X1141663Y679058D01*
X1141425Y679102D01*
X1141217Y679117D01*
X1141054Y679132D01*
X1140905D01*
X1140638Y679117D01*
X1140385Y679088D01*
X1140162Y679043D01*
X1139969Y678998D01*
X1139806Y678954D01*
X1139672Y678909D01*
X1139598Y678880D01*
X1139568Y678865D01*
X1139345Y678761D01*
X1139167Y678657D01*
X1139003Y678538D01*
X1138870Y678434D01*
X1138766Y678330D01*
X1138691Y678256D01*
X1138647Y678196D01*
X1138632Y678181D01*
X1138513Y678003D01*
X1138409Y677810D01*
X1138320Y677617D01*
X1138246Y677438D01*
X1138186Y677260D01*
X1138127Y677126D01*
X1138112Y677037D01*
X1138097Y677022D01*
Y677007D01*
X1136923Y677334D01*
X1137027Y677691D01*
X1137146Y678003D01*
X1137265Y678270D01*
X1137384Y678493D01*
X1137503Y678687D01*
X1137592Y678820D01*
X1137651Y678895D01*
X1137666Y678924D01*
X1137859Y679147D01*
X1138082Y679325D01*
X1138305Y679489D01*
X1138528Y679623D01*
X1138721Y679742D01*
X1138870Y679816D01*
X1138929Y679846D01*
X1138974Y679860D01*
X1139003Y679875D01*
X1139018D01*
X1139345Y679994D01*
X1139672Y680083D01*
X1139999Y680143D01*
X1140281Y680187D01*
X1140534Y680217D01*
X1140653D01*
X1140742Y680232D01*
X1140920D01*
X1141455Y680202D01*
D02*
G37*
G36*
X1125036Y670306D02*
X1121529D01*
X1121202Y670321D01*
X1120905Y670336D01*
X1120638Y670365D01*
X1120415Y670395D01*
X1120222Y670425D01*
X1120088Y670440D01*
X1119999Y670469D01*
X1119969D01*
X1119716Y670544D01*
X1119494Y670618D01*
X1119300Y670692D01*
X1119137Y670767D01*
X1119003Y670841D01*
X1118899Y670900D01*
X1118825Y670930D01*
X1118810Y670945D01*
X1118632Y671079D01*
X1118468Y671227D01*
X1118305Y671376D01*
X1118186Y671510D01*
X1118067Y671643D01*
X1117993Y671747D01*
X1117933Y671807D01*
X1117918Y671836D01*
X1117770Y672059D01*
X1117636Y672297D01*
X1117517Y672535D01*
X1117428Y672758D01*
X1117354Y672966D01*
X1117294Y673114D01*
X1117280Y673174D01*
X1117265Y673218D01*
X1117250Y673248D01*
Y673263D01*
X1117161Y673590D01*
X1117101Y673932D01*
X1117042Y674273D01*
X1117012Y674570D01*
X1116997Y674838D01*
Y674957D01*
X1116982Y675046D01*
Y675135D01*
Y675195D01*
Y675224D01*
Y675239D01*
X1116997Y675715D01*
X1117042Y676146D01*
X1117101Y676532D01*
X1117146Y676710D01*
X1117176Y676874D01*
X1117205Y677022D01*
X1117250Y677156D01*
X1117280Y677275D01*
X1117309Y677364D01*
X1117339Y677438D01*
X1117354Y677498D01*
X1117369Y677527D01*
Y677542D01*
X1117532Y677914D01*
X1117710Y678241D01*
X1117904Y678523D01*
X1118097Y678761D01*
X1118260Y678954D01*
X1118394Y679102D01*
X1118498Y679192D01*
X1118513Y679221D01*
X1118528D01*
X1118765Y679400D01*
X1119003Y679548D01*
X1119241Y679667D01*
X1119464Y679756D01*
X1119657Y679831D01*
X1119820Y679875D01*
X1119880Y679905D01*
X1119910D01*
X1119939Y679920D01*
X1119954D01*
X1120192Y679964D01*
X1120474Y680009D01*
X1120771Y680039D01*
X1121039Y680053D01*
X1121292Y680068D01*
X1125036D01*
Y670306D01*
D02*
G37*
G36*
X1227022Y722620D02*
X1227468Y722561D01*
X1227869Y722457D01*
X1228047Y722412D01*
X1228211Y722353D01*
X1228359Y722293D01*
X1228508Y722249D01*
X1228627Y722189D01*
X1228716Y722145D01*
X1228805Y722115D01*
X1228865Y722085D01*
X1228894Y722056D01*
X1228909D01*
X1229281Y721818D01*
X1229622Y721535D01*
X1229905Y721253D01*
X1230128Y720971D01*
X1230321Y720718D01*
X1230395Y720614D01*
X1230454Y720525D01*
X1230499Y720436D01*
X1230529Y720376D01*
X1230558Y720347D01*
Y720332D01*
X1230752Y719901D01*
X1230900Y719440D01*
X1230989Y718995D01*
X1231064Y718578D01*
X1231093Y718385D01*
X1231108Y718222D01*
X1231123Y718058D01*
Y717925D01*
X1231138Y717821D01*
Y717746D01*
Y717687D01*
Y717672D01*
X1231123Y717152D01*
X1231064Y716676D01*
X1230975Y716231D01*
X1230930Y716023D01*
X1230885Y715844D01*
X1230841Y715666D01*
X1230796Y715518D01*
X1230752Y715384D01*
X1230707Y715265D01*
X1230677Y715176D01*
X1230648Y715116D01*
X1230633Y715072D01*
Y715057D01*
X1230425Y714626D01*
X1230172Y714255D01*
X1229934Y713928D01*
X1229682Y713675D01*
X1229474Y713467D01*
X1229296Y713318D01*
X1229221Y713274D01*
X1229177Y713229D01*
X1229147Y713214D01*
X1229132Y713199D01*
X1228939Y713081D01*
X1228731Y712991D01*
X1228315Y712828D01*
X1227884Y712724D01*
X1227468Y712635D01*
X1227290Y712620D01*
X1227111Y712590D01*
X1226963Y712575D01*
X1226829D01*
X1226710Y712561D01*
X1226561D01*
X1226279Y712575D01*
X1226012Y712590D01*
X1225521Y712694D01*
X1225298Y712754D01*
X1225076Y712828D01*
X1224882Y712902D01*
X1224704Y712977D01*
X1224541Y713051D01*
X1224407Y713125D01*
X1224288Y713199D01*
X1224184Y713259D01*
X1224095Y713318D01*
X1224035Y713363D01*
X1224006Y713378D01*
X1223991Y713393D01*
X1223798Y713556D01*
X1223619Y713734D01*
X1223322Y714121D01*
X1223055Y714522D01*
X1222861Y714923D01*
X1222772Y715101D01*
X1222713Y715265D01*
X1222654Y715428D01*
X1222594Y715547D01*
X1222564Y715666D01*
X1222535Y715740D01*
X1222520Y715800D01*
Y715815D01*
X1223812Y716142D01*
X1223931Y715711D01*
X1224080Y715324D01*
X1224258Y715012D01*
X1224422Y714745D01*
X1224585Y714552D01*
X1224719Y714403D01*
X1224808Y714314D01*
X1224823Y714299D01*
X1224838Y714284D01*
X1225135Y714076D01*
X1225432Y713928D01*
X1225744Y713809D01*
X1226027Y713734D01*
X1226279Y713690D01*
X1226398Y713675D01*
X1226487D01*
X1226561Y713660D01*
X1226665D01*
X1226992Y713675D01*
X1227304Y713734D01*
X1227587Y713809D01*
X1227824Y713883D01*
X1228033Y713972D01*
X1228196Y714032D01*
X1228255Y714061D01*
X1228300Y714091D01*
X1228315Y714106D01*
X1228330D01*
X1228597Y714299D01*
X1228820Y714522D01*
X1229013Y714745D01*
X1229177Y714983D01*
X1229296Y715176D01*
X1229370Y715354D01*
X1229399Y715414D01*
X1229429Y715458D01*
X1229444Y715488D01*
Y715503D01*
X1229563Y715859D01*
X1229652Y716231D01*
X1229712Y716602D01*
X1229756Y716944D01*
X1229771Y717093D01*
X1229786Y717226D01*
Y717360D01*
X1229801Y717464D01*
Y717553D01*
Y717613D01*
Y717657D01*
Y717672D01*
X1229786Y718029D01*
X1229756Y718370D01*
X1229712Y718682D01*
X1229652Y718965D01*
X1229593Y719202D01*
X1229578Y719306D01*
X1229548Y719381D01*
X1229533Y719455D01*
X1229518Y719500D01*
X1229503Y719529D01*
Y719544D01*
X1229370Y719871D01*
X1229206Y720168D01*
X1229028Y720406D01*
X1228865Y720614D01*
X1228701Y720778D01*
X1228567Y720896D01*
X1228478Y720971D01*
X1228463Y721001D01*
X1228448D01*
X1228151Y721179D01*
X1227839Y721312D01*
X1227527Y721416D01*
X1227230Y721476D01*
X1226963Y721520D01*
X1226859Y721535D01*
X1226755D01*
X1226680Y721550D01*
X1226576D01*
X1226220Y721535D01*
X1225908Y721476D01*
X1225625Y721402D01*
X1225402Y721312D01*
X1225209Y721208D01*
X1225076Y721134D01*
X1224986Y721075D01*
X1224957Y721060D01*
X1224719Y720852D01*
X1224526Y720614D01*
X1224347Y720347D01*
X1224214Y720094D01*
X1224110Y719871D01*
X1224065Y719767D01*
X1224020Y719678D01*
X1223991Y719604D01*
X1223976Y719544D01*
X1223961Y719515D01*
Y719500D01*
X1222683Y719797D01*
X1222861Y720272D01*
X1222965Y720495D01*
X1223070Y720688D01*
X1223188Y720882D01*
X1223307Y721060D01*
X1223411Y721208D01*
X1223530Y721357D01*
X1223634Y721476D01*
X1223738Y721580D01*
X1223842Y721684D01*
X1223916Y721758D01*
X1223991Y721818D01*
X1224035Y721862D01*
X1224065Y721877D01*
X1224080Y721892D01*
X1224273Y722026D01*
X1224466Y722145D01*
X1224674Y722249D01*
X1224882Y722338D01*
X1225298Y722471D01*
X1225685Y722561D01*
X1225863Y722590D01*
X1226027Y722605D01*
X1226175Y722620D01*
X1226294Y722635D01*
X1226398Y722650D01*
X1226547D01*
X1227022Y722620D01*
D02*
G37*
G36*
X1218493Y722516D02*
X1218701Y722501D01*
X1219102Y722412D01*
X1219459Y722308D01*
X1219741Y722174D01*
X1219875Y722100D01*
X1219979Y722041D01*
X1220068Y721966D01*
X1220157Y721922D01*
X1220217Y721877D01*
X1220261Y721833D01*
X1220276Y721818D01*
X1220291Y721803D01*
X1220425Y721669D01*
X1220544Y721520D01*
X1220648Y721372D01*
X1220722Y721208D01*
X1220870Y720911D01*
X1220960Y720629D01*
X1221004Y720376D01*
X1221019Y720272D01*
X1221034Y720183D01*
X1221049Y720109D01*
Y720050D01*
Y720020D01*
Y720005D01*
X1221034Y719752D01*
X1220989Y719529D01*
X1220930Y719321D01*
X1220870Y719143D01*
X1220811Y718995D01*
X1220752Y718891D01*
X1220707Y718831D01*
X1220692Y718801D01*
X1220544Y718623D01*
X1220365Y718474D01*
X1220187Y718341D01*
X1219994Y718222D01*
X1219830Y718148D01*
X1219697Y718073D01*
X1219607Y718044D01*
X1219593Y718029D01*
X1219578D01*
X1219890Y717925D01*
X1220172Y717791D01*
X1220410Y717642D01*
X1220603Y717494D01*
X1220752Y717360D01*
X1220870Y717241D01*
X1220930Y717167D01*
X1220960Y717152D01*
Y717137D01*
X1221123Y716885D01*
X1221227Y716617D01*
X1221316Y716350D01*
X1221376Y716097D01*
X1221405Y715889D01*
X1221420Y715785D01*
Y715711D01*
X1221435Y715636D01*
Y715592D01*
Y715562D01*
Y715547D01*
X1221420Y715310D01*
X1221391Y715087D01*
X1221361Y714879D01*
X1221301Y714670D01*
X1221153Y714314D01*
X1221078Y714150D01*
X1220989Y714002D01*
X1220915Y713868D01*
X1220841Y713749D01*
X1220766Y713645D01*
X1220692Y713556D01*
X1220633Y713497D01*
X1220603Y713452D01*
X1220573Y713422D01*
X1220558Y713408D01*
X1220380Y713259D01*
X1220202Y713125D01*
X1220009Y713021D01*
X1219815Y712917D01*
X1219622Y712843D01*
X1219429Y712769D01*
X1219058Y712665D01*
X1218879Y712635D01*
X1218731Y712605D01*
X1218582Y712590D01*
X1218463Y712575D01*
X1218359Y712561D01*
X1218225D01*
X1217958Y712575D01*
X1217706Y712590D01*
X1217468Y712635D01*
X1217260Y712694D01*
X1217052Y712754D01*
X1216859Y712828D01*
X1216680Y712902D01*
X1216517Y712991D01*
X1216368Y713066D01*
X1216249Y713140D01*
X1216145Y713214D01*
X1216056Y713274D01*
X1215982Y713333D01*
X1215937Y713378D01*
X1215908Y713393D01*
X1215893Y713408D01*
X1215729Y713571D01*
X1215595Y713734D01*
X1215477Y713913D01*
X1215373Y714091D01*
X1215283Y714269D01*
X1215224Y714448D01*
X1215105Y714774D01*
X1215046Y715072D01*
X1215031Y715206D01*
X1215016Y715310D01*
X1215001Y715399D01*
Y715458D01*
Y715503D01*
Y715518D01*
X1215016Y715844D01*
X1215075Y716142D01*
X1215150Y716409D01*
X1215239Y716632D01*
X1215328Y716825D01*
X1215402Y716959D01*
X1215462Y717048D01*
X1215477Y717078D01*
X1215670Y717301D01*
X1215893Y717509D01*
X1216116Y717672D01*
X1216338Y717806D01*
X1216532Y717895D01*
X1216695Y717969D01*
X1216755Y717999D01*
X1216799Y718014D01*
X1216829Y718029D01*
X1216844D01*
X1216591Y718133D01*
X1216368Y718266D01*
X1216175Y718385D01*
X1216026Y718504D01*
X1215908Y718623D01*
X1215818Y718712D01*
X1215774Y718772D01*
X1215759Y718786D01*
X1215640Y718980D01*
X1215551Y719188D01*
X1215491Y719381D01*
X1215447Y719574D01*
X1215417Y719737D01*
X1215402Y719856D01*
Y719946D01*
Y719975D01*
X1215417Y720168D01*
X1215432Y720361D01*
X1215521Y720703D01*
X1215655Y721015D01*
X1215789Y721283D01*
X1215937Y721491D01*
X1216012Y721580D01*
X1216071Y721654D01*
X1216116Y721714D01*
X1216160Y721758D01*
X1216175Y721773D01*
X1216190Y721788D01*
X1216338Y721922D01*
X1216502Y722041D01*
X1216665Y722130D01*
X1216844Y722219D01*
X1217185Y722353D01*
X1217512Y722442D01*
X1217810Y722486D01*
X1217928Y722516D01*
X1218047D01*
X1218136Y722531D01*
X1218255D01*
X1218493Y722516D01*
D02*
G37*
G36*
X1187144Y721096D02*
X1187590Y721037D01*
X1187991Y720933D01*
X1188169Y720888D01*
X1188333Y720829D01*
X1188481Y720769D01*
X1188630Y720725D01*
X1188749Y720665D01*
X1188838Y720621D01*
X1188927Y720591D01*
X1188987Y720561D01*
X1189016Y720531D01*
X1189031D01*
X1189403Y720294D01*
X1189744Y720011D01*
X1190027Y719729D01*
X1190250Y719447D01*
X1190443Y719194D01*
X1190517Y719090D01*
X1190576Y719001D01*
X1190621Y718912D01*
X1190651Y718852D01*
X1190680Y718823D01*
Y718808D01*
X1190874Y718377D01*
X1191022Y717916D01*
X1191111Y717470D01*
X1191186Y717054D01*
X1191215Y716861D01*
X1191230Y716698D01*
X1191245Y716534D01*
Y716401D01*
X1191260Y716297D01*
Y716222D01*
Y716163D01*
Y716148D01*
X1191245Y715628D01*
X1191186Y715153D01*
X1191097Y714707D01*
X1191052Y714499D01*
X1191007Y714320D01*
X1190963Y714142D01*
X1190918Y713994D01*
X1190874Y713860D01*
X1190829Y713741D01*
X1190799Y713652D01*
X1190770Y713592D01*
X1190755Y713548D01*
Y713533D01*
X1190547Y713102D01*
X1190294Y712730D01*
X1190056Y712404D01*
X1189804Y712151D01*
X1189596Y711943D01*
X1189417Y711794D01*
X1189343Y711750D01*
X1189299Y711705D01*
X1189269Y711690D01*
X1189254Y711675D01*
X1189061Y711557D01*
X1188853Y711468D01*
X1188437Y711304D01*
X1188006Y711200D01*
X1187590Y711111D01*
X1187411Y711096D01*
X1187233Y711066D01*
X1187085Y711051D01*
X1186951D01*
X1186832Y711037D01*
X1186683D01*
X1186401Y711051D01*
X1186134Y711066D01*
X1185643Y711170D01*
X1185420Y711230D01*
X1185198Y711304D01*
X1185004Y711378D01*
X1184826Y711453D01*
X1184663Y711527D01*
X1184529Y711601D01*
X1184410Y711675D01*
X1184306Y711735D01*
X1184217Y711794D01*
X1184157Y711839D01*
X1184128Y711854D01*
X1184113Y711869D01*
X1183920Y712032D01*
X1183741Y712210D01*
X1183444Y712597D01*
X1183177Y712998D01*
X1182983Y713399D01*
X1182894Y713577D01*
X1182835Y713741D01*
X1182775Y713904D01*
X1182716Y714023D01*
X1182686Y714142D01*
X1182657Y714216D01*
X1182642Y714276D01*
Y714291D01*
X1183934Y714618D01*
X1184053Y714187D01*
X1184202Y713800D01*
X1184380Y713488D01*
X1184544Y713221D01*
X1184707Y713028D01*
X1184841Y712879D01*
X1184930Y712790D01*
X1184945Y712775D01*
X1184960Y712760D01*
X1185257Y712552D01*
X1185554Y712404D01*
X1185866Y712285D01*
X1186149Y712210D01*
X1186401Y712166D01*
X1186520Y712151D01*
X1186609D01*
X1186683Y712136D01*
X1186787D01*
X1187114Y712151D01*
X1187426Y712210D01*
X1187709Y712285D01*
X1187946Y712359D01*
X1188155Y712448D01*
X1188318Y712508D01*
X1188377Y712537D01*
X1188422Y712567D01*
X1188437Y712582D01*
X1188452D01*
X1188719Y712775D01*
X1188942Y712998D01*
X1189135Y713221D01*
X1189299Y713459D01*
X1189417Y713652D01*
X1189492Y713830D01*
X1189521Y713889D01*
X1189551Y713934D01*
X1189566Y713964D01*
Y713979D01*
X1189685Y714335D01*
X1189774Y714707D01*
X1189834Y715078D01*
X1189878Y715420D01*
X1189893Y715568D01*
X1189908Y715702D01*
Y715836D01*
X1189923Y715940D01*
Y716029D01*
Y716089D01*
Y716133D01*
Y716148D01*
X1189908Y716505D01*
X1189878Y716846D01*
X1189834Y717159D01*
X1189774Y717441D01*
X1189715Y717679D01*
X1189700Y717783D01*
X1189670Y717857D01*
X1189655Y717931D01*
X1189640Y717976D01*
X1189625Y718005D01*
Y718020D01*
X1189492Y718347D01*
X1189328Y718644D01*
X1189150Y718882D01*
X1188987Y719090D01*
X1188823Y719254D01*
X1188689Y719372D01*
X1188600Y719447D01*
X1188585Y719476D01*
X1188570D01*
X1188273Y719655D01*
X1187961Y719789D01*
X1187649Y719893D01*
X1187352Y719952D01*
X1187085Y719996D01*
X1186981Y720011D01*
X1186877D01*
X1186802Y720026D01*
X1186698D01*
X1186342Y720011D01*
X1186030Y719952D01*
X1185747Y719878D01*
X1185524Y719789D01*
X1185331Y719685D01*
X1185198Y719610D01*
X1185108Y719551D01*
X1185079Y719536D01*
X1184841Y719328D01*
X1184648Y719090D01*
X1184469Y718823D01*
X1184336Y718570D01*
X1184232Y718347D01*
X1184187Y718243D01*
X1184143Y718154D01*
X1184113Y718080D01*
X1184098Y718020D01*
X1184083Y717991D01*
Y717976D01*
X1182805Y718273D01*
X1182983Y718748D01*
X1183088Y718971D01*
X1183192Y719164D01*
X1183310Y719358D01*
X1183429Y719536D01*
X1183533Y719685D01*
X1183652Y719833D01*
X1183756Y719952D01*
X1183860Y720056D01*
X1183964Y720160D01*
X1184038Y720234D01*
X1184113Y720294D01*
X1184157Y720338D01*
X1184187Y720353D01*
X1184202Y720368D01*
X1184395Y720502D01*
X1184588Y720621D01*
X1184796Y720725D01*
X1185004Y720814D01*
X1185420Y720947D01*
X1185807Y721037D01*
X1185985Y721066D01*
X1186149Y721081D01*
X1186297Y721096D01*
X1186416Y721111D01*
X1186520Y721126D01*
X1186669D01*
X1187144Y721096D01*
D02*
G37*
G36*
X1181468Y719699D02*
X1176683D01*
X1177025Y719283D01*
X1177337Y718852D01*
X1177634Y718421D01*
X1177902Y718020D01*
X1178006Y717827D01*
X1178110Y717664D01*
X1178199Y717515D01*
X1178273Y717381D01*
X1178333Y717277D01*
X1178377Y717203D01*
X1178407Y717144D01*
X1178422Y717129D01*
X1178704Y716564D01*
X1178957Y716000D01*
X1179165Y715464D01*
X1179254Y715212D01*
X1179343Y714989D01*
X1179417Y714766D01*
X1179477Y714573D01*
X1179536Y714409D01*
X1179581Y714261D01*
X1179611Y714142D01*
X1179640Y714053D01*
X1179655Y713994D01*
Y713979D01*
X1179804Y713384D01*
X1179863Y713117D01*
X1179908Y712849D01*
X1179952Y712612D01*
X1179982Y712389D01*
X1180012Y712166D01*
X1180042Y711973D01*
X1180056Y711809D01*
X1180071Y711646D01*
X1180086Y711512D01*
Y711408D01*
X1180101Y711319D01*
Y711259D01*
Y711215D01*
Y711200D01*
X1178868D01*
X1178823Y711735D01*
X1178764Y712240D01*
X1178689Y712686D01*
X1178645Y712894D01*
X1178615Y713087D01*
X1178570Y713251D01*
X1178541Y713414D01*
X1178511Y713548D01*
X1178481Y713667D01*
X1178452Y713756D01*
X1178437Y713815D01*
X1178422Y713860D01*
Y713875D01*
X1178214Y714528D01*
X1177991Y715138D01*
X1177872Y715435D01*
X1177753Y715717D01*
X1177634Y715985D01*
X1177530Y716222D01*
X1177426Y716445D01*
X1177322Y716653D01*
X1177233Y716832D01*
X1177159Y716980D01*
X1177099Y717099D01*
X1177055Y717188D01*
X1177025Y717248D01*
X1177010Y717262D01*
X1176832Y717560D01*
X1176668Y717857D01*
X1176490Y718124D01*
X1176327Y718377D01*
X1176178Y718615D01*
X1176015Y718823D01*
X1175866Y719031D01*
X1175732Y719209D01*
X1175613Y719358D01*
X1175495Y719506D01*
X1175391Y719625D01*
X1175316Y719729D01*
X1175242Y719803D01*
X1175197Y719863D01*
X1175168Y719893D01*
X1175153Y719907D01*
Y720844D01*
X1181468D01*
Y719699D01*
D02*
G37*
G36*
X495625Y705752D02*
X495893Y705722D01*
X496145Y705663D01*
X496383Y705589D01*
X496606Y705499D01*
X496799Y705410D01*
X496992Y705306D01*
X497156Y705202D01*
X497304Y705098D01*
X497438Y704994D01*
X497542Y704905D01*
X497646Y704816D01*
X497720Y704742D01*
X497765Y704682D01*
X497795Y704652D01*
X497809Y704638D01*
X497988Y704385D01*
X498151Y704088D01*
X498285Y703791D01*
X498404Y703449D01*
X498508Y703122D01*
X498597Y702780D01*
X498671Y702439D01*
X498716Y702097D01*
X498760Y701785D01*
X498790Y701488D01*
X498820Y701220D01*
X498835Y700982D01*
X498850Y700789D01*
Y700641D01*
Y700596D01*
Y700551D01*
Y700537D01*
Y700522D01*
X498835Y700061D01*
X498805Y699645D01*
X498760Y699244D01*
X498701Y698887D01*
X498627Y698560D01*
X498553Y698263D01*
X498463Y697996D01*
X498374Y697758D01*
X498300Y697550D01*
X498211Y697372D01*
X498136Y697223D01*
X498062Y697104D01*
X498003Y697015D01*
X497958Y696956D01*
X497928Y696911D01*
X497914Y696896D01*
X497735Y696703D01*
X497542Y696540D01*
X497334Y696391D01*
X497126Y696257D01*
X496918Y696153D01*
X496725Y696064D01*
X496517Y695990D01*
X496324Y695930D01*
X496145Y695886D01*
X495982Y695856D01*
X495833Y695826D01*
X495714Y695811D01*
X495610D01*
X495521Y695797D01*
X495462D01*
X495150Y695811D01*
X494853Y695856D01*
X494585Y695930D01*
X494347Y696005D01*
X494169Y696079D01*
X494021Y696153D01*
X493931Y696198D01*
X493902Y696213D01*
X493649Y696391D01*
X493441Y696584D01*
X493248Y696777D01*
X493084Y696970D01*
X492966Y697149D01*
X492876Y697282D01*
X492847Y697342D01*
X492817Y697386D01*
X492802Y697401D01*
Y697416D01*
X492668Y697713D01*
X492564Y698010D01*
X492505Y698308D01*
X492445Y698560D01*
X492416Y698798D01*
Y698887D01*
X492401Y698976D01*
Y699036D01*
Y699080D01*
Y699110D01*
Y699125D01*
X492416Y699378D01*
X492431Y699630D01*
X492475Y699853D01*
X492535Y700076D01*
X492594Y700269D01*
X492668Y700462D01*
X492743Y700626D01*
X492817Y700789D01*
X492906Y700923D01*
X492980Y701042D01*
X493055Y701146D01*
X493114Y701235D01*
X493173Y701309D01*
X493218Y701354D01*
X493233Y701384D01*
X493248Y701398D01*
X493411Y701562D01*
X493575Y701696D01*
X493753Y701814D01*
X493931Y701918D01*
X494095Y702008D01*
X494273Y702067D01*
X494585Y702186D01*
X494867Y702245D01*
X494986Y702260D01*
X495090Y702275D01*
X495179Y702290D01*
X495298D01*
X495551Y702275D01*
X495789Y702245D01*
X496012Y702186D01*
X496205Y702126D01*
X496368Y702067D01*
X496502Y702008D01*
X496576Y701978D01*
X496606Y701963D01*
X496829Y701829D01*
X497037Y701681D01*
X497215Y701517D01*
X497364Y701354D01*
X497497Y701205D01*
X497587Y701086D01*
X497646Y701012D01*
X497661Y700997D01*
Y701250D01*
X497646Y701502D01*
X497631Y701740D01*
X497616Y701963D01*
X497587Y702156D01*
X497557Y702349D01*
X497527Y702513D01*
X497497Y702661D01*
X497468Y702795D01*
X497438Y702914D01*
X497408Y703018D01*
X497379Y703092D01*
X497364Y703152D01*
X497349Y703211D01*
X497334Y703226D01*
Y703241D01*
X497200Y703523D01*
X497052Y703776D01*
X496903Y703984D01*
X496754Y704147D01*
X496636Y704281D01*
X496532Y704385D01*
X496472Y704445D01*
X496442Y704459D01*
X496264Y704563D01*
X496101Y704652D01*
X495922Y704712D01*
X495759Y704742D01*
X495625Y704771D01*
X495521Y704786D01*
X495417D01*
X495165Y704771D01*
X494927Y704712D01*
X494719Y704623D01*
X494540Y704534D01*
X494407Y704430D01*
X494303Y704355D01*
X494229Y704296D01*
X494214Y704266D01*
X494110Y704132D01*
X494021Y703984D01*
X493872Y703642D01*
X493827Y703493D01*
X493783Y703375D01*
X493753Y703286D01*
Y703271D01*
Y703256D01*
X492564Y703345D01*
X492639Y703746D01*
X492772Y704103D01*
X492906Y704400D01*
X493069Y704652D01*
X493218Y704846D01*
X493337Y704994D01*
X493426Y705083D01*
X493441Y705113D01*
X493456D01*
X493604Y705232D01*
X493753Y705336D01*
X494065Y705485D01*
X494377Y705603D01*
X494674Y705693D01*
X494942Y705737D01*
X495061Y705752D01*
X495150D01*
X495239Y705767D01*
X495343D01*
X495625Y705752D01*
D02*
G37*
G36*
X504392Y705856D02*
X504838Y705797D01*
X505239Y705693D01*
X505417Y705648D01*
X505581Y705589D01*
X505729Y705529D01*
X505878Y705485D01*
X505997Y705425D01*
X506086Y705381D01*
X506175Y705351D01*
X506235Y705321D01*
X506264Y705292D01*
X506279D01*
X506651Y705054D01*
X506992Y704771D01*
X507275Y704489D01*
X507498Y704207D01*
X507691Y703954D01*
X507765Y703850D01*
X507825Y703761D01*
X507869Y703672D01*
X507899Y703612D01*
X507929Y703583D01*
Y703568D01*
X508122Y703137D01*
X508270Y702676D01*
X508359Y702231D01*
X508434Y701814D01*
X508463Y701621D01*
X508478Y701458D01*
X508493Y701294D01*
Y701161D01*
X508508Y701057D01*
Y700982D01*
Y700923D01*
Y700908D01*
X508493Y700388D01*
X508434Y699912D01*
X508345Y699467D01*
X508300Y699259D01*
X508255Y699080D01*
X508211Y698902D01*
X508166Y698754D01*
X508122Y698620D01*
X508077Y698501D01*
X508047Y698412D01*
X508018Y698352D01*
X508003Y698308D01*
Y698293D01*
X507795Y697862D01*
X507542Y697490D01*
X507304Y697164D01*
X507052Y696911D01*
X506844Y696703D01*
X506665Y696554D01*
X506591Y696510D01*
X506547Y696465D01*
X506517Y696450D01*
X506502Y696435D01*
X506309Y696317D01*
X506101Y696227D01*
X505685Y696064D01*
X505254Y695960D01*
X504838Y695871D01*
X504660Y695856D01*
X504481Y695826D01*
X504333Y695811D01*
X504199D01*
X504080Y695797D01*
X503931D01*
X503649Y695811D01*
X503382Y695826D01*
X502891Y695930D01*
X502668Y695990D01*
X502445Y696064D01*
X502252Y696138D01*
X502074Y696213D01*
X501911Y696287D01*
X501777Y696361D01*
X501658Y696435D01*
X501554Y696495D01*
X501465Y696554D01*
X501405Y696599D01*
X501376Y696614D01*
X501361Y696629D01*
X501168Y696792D01*
X500989Y696970D01*
X500692Y697357D01*
X500425Y697758D01*
X500232Y698159D01*
X500142Y698337D01*
X500083Y698501D01*
X500023Y698664D01*
X499964Y698783D01*
X499934Y698902D01*
X499905Y698976D01*
X499890Y699036D01*
Y699051D01*
X501183Y699378D01*
X501301Y698947D01*
X501450Y698560D01*
X501628Y698248D01*
X501792Y697981D01*
X501955Y697788D01*
X502089Y697639D01*
X502178Y697550D01*
X502193Y697535D01*
X502208Y697520D01*
X502505Y697312D01*
X502802Y697164D01*
X503114Y697045D01*
X503396Y696970D01*
X503649Y696926D01*
X503768Y696911D01*
X503857D01*
X503931Y696896D01*
X504035D01*
X504362Y696911D01*
X504674Y696970D01*
X504957Y697045D01*
X505194Y697119D01*
X505402Y697208D01*
X505566Y697268D01*
X505625Y697297D01*
X505670Y697327D01*
X505685Y697342D01*
X505700D01*
X505967Y697535D01*
X506190Y697758D01*
X506383Y697981D01*
X506547Y698219D01*
X506665Y698412D01*
X506740Y698590D01*
X506769Y698650D01*
X506799Y698694D01*
X506814Y698724D01*
Y698739D01*
X506933Y699095D01*
X507022Y699467D01*
X507081Y699838D01*
X507126Y700180D01*
X507141Y700329D01*
X507156Y700462D01*
Y700596D01*
X507171Y700700D01*
Y700789D01*
Y700849D01*
Y700893D01*
Y700908D01*
X507156Y701265D01*
X507126Y701606D01*
X507081Y701918D01*
X507022Y702201D01*
X506963Y702439D01*
X506948Y702542D01*
X506918Y702617D01*
X506903Y702691D01*
X506888Y702736D01*
X506874Y702765D01*
Y702780D01*
X506740Y703107D01*
X506576Y703404D01*
X506398Y703642D01*
X506235Y703850D01*
X506071Y704014D01*
X505937Y704132D01*
X505848Y704207D01*
X505833Y704237D01*
X505818D01*
X505521Y704415D01*
X505209Y704548D01*
X504897Y704652D01*
X504600Y704712D01*
X504333Y704756D01*
X504229Y704771D01*
X504125D01*
X504050Y704786D01*
X503946D01*
X503590Y704771D01*
X503278Y704712D01*
X502995Y704638D01*
X502772Y704548D01*
X502579Y704445D01*
X502445Y704370D01*
X502356Y704311D01*
X502327Y704296D01*
X502089Y704088D01*
X501896Y703850D01*
X501717Y703583D01*
X501584Y703330D01*
X501480Y703107D01*
X501435Y703003D01*
X501390Y702914D01*
X501361Y702840D01*
X501346Y702780D01*
X501331Y702751D01*
Y702736D01*
X500053Y703033D01*
X500232Y703508D01*
X500336Y703731D01*
X500440Y703924D01*
X500558Y704118D01*
X500677Y704296D01*
X500781Y704445D01*
X500900Y704593D01*
X501004Y704712D01*
X501108Y704816D01*
X501212Y704920D01*
X501287Y704994D01*
X501361Y705054D01*
X501405Y705098D01*
X501435Y705113D01*
X501450Y705128D01*
X501643Y705262D01*
X501836Y705381D01*
X502044Y705485D01*
X502252Y705574D01*
X502668Y705707D01*
X503055Y705797D01*
X503233Y705826D01*
X503396Y705841D01*
X503545Y705856D01*
X503664Y705871D01*
X503768Y705886D01*
X503917D01*
X504392Y705856D01*
D02*
G37*
G36*
X461244Y695994D02*
X460115Y695831D01*
X460011Y695979D01*
X459892Y696113D01*
X459773Y696232D01*
X459669Y696336D01*
X459565Y696410D01*
X459476Y696470D01*
X459417Y696499D01*
X459402Y696514D01*
X459223Y696603D01*
X459045Y696678D01*
X458867Y696722D01*
X458703Y696767D01*
X458555Y696782D01*
X458451Y696797D01*
X458347D01*
X458020Y696767D01*
X457723Y696708D01*
X457455Y696603D01*
X457247Y696499D01*
X457069Y696395D01*
X456950Y696292D01*
X456876Y696232D01*
X456846Y696202D01*
X456653Y695965D01*
X456504Y695697D01*
X456400Y695430D01*
X456341Y695177D01*
X456296Y694939D01*
X456281Y694835D01*
Y694746D01*
X456266Y694687D01*
Y694627D01*
Y694597D01*
Y694583D01*
X456296Y694196D01*
X456356Y693855D01*
X456460Y693557D01*
X456564Y693305D01*
X456668Y693112D01*
X456772Y692963D01*
X456831Y692874D01*
X456861Y692859D01*
Y692844D01*
X456980Y692725D01*
X457099Y692636D01*
X457336Y692473D01*
X457589Y692369D01*
X457812Y692280D01*
X458020Y692235D01*
X458183Y692220D01*
X458243Y692205D01*
X458332D01*
X458584Y692220D01*
X458822Y692280D01*
X459030Y692354D01*
X459208Y692428D01*
X459357Y692517D01*
X459461Y692577D01*
X459520Y692636D01*
X459550Y692651D01*
X459729Y692844D01*
X459862Y693067D01*
X459981Y693290D01*
X460056Y693513D01*
X460115Y693721D01*
X460159Y693884D01*
X460174Y693944D01*
X460189Y693988D01*
Y694018D01*
Y694033D01*
X461452Y693944D01*
X461423Y693721D01*
X461378Y693498D01*
X461259Y693112D01*
X461096Y692770D01*
X460932Y692488D01*
X460843Y692369D01*
X460769Y692265D01*
X460694Y692176D01*
X460635Y692101D01*
X460575Y692042D01*
X460531Y691997D01*
X460516Y691982D01*
X460501Y691967D01*
X460338Y691834D01*
X460159Y691730D01*
X459981Y691626D01*
X459803Y691537D01*
X459446Y691403D01*
X459104Y691314D01*
X458941Y691284D01*
X458792Y691269D01*
X458659Y691254D01*
X458555Y691239D01*
X458466Y691225D01*
X458332D01*
X458035Y691239D01*
X457752Y691269D01*
X457500Y691329D01*
X457247Y691403D01*
X457024Y691492D01*
X456801Y691596D01*
X456608Y691700D01*
X456445Y691819D01*
X456281Y691923D01*
X456148Y692027D01*
X456029Y692131D01*
X455939Y692220D01*
X455865Y692294D01*
X455806Y692354D01*
X455776Y692384D01*
X455761Y692398D01*
X455628Y692577D01*
X455509Y692770D01*
X455405Y692963D01*
X455315Y693171D01*
X455182Y693543D01*
X455078Y693899D01*
X455048Y694063D01*
X455033Y694211D01*
X455018Y694345D01*
X455003Y694464D01*
X454989Y694553D01*
Y694627D01*
Y694672D01*
Y694687D01*
X455003Y694939D01*
X455033Y695192D01*
X455078Y695415D01*
X455122Y695638D01*
X455197Y695831D01*
X455271Y696024D01*
X455345Y696188D01*
X455434Y696351D01*
X455523Y696485D01*
X455598Y696603D01*
X455672Y696708D01*
X455746Y696797D01*
X455791Y696871D01*
X455835Y696916D01*
X455865Y696945D01*
X455880Y696960D01*
X456044Y697124D01*
X456222Y697257D01*
X456400Y697376D01*
X456593Y697480D01*
X456772Y697569D01*
X456950Y697629D01*
X457292Y697748D01*
X457440Y697777D01*
X457589Y697807D01*
X457708Y697822D01*
X457827Y697837D01*
X457916Y697852D01*
X458035D01*
X458391Y697822D01*
X458733Y697748D01*
X459045Y697658D01*
X459313Y697540D01*
X459550Y697421D01*
X459639Y697376D01*
X459729Y697332D01*
X459788Y697287D01*
X459833Y697257D01*
X459862Y697242D01*
X459877Y697228D01*
X459342Y699858D01*
X455449D01*
Y701002D01*
X460293D01*
X461244Y695994D01*
D02*
G37*
G36*
X467054Y701284D02*
X467500Y701225D01*
X467901Y701121D01*
X468079Y701076D01*
X468243Y701017D01*
X468391Y700957D01*
X468540Y700913D01*
X468659Y700853D01*
X468748Y700809D01*
X468837Y700779D01*
X468897Y700749D01*
X468926Y700720D01*
X468941D01*
X469313Y700482D01*
X469654Y700199D01*
X469937Y699917D01*
X470160Y699635D01*
X470353Y699382D01*
X470427Y699278D01*
X470486Y699189D01*
X470531Y699100D01*
X470561Y699040D01*
X470591Y699011D01*
Y698996D01*
X470784Y698565D01*
X470932Y698104D01*
X471021Y697658D01*
X471096Y697242D01*
X471125Y697049D01*
X471140Y696886D01*
X471155Y696722D01*
Y696589D01*
X471170Y696485D01*
Y696410D01*
Y696351D01*
Y696336D01*
X471155Y695816D01*
X471096Y695340D01*
X471007Y694895D01*
X470962Y694687D01*
X470917Y694508D01*
X470873Y694330D01*
X470828Y694182D01*
X470784Y694048D01*
X470739Y693929D01*
X470709Y693840D01*
X470680Y693780D01*
X470665Y693736D01*
Y693721D01*
X470457Y693290D01*
X470204Y692918D01*
X469966Y692592D01*
X469714Y692339D01*
X469506Y692131D01*
X469328Y691982D01*
X469253Y691938D01*
X469209Y691893D01*
X469179Y691878D01*
X469164Y691863D01*
X468971Y691745D01*
X468763Y691656D01*
X468347Y691492D01*
X467916Y691388D01*
X467500Y691299D01*
X467322Y691284D01*
X467143Y691254D01*
X466995Y691239D01*
X466861D01*
X466742Y691225D01*
X466593D01*
X466311Y691239D01*
X466044Y691254D01*
X465553Y691358D01*
X465330Y691418D01*
X465107Y691492D01*
X464914Y691566D01*
X464736Y691641D01*
X464573Y691715D01*
X464439Y691789D01*
X464320Y691863D01*
X464216Y691923D01*
X464127Y691982D01*
X464067Y692027D01*
X464038Y692042D01*
X464023Y692057D01*
X463830Y692220D01*
X463651Y692398D01*
X463354Y692785D01*
X463087Y693186D01*
X462893Y693587D01*
X462804Y693765D01*
X462745Y693929D01*
X462686Y694092D01*
X462626Y694211D01*
X462596Y694330D01*
X462567Y694404D01*
X462552Y694464D01*
Y694479D01*
X463844Y694806D01*
X463963Y694375D01*
X464112Y693988D01*
X464290Y693676D01*
X464454Y693409D01*
X464617Y693216D01*
X464751Y693067D01*
X464840Y692978D01*
X464855Y692963D01*
X464870Y692948D01*
X465167Y692740D01*
X465464Y692592D01*
X465776Y692473D01*
X466059Y692398D01*
X466311Y692354D01*
X466430Y692339D01*
X466519D01*
X466593Y692324D01*
X466697D01*
X467024Y692339D01*
X467336Y692398D01*
X467619Y692473D01*
X467856Y692547D01*
X468064Y692636D01*
X468228Y692696D01*
X468287Y692725D01*
X468332Y692755D01*
X468347Y692770D01*
X468362D01*
X468629Y692963D01*
X468852Y693186D01*
X469045Y693409D01*
X469209Y693647D01*
X469328Y693840D01*
X469402Y694018D01*
X469431Y694078D01*
X469461Y694122D01*
X469476Y694152D01*
Y694167D01*
X469595Y694523D01*
X469684Y694895D01*
X469743Y695266D01*
X469788Y695608D01*
X469803Y695757D01*
X469818Y695890D01*
Y696024D01*
X469833Y696128D01*
Y696217D01*
Y696277D01*
Y696321D01*
Y696336D01*
X469818Y696693D01*
X469788Y697034D01*
X469743Y697346D01*
X469684Y697629D01*
X469625Y697867D01*
X469610Y697971D01*
X469580Y698045D01*
X469565Y698119D01*
X469550Y698164D01*
X469535Y698193D01*
Y698208D01*
X469402Y698535D01*
X469238Y698832D01*
X469060Y699070D01*
X468897Y699278D01*
X468733Y699442D01*
X468599Y699560D01*
X468510Y699635D01*
X468495Y699665D01*
X468480D01*
X468183Y699843D01*
X467871Y699977D01*
X467559Y700080D01*
X467262Y700140D01*
X466995Y700184D01*
X466891Y700199D01*
X466787D01*
X466712Y700214D01*
X466608D01*
X466252Y700199D01*
X465940Y700140D01*
X465657Y700066D01*
X465434Y699977D01*
X465241Y699873D01*
X465107Y699798D01*
X465018Y699739D01*
X464989Y699724D01*
X464751Y699516D01*
X464558Y699278D01*
X464379Y699011D01*
X464246Y698758D01*
X464142Y698535D01*
X464097Y698431D01*
X464053Y698342D01*
X464023Y698268D01*
X464008Y698208D01*
X463993Y698179D01*
Y698164D01*
X462715Y698461D01*
X462893Y698936D01*
X462998Y699159D01*
X463102Y699352D01*
X463220Y699546D01*
X463339Y699724D01*
X463443Y699873D01*
X463562Y700021D01*
X463666Y700140D01*
X463770Y700244D01*
X463874Y700348D01*
X463949Y700422D01*
X464023Y700482D01*
X464067Y700526D01*
X464097Y700541D01*
X464112Y700556D01*
X464305Y700690D01*
X464498Y700809D01*
X464706Y700913D01*
X464914Y701002D01*
X465330Y701135D01*
X465717Y701225D01*
X465895Y701254D01*
X466059Y701269D01*
X466207Y701284D01*
X466326Y701299D01*
X466430Y701314D01*
X466579D01*
X467054Y701284D01*
D02*
G37*
G36*
X962354Y647944D02*
X962800Y647885D01*
X963201Y647781D01*
X963379Y647736D01*
X963543Y647677D01*
X963691Y647617D01*
X963840Y647573D01*
X963959Y647513D01*
X964048Y647469D01*
X964137Y647439D01*
X964197Y647409D01*
X964226Y647380D01*
X964241D01*
X964613Y647142D01*
X964954Y646859D01*
X965237Y646577D01*
X965460Y646295D01*
X965653Y646042D01*
X965727Y645938D01*
X965787Y645849D01*
X965831Y645760D01*
X965861Y645700D01*
X965891Y645671D01*
Y645656D01*
X966084Y645225D01*
X966232Y644764D01*
X966321Y644318D01*
X966396Y643902D01*
X966425Y643709D01*
X966440Y643546D01*
X966455Y643382D01*
Y643249D01*
X966470Y643145D01*
Y643070D01*
Y643011D01*
Y642996D01*
X966455Y642476D01*
X966396Y642001D01*
X966307Y641555D01*
X966262Y641347D01*
X966217Y641168D01*
X966173Y640990D01*
X966128Y640842D01*
X966084Y640708D01*
X966039Y640589D01*
X966009Y640500D01*
X965980Y640440D01*
X965965Y640396D01*
Y640381D01*
X965757Y639950D01*
X965504Y639579D01*
X965266Y639252D01*
X965014Y638999D01*
X964806Y638791D01*
X964628Y638642D01*
X964553Y638598D01*
X964509Y638553D01*
X964479Y638538D01*
X964464Y638523D01*
X964271Y638405D01*
X964063Y638316D01*
X963647Y638152D01*
X963216Y638048D01*
X962800Y637959D01*
X962622Y637944D01*
X962443Y637914D01*
X962295Y637899D01*
X962161D01*
X962042Y637885D01*
X961893D01*
X961611Y637899D01*
X961344Y637914D01*
X960853Y638018D01*
X960630Y638078D01*
X960407Y638152D01*
X960214Y638226D01*
X960036Y638301D01*
X959873Y638375D01*
X959739Y638449D01*
X959620Y638523D01*
X959516Y638583D01*
X959427Y638642D01*
X959367Y638687D01*
X959338Y638702D01*
X959323Y638717D01*
X959130Y638880D01*
X958951Y639058D01*
X958654Y639445D01*
X958387Y639846D01*
X958194Y640247D01*
X958104Y640425D01*
X958045Y640589D01*
X957986Y640752D01*
X957926Y640871D01*
X957896Y640990D01*
X957867Y641064D01*
X957852Y641124D01*
Y641139D01*
X959145Y641466D01*
X959263Y641035D01*
X959412Y640648D01*
X959590Y640336D01*
X959754Y640069D01*
X959917Y639876D01*
X960051Y639727D01*
X960140Y639638D01*
X960155Y639623D01*
X960170Y639608D01*
X960467Y639400D01*
X960764Y639252D01*
X961076Y639133D01*
X961358Y639058D01*
X961611Y639014D01*
X961730Y638999D01*
X961819D01*
X961893Y638984D01*
X961997D01*
X962324Y638999D01*
X962636Y639058D01*
X962919Y639133D01*
X963156Y639207D01*
X963364Y639296D01*
X963528Y639356D01*
X963587Y639385D01*
X963632Y639415D01*
X963647Y639430D01*
X963662D01*
X963929Y639623D01*
X964152Y639846D01*
X964345Y640069D01*
X964509Y640307D01*
X964628Y640500D01*
X964702Y640678D01*
X964732Y640738D01*
X964761Y640782D01*
X964776Y640812D01*
Y640827D01*
X964895Y641183D01*
X964984Y641555D01*
X965043Y641926D01*
X965088Y642268D01*
X965103Y642417D01*
X965118Y642550D01*
Y642684D01*
X965133Y642788D01*
Y642877D01*
Y642937D01*
Y642981D01*
Y642996D01*
X965118Y643353D01*
X965088Y643694D01*
X965043Y644007D01*
X964984Y644289D01*
X964925Y644527D01*
X964910Y644631D01*
X964880Y644705D01*
X964865Y644779D01*
X964850Y644824D01*
X964836Y644853D01*
Y644868D01*
X964702Y645195D01*
X964538Y645492D01*
X964360Y645730D01*
X964197Y645938D01*
X964033Y646102D01*
X963899Y646220D01*
X963810Y646295D01*
X963795Y646324D01*
X963781D01*
X963483Y646503D01*
X963171Y646637D01*
X962859Y646740D01*
X962562Y646800D01*
X962295Y646844D01*
X962191Y646859D01*
X962087D01*
X962012Y646874D01*
X961908D01*
X961552Y646859D01*
X961240Y646800D01*
X960957Y646726D01*
X960734Y646637D01*
X960541Y646533D01*
X960407Y646458D01*
X960318Y646399D01*
X960289Y646384D01*
X960051Y646176D01*
X959858Y645938D01*
X959679Y645671D01*
X959546Y645418D01*
X959442Y645195D01*
X959397Y645091D01*
X959352Y645002D01*
X959323Y644928D01*
X959308Y644868D01*
X959293Y644839D01*
Y644824D01*
X958015Y645121D01*
X958194Y645596D01*
X958298Y645819D01*
X958402Y646012D01*
X958520Y646206D01*
X958639Y646384D01*
X958743Y646533D01*
X958862Y646681D01*
X958966Y646800D01*
X959070Y646904D01*
X959174Y647008D01*
X959249Y647082D01*
X959323Y647142D01*
X959367Y647186D01*
X959397Y647201D01*
X959412Y647216D01*
X959605Y647350D01*
X959798Y647469D01*
X960006Y647573D01*
X960214Y647662D01*
X960630Y647795D01*
X961017Y647885D01*
X961195Y647914D01*
X961358Y647929D01*
X961507Y647944D01*
X961626Y647959D01*
X961730Y647974D01*
X961879D01*
X962354Y647944D01*
D02*
G37*
G36*
X957153Y641480D02*
Y640381D01*
X952919D01*
Y638048D01*
X951715D01*
Y640381D01*
X950393D01*
Y641480D01*
X951715D01*
Y647795D01*
X952696D01*
X957153Y641480D01*
D02*
G37*
G36*
X950551Y668907D02*
X950923Y668833D01*
X951264Y668729D01*
X951547Y668610D01*
X951770Y668476D01*
X951859Y668417D01*
X951933Y668372D01*
X952008Y668328D01*
X952052Y668298D01*
X952067Y668283D01*
X952082Y668268D01*
X952349Y668001D01*
X952557Y667704D01*
X952736Y667392D01*
X952855Y667094D01*
X952959Y666827D01*
X952988Y666708D01*
X953018Y666604D01*
X953033Y666530D01*
X953048Y666470D01*
X953063Y666426D01*
Y666411D01*
X951859Y666203D01*
X951799Y666515D01*
X951710Y666782D01*
X951621Y667005D01*
X951517Y667184D01*
X951428Y667332D01*
X951354Y667436D01*
X951294Y667496D01*
X951279Y667511D01*
X951086Y667659D01*
X950893Y667763D01*
X950700Y667852D01*
X950507Y667897D01*
X950358Y667926D01*
X950224Y667956D01*
X950106D01*
X949853Y667941D01*
X949630Y667882D01*
X949437Y667822D01*
X949273Y667733D01*
X949140Y667659D01*
X949036Y667585D01*
X948976Y667525D01*
X948961Y667511D01*
X948813Y667347D01*
X948709Y667154D01*
X948620Y666976D01*
X948575Y666812D01*
X948545Y666649D01*
X948516Y666530D01*
Y666456D01*
Y666441D01*
Y666426D01*
X948545Y666129D01*
X948620Y665876D01*
X948709Y665668D01*
X948828Y665505D01*
X948947Y665371D01*
X949036Y665267D01*
X949110Y665207D01*
X949140Y665192D01*
X949378Y665059D01*
X949615Y664970D01*
X949838Y664895D01*
X950046Y664851D01*
X950239Y664821D01*
X950373Y664806D01*
X950566D01*
X950626Y664821D01*
X950700D01*
X950834Y663766D01*
X950655Y663811D01*
X950492Y663840D01*
X950343Y663855D01*
X950224Y663870D01*
X950120Y663885D01*
X949987D01*
X949689Y663855D01*
X949437Y663796D01*
X949199Y663721D01*
X949006Y663617D01*
X948842Y663513D01*
X948724Y663439D01*
X948664Y663380D01*
X948634Y663350D01*
X948456Y663142D01*
X948323Y662919D01*
X948218Y662681D01*
X948159Y662473D01*
X948114Y662280D01*
X948100Y662132D01*
X948085Y662072D01*
Y662028D01*
Y662013D01*
Y661998D01*
X948114Y661686D01*
X948174Y661403D01*
X948263Y661151D01*
X948367Y660943D01*
X948486Y660764D01*
X948575Y660646D01*
X948634Y660571D01*
X948664Y660542D01*
X948887Y660348D01*
X949125Y660200D01*
X949363Y660111D01*
X949600Y660036D01*
X949793Y659992D01*
X949942Y659977D01*
X950002Y659962D01*
X950091D01*
X950343Y659977D01*
X950581Y660036D01*
X950789Y660111D01*
X950953Y660185D01*
X951101Y660274D01*
X951205Y660334D01*
X951264Y660393D01*
X951294Y660408D01*
X951458Y660601D01*
X951606Y660824D01*
X951725Y661077D01*
X951814Y661314D01*
X951889Y661537D01*
X951933Y661715D01*
X951963Y661775D01*
Y661834D01*
X951978Y661864D01*
Y661879D01*
X953181Y661715D01*
X953152Y661493D01*
X953107Y661285D01*
X952973Y660898D01*
X952825Y660556D01*
X952646Y660259D01*
X952572Y660140D01*
X952483Y660036D01*
X952409Y659947D01*
X952349Y659858D01*
X952290Y659799D01*
X952245Y659754D01*
X952230Y659739D01*
X952215Y659724D01*
X952052Y659591D01*
X951874Y659472D01*
X951710Y659368D01*
X951532Y659293D01*
X951175Y659145D01*
X950834Y659056D01*
X950685Y659026D01*
X950536Y659011D01*
X950418Y658996D01*
X950299Y658981D01*
X950210Y658967D01*
X950091D01*
X949838Y658981D01*
X949585Y659011D01*
X949348Y659041D01*
X949125Y659100D01*
X948917Y659175D01*
X948724Y659249D01*
X948545Y659323D01*
X948382Y659412D01*
X948248Y659487D01*
X948114Y659561D01*
X947996Y659635D01*
X947906Y659709D01*
X947832Y659769D01*
X947787Y659799D01*
X947758Y659828D01*
X947743Y659843D01*
X947579Y660022D01*
X947431Y660200D01*
X947312Y660378D01*
X947208Y660556D01*
X947104Y660735D01*
X947030Y660928D01*
X946926Y661270D01*
X946881Y661418D01*
X946851Y661567D01*
X946837Y661686D01*
X946822Y661805D01*
X946807Y661894D01*
Y661953D01*
Y661998D01*
Y662013D01*
X946822Y662354D01*
X946881Y662666D01*
X946955Y662934D01*
X947045Y663157D01*
X947149Y663335D01*
X947223Y663469D01*
X947282Y663558D01*
X947297Y663588D01*
X947490Y663811D01*
X947713Y663989D01*
X947936Y664137D01*
X948144Y664241D01*
X948337Y664331D01*
X948486Y664375D01*
X948545Y664405D01*
X948590D01*
X948620Y664420D01*
X948634D01*
X948397Y664539D01*
X948189Y664687D01*
X948025Y664821D01*
X947877Y664955D01*
X947773Y665074D01*
X947683Y665163D01*
X947639Y665222D01*
X947624Y665252D01*
X947505Y665445D01*
X947431Y665653D01*
X947372Y665846D01*
X947327Y666025D01*
X947297Y666173D01*
X947282Y666292D01*
Y666366D01*
Y666396D01*
X947297Y666649D01*
X947342Y666871D01*
X947401Y667080D01*
X947461Y667273D01*
X947520Y667421D01*
X947579Y667540D01*
X947624Y667615D01*
X947639Y667644D01*
X947787Y667852D01*
X947951Y668045D01*
X948129Y668209D01*
X948293Y668343D01*
X948441Y668447D01*
X948560Y668521D01*
X948649Y668566D01*
X948664Y668580D01*
X948679D01*
X948932Y668699D01*
X949184Y668788D01*
X949437Y668848D01*
X949660Y668892D01*
X949853Y668922D01*
X950002Y668937D01*
X950343D01*
X950551Y668907D01*
D02*
G37*
G36*
X958798Y669026D02*
X959244Y668967D01*
X959645Y668863D01*
X959823Y668818D01*
X959987Y668759D01*
X960135Y668699D01*
X960284Y668655D01*
X960403Y668595D01*
X960492Y668551D01*
X960581Y668521D01*
X960641Y668491D01*
X960670Y668462D01*
X960685D01*
X961057Y668224D01*
X961398Y667941D01*
X961681Y667659D01*
X961904Y667377D01*
X962097Y667124D01*
X962171Y667020D01*
X962231Y666931D01*
X962275Y666842D01*
X962305Y666782D01*
X962335Y666753D01*
Y666738D01*
X962528Y666307D01*
X962676Y665846D01*
X962765Y665400D01*
X962840Y664984D01*
X962869Y664791D01*
X962884Y664628D01*
X962899Y664464D01*
Y664331D01*
X962914Y664227D01*
Y664152D01*
Y664093D01*
Y664078D01*
X962899Y663558D01*
X962840Y663083D01*
X962751Y662637D01*
X962706Y662429D01*
X962661Y662250D01*
X962617Y662072D01*
X962572Y661924D01*
X962528Y661790D01*
X962483Y661671D01*
X962453Y661582D01*
X962424Y661522D01*
X962409Y661478D01*
Y661463D01*
X962201Y661032D01*
X961948Y660660D01*
X961710Y660334D01*
X961458Y660081D01*
X961250Y659873D01*
X961071Y659724D01*
X960997Y659680D01*
X960953Y659635D01*
X960923Y659620D01*
X960908Y659605D01*
X960715Y659487D01*
X960507Y659398D01*
X960091Y659234D01*
X959660Y659130D01*
X959244Y659041D01*
X959065Y659026D01*
X958887Y658996D01*
X958739Y658981D01*
X958605D01*
X958486Y658967D01*
X958337D01*
X958055Y658981D01*
X957788Y658996D01*
X957297Y659100D01*
X957074Y659160D01*
X956852Y659234D01*
X956658Y659308D01*
X956480Y659383D01*
X956317Y659457D01*
X956183Y659531D01*
X956064Y659605D01*
X955960Y659665D01*
X955871Y659724D01*
X955811Y659769D01*
X955782Y659784D01*
X955767Y659799D01*
X955574Y659962D01*
X955395Y660140D01*
X955098Y660527D01*
X954831Y660928D01*
X954638Y661329D01*
X954548Y661507D01*
X954489Y661671D01*
X954429Y661834D01*
X954370Y661953D01*
X954340Y662072D01*
X954311Y662146D01*
X954296Y662206D01*
Y662221D01*
X955589Y662548D01*
X955707Y662117D01*
X955856Y661730D01*
X956034Y661418D01*
X956198Y661151D01*
X956361Y660958D01*
X956495Y660809D01*
X956584Y660720D01*
X956599Y660705D01*
X956614Y660690D01*
X956911Y660482D01*
X957208Y660334D01*
X957520Y660215D01*
X957803Y660140D01*
X958055Y660096D01*
X958174Y660081D01*
X958263D01*
X958337Y660066D01*
X958441D01*
X958768Y660081D01*
X959080Y660140D01*
X959363Y660215D01*
X959600Y660289D01*
X959809Y660378D01*
X959972Y660438D01*
X960031Y660467D01*
X960076Y660497D01*
X960091Y660512D01*
X960106D01*
X960373Y660705D01*
X960596Y660928D01*
X960789Y661151D01*
X960953Y661389D01*
X961071Y661582D01*
X961146Y661760D01*
X961176Y661820D01*
X961205Y661864D01*
X961220Y661894D01*
Y661909D01*
X961339Y662265D01*
X961428Y662637D01*
X961488Y663008D01*
X961532Y663350D01*
X961547Y663499D01*
X961562Y663632D01*
Y663766D01*
X961577Y663870D01*
Y663959D01*
Y664019D01*
Y664063D01*
Y664078D01*
X961562Y664435D01*
X961532Y664776D01*
X961488Y665089D01*
X961428Y665371D01*
X961369Y665609D01*
X961354Y665713D01*
X961324Y665787D01*
X961309Y665861D01*
X961294Y665906D01*
X961280Y665935D01*
Y665950D01*
X961146Y666277D01*
X960982Y666574D01*
X960804Y666812D01*
X960641Y667020D01*
X960477Y667184D01*
X960343Y667302D01*
X960254Y667377D01*
X960239Y667406D01*
X960225D01*
X959927Y667585D01*
X959615Y667719D01*
X959303Y667822D01*
X959006Y667882D01*
X958739Y667926D01*
X958635Y667941D01*
X958531D01*
X958456Y667956D01*
X958352D01*
X957996Y667941D01*
X957684Y667882D01*
X957401Y667808D01*
X957178Y667719D01*
X956985Y667615D01*
X956852Y667540D01*
X956762Y667481D01*
X956733Y667466D01*
X956495Y667258D01*
X956302Y667020D01*
X956123Y666753D01*
X955990Y666500D01*
X955886Y666277D01*
X955841Y666173D01*
X955797Y666084D01*
X955767Y666010D01*
X955752Y665950D01*
X955737Y665921D01*
Y665906D01*
X954459Y666203D01*
X954638Y666678D01*
X954742Y666901D01*
X954846Y667094D01*
X954964Y667288D01*
X955083Y667466D01*
X955187Y667615D01*
X955306Y667763D01*
X955410Y667882D01*
X955514Y667986D01*
X955618Y668090D01*
X955693Y668164D01*
X955767Y668224D01*
X955811Y668268D01*
X955841Y668283D01*
X955856Y668298D01*
X956049Y668432D01*
X956242Y668551D01*
X956450Y668655D01*
X956658Y668744D01*
X957074Y668877D01*
X957461Y668967D01*
X957639Y668996D01*
X957803Y669011D01*
X957951Y669026D01*
X958070Y669041D01*
X958174Y669056D01*
X958323D01*
X958798Y669026D01*
D02*
G37*
G36*
X1143254Y733552D02*
X1139197D01*
X1138900Y733582D01*
X1138633Y733597D01*
X1138395Y733626D01*
X1138217Y733656D01*
X1138083Y733671D01*
X1137994Y733701D01*
X1137964D01*
X1137741Y733775D01*
X1137533Y733849D01*
X1137340Y733923D01*
X1137191Y733998D01*
X1137058Y734072D01*
X1136969Y734131D01*
X1136909Y734161D01*
X1136894Y734176D01*
X1136746Y734310D01*
X1136597Y734458D01*
X1136478Y734607D01*
X1136374Y734756D01*
X1136300Y734889D01*
X1136226Y734993D01*
X1136196Y735068D01*
X1136181Y735097D01*
X1136077Y735320D01*
X1136003Y735543D01*
X1135958Y735766D01*
X1135914Y735959D01*
X1135899Y736123D01*
X1135884Y736256D01*
Y736346D01*
Y736375D01*
X1135899Y736687D01*
X1135958Y736970D01*
X1136032Y737207D01*
X1136122Y737430D01*
X1136226Y737608D01*
X1136300Y737742D01*
X1136359Y737816D01*
X1136374Y737846D01*
X1136568Y738069D01*
X1136790Y738247D01*
X1137013Y738396D01*
X1137236Y738530D01*
X1137429Y738619D01*
X1137593Y738693D01*
X1137652Y738708D01*
X1137697Y738723D01*
X1137727Y738738D01*
X1137741D01*
X1137489Y738872D01*
X1137281Y739020D01*
X1137102Y739154D01*
X1136954Y739302D01*
X1136850Y739421D01*
X1136761Y739525D01*
X1136716Y739585D01*
X1136701Y739614D01*
X1136582Y739822D01*
X1136508Y740045D01*
X1136449Y740238D01*
X1136404Y740417D01*
X1136374Y740580D01*
X1136359Y740699D01*
Y740773D01*
Y740803D01*
X1136374Y741056D01*
X1136419Y741293D01*
X1136478Y741502D01*
X1136553Y741695D01*
X1136627Y741858D01*
X1136686Y741992D01*
X1136731Y742066D01*
X1136746Y742096D01*
X1136909Y742319D01*
X1137073Y742497D01*
X1137251Y742661D01*
X1137429Y742794D01*
X1137578Y742884D01*
X1137697Y742958D01*
X1137786Y743002D01*
X1137801Y743017D01*
X1137816D01*
X1138083Y743121D01*
X1138380Y743195D01*
X1138677Y743240D01*
X1138960Y743285D01*
X1139212Y743299D01*
X1139316D01*
X1139420Y743314D01*
X1143254D01*
Y733552D01*
D02*
G37*
G36*
X1135171D02*
X1133804D01*
X1132749Y736509D01*
X1128648D01*
X1127518Y733552D01*
X1126062D01*
X1130030Y743314D01*
X1131441D01*
X1135171Y733552D01*
D02*
G37*
G36*
X1125735Y742170D02*
X1122526D01*
Y733552D01*
X1121233D01*
Y742170D01*
X1118023D01*
Y743314D01*
X1125735D01*
Y742170D01*
D02*
G37*
%LPC*%
G36*
X1232639Y664252D02*
X1229564D01*
X1229177Y664237D01*
X1228850Y664177D01*
X1228583Y664118D01*
X1228360Y664029D01*
X1228196Y663954D01*
X1228063Y663880D01*
X1228003Y663821D01*
X1227973Y663806D01*
X1227810Y663628D01*
X1227676Y663434D01*
X1227587Y663241D01*
X1227528Y663063D01*
X1227498Y662899D01*
X1227468Y662781D01*
Y662691D01*
Y662677D01*
Y662662D01*
X1227483Y662483D01*
X1227513Y662320D01*
X1227558Y662171D01*
X1227602Y662053D01*
X1227647Y661934D01*
X1227691Y661859D01*
X1227721Y661800D01*
X1227736Y661785D01*
X1227840Y661651D01*
X1227959Y661533D01*
X1228092Y661428D01*
X1228211Y661339D01*
X1228315Y661280D01*
X1228404Y661235D01*
X1228464Y661220D01*
X1228494Y661206D01*
X1228687Y661146D01*
X1228910Y661102D01*
X1229147Y661072D01*
X1229370Y661057D01*
X1229564Y661042D01*
X1229727Y661027D01*
X1232639D01*
Y664252D01*
D02*
G37*
G36*
X531091Y676190D02*
X528016D01*
X527629Y676175D01*
X527302Y676115D01*
X527035Y676056D01*
X526812Y675967D01*
X526648Y675892D01*
X526515Y675818D01*
X526455Y675759D01*
X526426Y675744D01*
X526262Y675566D01*
X526128Y675372D01*
X526039Y675179D01*
X525980Y675001D01*
X525950Y674837D01*
X525920Y674719D01*
Y674630D01*
Y674615D01*
Y674600D01*
X525935Y674421D01*
X525965Y674258D01*
X526009Y674109D01*
X526054Y673990D01*
X526099Y673872D01*
X526143Y673797D01*
X526173Y673738D01*
X526188Y673723D01*
X526292Y673589D01*
X526411Y673471D01*
X526544Y673366D01*
X526663Y673277D01*
X526767Y673218D01*
X526856Y673173D01*
X526916Y673158D01*
X526946Y673144D01*
X527139Y673084D01*
X527362Y673039D01*
X527599Y673010D01*
X527822Y672995D01*
X528016Y672980D01*
X528179Y672965D01*
X531091D01*
Y676190D01*
D02*
G37*
G36*
X1071857Y502962D02*
X1068782D01*
X1068395Y502947D01*
X1068068Y502887D01*
X1067801Y502828D01*
X1067578Y502739D01*
X1067414Y502664D01*
X1067281Y502590D01*
X1067221Y502531D01*
X1067191Y502516D01*
X1067028Y502338D01*
X1066894Y502144D01*
X1066805Y501951D01*
X1066746Y501773D01*
X1066716Y501609D01*
X1066686Y501491D01*
Y501401D01*
Y501387D01*
Y501372D01*
X1066701Y501193D01*
X1066731Y501030D01*
X1066776Y500881D01*
X1066820Y500762D01*
X1066865Y500644D01*
X1066909Y500569D01*
X1066939Y500510D01*
X1066954Y500495D01*
X1067058Y500361D01*
X1067177Y500243D01*
X1067310Y500138D01*
X1067429Y500049D01*
X1067533Y499990D01*
X1067623Y499945D01*
X1067682Y499930D01*
X1067712Y499916D01*
X1067905Y499856D01*
X1068128Y499812D01*
X1068365Y499782D01*
X1068588Y499767D01*
X1068782Y499752D01*
X1068945Y499737D01*
X1071857D01*
Y502962D01*
D02*
G37*
G36*
X1053150Y503095D02*
X1053075D01*
X1052927Y503080D01*
X1052778Y503066D01*
X1052511Y502976D01*
X1052273Y502843D01*
X1052065Y502694D01*
X1051902Y502546D01*
X1051783Y502412D01*
X1051709Y502323D01*
X1051679Y502308D01*
Y502293D01*
X1051575Y502130D01*
X1051486Y501936D01*
X1051411Y501713D01*
X1051352Y501461D01*
X1051248Y500941D01*
X1051188Y500406D01*
X1051159Y500138D01*
X1051144Y499901D01*
X1051129Y499678D01*
Y499485D01*
X1051114Y499321D01*
Y499202D01*
Y499128D01*
Y499098D01*
Y498667D01*
X1051144Y498266D01*
X1051159Y497910D01*
X1051203Y497583D01*
X1051248Y497285D01*
X1051292Y497018D01*
X1051337Y496795D01*
X1051396Y496587D01*
X1051456Y496424D01*
X1051500Y496275D01*
X1051545Y496141D01*
X1051590Y496052D01*
X1051619Y495978D01*
X1051649Y495933D01*
X1051679Y495904D01*
Y495889D01*
X1051783Y495755D01*
X1051902Y495636D01*
X1052020Y495517D01*
X1052139Y495428D01*
X1052362Y495294D01*
X1052585Y495205D01*
X1052778Y495146D01*
X1052927Y495116D01*
X1052986Y495101D01*
X1053061D01*
X1053209Y495116D01*
X1053358Y495131D01*
X1053625Y495220D01*
X1053863Y495354D01*
X1054071Y495502D01*
X1054234Y495636D01*
X1054353Y495770D01*
X1054428Y495859D01*
X1054457Y495874D01*
Y495889D01*
X1054547Y496052D01*
X1054636Y496260D01*
X1054710Y496483D01*
X1054769Y496721D01*
X1054873Y497256D01*
X1054933Y497791D01*
X1054963Y498043D01*
X1054977Y498296D01*
X1054992Y498519D01*
Y498712D01*
X1055007Y498875D01*
Y498994D01*
Y499069D01*
Y499098D01*
Y499529D01*
X1054977Y499930D01*
X1054948Y500287D01*
X1054918Y500614D01*
X1054859Y500926D01*
X1054814Y501193D01*
X1054755Y501431D01*
X1054695Y501639D01*
X1054650Y501818D01*
X1054591Y501981D01*
X1054532Y502100D01*
X1054487Y502204D01*
X1054457Y502278D01*
X1054428Y502338D01*
X1054398Y502367D01*
Y502382D01*
X1054309Y502501D01*
X1054205Y502620D01*
X1053982Y502798D01*
X1053759Y502917D01*
X1053551Y503006D01*
X1053358Y503066D01*
X1053209Y503080D01*
X1053150Y503095D01*
D02*
G37*
G36*
X1035537Y698167D02*
X1035463D01*
X1035181Y698138D01*
X1034928Y698078D01*
X1034705Y697974D01*
X1034512Y697870D01*
X1034349Y697751D01*
X1034245Y697647D01*
X1034170Y697588D01*
X1034141Y697558D01*
X1033962Y697306D01*
X1033829Y697038D01*
X1033725Y696771D01*
X1033665Y696503D01*
X1033621Y696265D01*
X1033606Y696176D01*
Y696087D01*
X1033591Y696013D01*
Y695953D01*
Y695924D01*
Y695909D01*
X1033621Y695552D01*
X1033680Y695225D01*
X1033769Y694958D01*
X1033858Y694720D01*
X1033962Y694542D01*
X1034051Y694408D01*
X1034111Y694334D01*
X1034141Y694304D01*
X1034349Y694111D01*
X1034572Y693962D01*
X1034809Y693873D01*
X1035017Y693799D01*
X1035210Y693754D01*
X1035359Y693739D01*
X1035418Y693725D01*
X1035493D01*
X1035790Y693754D01*
X1036057Y693814D01*
X1036295Y693903D01*
X1036503Y694022D01*
X1036667Y694126D01*
X1036786Y694215D01*
X1036860Y694274D01*
X1036889Y694304D01*
X1037068Y694542D01*
X1037202Y694780D01*
X1037306Y695032D01*
X1037365Y695285D01*
X1037410Y695493D01*
X1037424Y695671D01*
X1037439Y695731D01*
Y695775D01*
Y695805D01*
Y695820D01*
X1037410Y696191D01*
X1037350Y696518D01*
X1037261Y696815D01*
X1037142Y697053D01*
X1037038Y697246D01*
X1036949Y697395D01*
X1036889Y697484D01*
X1036860Y697514D01*
X1036741Y697633D01*
X1036622Y697737D01*
X1036384Y697885D01*
X1036161Y698004D01*
X1035938Y698093D01*
X1035745Y698138D01*
X1035597Y698152D01*
X1035537Y698167D01*
D02*
G37*
G36*
X1046711Y698034D02*
X1043635D01*
X1043249Y698019D01*
X1042922Y697959D01*
X1042655Y697900D01*
X1042432Y697811D01*
X1042268Y697737D01*
X1042135Y697662D01*
X1042075Y697603D01*
X1042046Y697588D01*
X1041882Y697410D01*
X1041748Y697216D01*
X1041659Y697023D01*
X1041600Y696845D01*
X1041570Y696682D01*
X1041540Y696563D01*
Y696473D01*
Y696459D01*
Y696444D01*
X1041555Y696265D01*
X1041585Y696102D01*
X1041629Y695953D01*
X1041674Y695835D01*
X1041719Y695716D01*
X1041763Y695641D01*
X1041793Y695582D01*
X1041808Y695567D01*
X1041912Y695433D01*
X1042031Y695314D01*
X1042164Y695210D01*
X1042283Y695121D01*
X1042387Y695062D01*
X1042477Y695017D01*
X1042536Y695002D01*
X1042566Y694988D01*
X1042759Y694928D01*
X1042982Y694883D01*
X1043219Y694854D01*
X1043442Y694839D01*
X1043635Y694824D01*
X1043799Y694809D01*
X1046711D01*
Y698034D01*
D02*
G37*
G36*
X1080493Y683302D02*
X1077418D01*
X1077031Y683287D01*
X1076704Y683227D01*
X1076437Y683168D01*
X1076214Y683079D01*
X1076050Y683005D01*
X1075917Y682930D01*
X1075857Y682871D01*
X1075827Y682856D01*
X1075664Y682678D01*
X1075530Y682484D01*
X1075441Y682291D01*
X1075382Y682113D01*
X1075352Y681949D01*
X1075322Y681831D01*
Y681741D01*
Y681727D01*
Y681712D01*
X1075337Y681533D01*
X1075367Y681370D01*
X1075412Y681221D01*
X1075456Y681103D01*
X1075501Y680984D01*
X1075545Y680909D01*
X1075575Y680850D01*
X1075590Y680835D01*
X1075694Y680701D01*
X1075813Y680583D01*
X1075946Y680478D01*
X1076065Y680389D01*
X1076169Y680330D01*
X1076258Y680285D01*
X1076318Y680270D01*
X1076348Y680256D01*
X1076541Y680196D01*
X1076764Y680152D01*
X1077001Y680122D01*
X1077224Y680107D01*
X1077418Y680092D01*
X1077581Y680077D01*
X1080493D01*
Y683302D01*
D02*
G37*
G36*
X1069379Y683450D02*
X1069260D01*
X1069007Y683435D01*
X1068799Y683376D01*
X1068606Y683302D01*
X1068443Y683227D01*
X1068309Y683138D01*
X1068205Y683064D01*
X1068145Y683005D01*
X1068131Y682990D01*
X1067982Y682811D01*
X1067863Y682633D01*
X1067789Y682440D01*
X1067729Y682276D01*
X1067700Y682128D01*
X1067670Y681994D01*
Y681920D01*
Y681905D01*
Y681890D01*
X1067685Y681667D01*
X1067744Y681459D01*
X1067804Y681266D01*
X1067893Y681117D01*
X1067967Y680984D01*
X1068041Y680894D01*
X1068101Y680835D01*
X1068116Y680820D01*
X1068294Y680672D01*
X1068487Y680568D01*
X1068680Y680493D01*
X1068859Y680449D01*
X1069022Y680419D01*
X1069141Y680389D01*
X1069260D01*
X1069512Y680404D01*
X1069735Y680464D01*
X1069943Y680523D01*
X1070107Y680612D01*
X1070241Y680686D01*
X1070345Y680761D01*
X1070404Y680805D01*
X1070419Y680820D01*
X1070567Y680999D01*
X1070671Y681192D01*
X1070746Y681370D01*
X1070790Y681548D01*
X1070820Y681712D01*
X1070850Y681831D01*
Y681920D01*
Y681949D01*
X1070835Y682172D01*
X1070776Y682365D01*
X1070701Y682559D01*
X1070627Y682707D01*
X1070538Y682826D01*
X1070478Y682930D01*
X1070419Y682990D01*
X1070404Y683005D01*
X1070226Y683153D01*
X1070033Y683257D01*
X1069839Y683346D01*
X1069661Y683391D01*
X1069498Y683420D01*
X1069379Y683450D01*
D02*
G37*
G36*
X1069364Y679409D02*
X1069290D01*
X1068978Y679379D01*
X1068695Y679319D01*
X1068443Y679230D01*
X1068235Y679126D01*
X1068071Y679007D01*
X1067952Y678918D01*
X1067878Y678859D01*
X1067848Y678829D01*
X1067655Y678606D01*
X1067506Y678369D01*
X1067402Y678131D01*
X1067343Y677908D01*
X1067299Y677700D01*
X1067284Y677551D01*
X1067269Y677492D01*
Y677447D01*
Y677418D01*
Y677403D01*
X1067299Y677091D01*
X1067358Y676823D01*
X1067447Y676571D01*
X1067551Y676377D01*
X1067655Y676214D01*
X1067744Y676095D01*
X1067804Y676021D01*
X1067833Y675991D01*
X1068056Y675813D01*
X1068279Y675679D01*
X1068517Y675575D01*
X1068740Y675516D01*
X1068948Y675471D01*
X1069096Y675456D01*
X1069156Y675441D01*
X1069245D01*
X1069453Y675456D01*
X1069646Y675486D01*
X1069810Y675516D01*
X1069973Y675575D01*
X1070107Y675620D01*
X1070196Y675649D01*
X1070255Y675679D01*
X1070285Y675694D01*
X1070449Y675798D01*
X1070597Y675917D01*
X1070716Y676050D01*
X1070820Y676169D01*
X1070894Y676273D01*
X1070954Y676363D01*
X1070984Y676422D01*
X1070998Y676437D01*
X1071073Y676615D01*
X1071132Y676793D01*
X1071177Y676972D01*
X1071206Y677120D01*
X1071221Y677254D01*
X1071236Y677343D01*
Y677418D01*
Y677432D01*
X1071206Y677729D01*
X1071147Y678012D01*
X1071058Y678250D01*
X1070954Y678458D01*
X1070865Y678621D01*
X1070776Y678740D01*
X1070716Y678814D01*
X1070686Y678844D01*
X1070463Y679037D01*
X1070241Y679171D01*
X1070003Y679275D01*
X1069780Y679334D01*
X1069587Y679379D01*
X1069423Y679394D01*
X1069364Y679409D01*
D02*
G37*
G36*
X484863Y585512D02*
X481787D01*
X481401Y585497D01*
X481074Y585437D01*
X480807Y585378D01*
X480584Y585289D01*
X480420Y585215D01*
X480287Y585140D01*
X480227Y585081D01*
X480197Y585066D01*
X480034Y584888D01*
X479900Y584694D01*
X479811Y584501D01*
X479752Y584323D01*
X479722Y584160D01*
X479692Y584041D01*
Y583951D01*
Y583937D01*
Y583922D01*
X479707Y583743D01*
X479737Y583580D01*
X479781Y583431D01*
X479826Y583312D01*
X479871Y583194D01*
X479915Y583119D01*
X479945Y583060D01*
X479960Y583045D01*
X480064Y582911D01*
X480183Y582793D01*
X480316Y582688D01*
X480435Y582599D01*
X480539Y582540D01*
X480629Y582495D01*
X480688Y582480D01*
X480718Y582466D01*
X480911Y582406D01*
X481134Y582361D01*
X481371Y582332D01*
X481594Y582317D01*
X481787Y582302D01*
X481951Y582287D01*
X484863D01*
Y585512D01*
D02*
G37*
G36*
X996736Y728901D02*
X996602D01*
X996246Y728886D01*
X995919Y728827D01*
X995622Y728753D01*
X995369Y728664D01*
X995161Y728560D01*
X994997Y728485D01*
X994938Y728456D01*
X994893Y728426D01*
X994879Y728411D01*
X994864D01*
X994596Y728218D01*
X994359Y727995D01*
X994150Y727757D01*
X993987Y727534D01*
X993853Y727341D01*
X993764Y727178D01*
X993735Y727118D01*
X993705Y727074D01*
X993690Y727044D01*
Y727029D01*
X993556Y726687D01*
X993452Y726331D01*
X993393Y725989D01*
X993333Y725662D01*
X993304Y725380D01*
Y725261D01*
X993289Y725157D01*
Y725083D01*
Y725023D01*
Y724979D01*
Y724964D01*
X993304Y724592D01*
X993333Y724236D01*
X993393Y723909D01*
X993467Y723597D01*
X993556Y723314D01*
X993645Y723062D01*
X993749Y722824D01*
X993853Y722631D01*
X993972Y722438D01*
X994076Y722289D01*
X994165Y722155D01*
X994255Y722037D01*
X994329Y721947D01*
X994388Y721888D01*
X994418Y721858D01*
X994433Y721843D01*
X994715Y722066D01*
X995012Y722259D01*
X995324Y722408D01*
X995607Y722542D01*
X995874Y722646D01*
X995978Y722690D01*
X996067Y722720D01*
X996156Y722750D01*
X996216Y722765D01*
X996246Y722779D01*
X996261D01*
X996573Y721843D01*
X996320Y721769D01*
X996097Y721680D01*
X995874Y721591D01*
X995696Y721502D01*
X995532Y721413D01*
X995414Y721338D01*
X995339Y721294D01*
X995310Y721279D01*
X995532Y721190D01*
X995770Y721130D01*
X995993Y721086D01*
X996186Y721056D01*
X996350Y721041D01*
X996483Y721026D01*
X996602D01*
X996870Y721041D01*
X997122Y721071D01*
X997360Y721115D01*
X997583Y721190D01*
X997806Y721264D01*
X997999Y721353D01*
X998177Y721442D01*
X998341Y721531D01*
X998489Y721620D01*
X998623Y721724D01*
X998727Y721799D01*
X998831Y721873D01*
X998905Y721947D01*
X998950Y721992D01*
X998980Y722022D01*
X998995Y722037D01*
X999158Y722230D01*
X999307Y722453D01*
X999426Y722675D01*
X999529Y722928D01*
X999619Y723166D01*
X999708Y723404D01*
X999812Y723879D01*
X999856Y724102D01*
X999886Y724310D01*
X999901Y724488D01*
X999916Y724652D01*
X999931Y724785D01*
Y724875D01*
Y724949D01*
Y724964D01*
X999916Y725320D01*
X999886Y725647D01*
X999842Y725959D01*
X999782Y726256D01*
X999708Y726509D01*
X999633Y726762D01*
X999544Y726970D01*
X999455Y727178D01*
X999381Y727341D01*
X999292Y727490D01*
X999218Y727624D01*
X999143Y727728D01*
X999084Y727802D01*
X999039Y727861D01*
X999009Y727891D01*
X998995Y727906D01*
X998816Y728084D01*
X998623Y728233D01*
X998415Y728366D01*
X998222Y728485D01*
X998014Y728575D01*
X997821Y728664D01*
X997434Y728783D01*
X997271Y728812D01*
X997107Y728842D01*
X996959Y728872D01*
X996840Y728886D01*
X996736Y728901D01*
D02*
G37*
G36*
X1308092Y787073D02*
Y782704D01*
X1311153D01*
X1308092Y787073D01*
D02*
G37*
G36*
X1123743Y678924D02*
X1121708D01*
X1121306Y678909D01*
X1120965Y678895D01*
X1120682Y678865D01*
X1120444Y678820D01*
X1120266Y678776D01*
X1120147Y678746D01*
X1120073Y678731D01*
X1120043Y678716D01*
X1119791Y678583D01*
X1119553Y678419D01*
X1119345Y678241D01*
X1119167Y678047D01*
X1119018Y677884D01*
X1118914Y677736D01*
X1118869Y677676D01*
X1118855Y677632D01*
X1118825Y677617D01*
Y677602D01*
X1118736Y677438D01*
X1118661Y677260D01*
X1118528Y676889D01*
X1118439Y676502D01*
X1118379Y676116D01*
X1118364Y675952D01*
X1118349Y675789D01*
X1118335Y675640D01*
X1118320Y675507D01*
Y675403D01*
Y675328D01*
Y675269D01*
Y675254D01*
X1118335Y674853D01*
X1118364Y674496D01*
X1118409Y674169D01*
X1118453Y673887D01*
X1118498Y673664D01*
X1118528Y673575D01*
X1118543Y673501D01*
X1118558Y673441D01*
X1118572Y673397D01*
X1118587Y673382D01*
Y673367D01*
X1118691Y673100D01*
X1118810Y672847D01*
X1118929Y672639D01*
X1119033Y672461D01*
X1119137Y672327D01*
X1119226Y672223D01*
X1119286Y672149D01*
X1119300Y672134D01*
X1119434Y672015D01*
X1119568Y671911D01*
X1119716Y671836D01*
X1119865Y671762D01*
X1119984Y671703D01*
X1120088Y671658D01*
X1120147Y671643D01*
X1120177Y671628D01*
X1120400Y671569D01*
X1120638Y671524D01*
X1120890Y671495D01*
X1121128Y671480D01*
X1121351Y671465D01*
X1121514Y671450D01*
X1123743D01*
Y678924D01*
D02*
G37*
G36*
X1218344Y721550D02*
X1218225D01*
X1217973Y721535D01*
X1217765Y721476D01*
X1217572Y721402D01*
X1217408Y721327D01*
X1217275Y721238D01*
X1217170Y721164D01*
X1217111Y721105D01*
X1217096Y721090D01*
X1216948Y720911D01*
X1216829Y720733D01*
X1216755Y720540D01*
X1216695Y720376D01*
X1216665Y720228D01*
X1216636Y720094D01*
Y720020D01*
Y720005D01*
Y719990D01*
X1216650Y719767D01*
X1216710Y719559D01*
X1216769Y719366D01*
X1216859Y719217D01*
X1216933Y719084D01*
X1217007Y718995D01*
X1217066Y718935D01*
X1217081Y718920D01*
X1217260Y718772D01*
X1217453Y718668D01*
X1217646Y718593D01*
X1217824Y718549D01*
X1217988Y718519D01*
X1218107Y718489D01*
X1218225D01*
X1218478Y718504D01*
X1218701Y718564D01*
X1218909Y718623D01*
X1219072Y718712D01*
X1219206Y718786D01*
X1219310Y718861D01*
X1219370Y718905D01*
X1219385Y718920D01*
X1219533Y719099D01*
X1219637Y719292D01*
X1219711Y719470D01*
X1219756Y719648D01*
X1219786Y719812D01*
X1219815Y719931D01*
Y720020D01*
Y720050D01*
X1219801Y720272D01*
X1219741Y720465D01*
X1219667Y720659D01*
X1219593Y720807D01*
X1219503Y720926D01*
X1219444Y721030D01*
X1219385Y721090D01*
X1219370Y721105D01*
X1219191Y721253D01*
X1218998Y721357D01*
X1218805Y721446D01*
X1218627Y721491D01*
X1218463Y721520D01*
X1218344Y721550D01*
D02*
G37*
G36*
X1218329Y717509D02*
X1218255D01*
X1217943Y717479D01*
X1217661Y717419D01*
X1217408Y717330D01*
X1217200Y717226D01*
X1217037Y717107D01*
X1216918Y717018D01*
X1216844Y716959D01*
X1216814Y716929D01*
X1216621Y716706D01*
X1216472Y716469D01*
X1216368Y716231D01*
X1216309Y716008D01*
X1216264Y715800D01*
X1216249Y715651D01*
X1216234Y715592D01*
Y715547D01*
Y715518D01*
Y715503D01*
X1216264Y715191D01*
X1216324Y714923D01*
X1216413Y714670D01*
X1216517Y714477D01*
X1216621Y714314D01*
X1216710Y714195D01*
X1216769Y714121D01*
X1216799Y714091D01*
X1217022Y713913D01*
X1217245Y713779D01*
X1217483Y713675D01*
X1217706Y713615D01*
X1217914Y713571D01*
X1218062Y713556D01*
X1218121Y713541D01*
X1218211D01*
X1218419Y713556D01*
X1218612Y713586D01*
X1218775Y713615D01*
X1218939Y713675D01*
X1219072Y713720D01*
X1219162Y713749D01*
X1219221Y713779D01*
X1219251Y713794D01*
X1219414Y713898D01*
X1219563Y714017D01*
X1219682Y714150D01*
X1219786Y714269D01*
X1219860Y714373D01*
X1219920Y714463D01*
X1219949Y714522D01*
X1219964Y714537D01*
X1220038Y714715D01*
X1220098Y714893D01*
X1220142Y715072D01*
X1220172Y715220D01*
X1220187Y715354D01*
X1220202Y715443D01*
Y715518D01*
Y715532D01*
X1220172Y715829D01*
X1220113Y716112D01*
X1220023Y716350D01*
X1219920Y716558D01*
X1219830Y716721D01*
X1219741Y716840D01*
X1219682Y716914D01*
X1219652Y716944D01*
X1219429Y717137D01*
X1219206Y717271D01*
X1218969Y717375D01*
X1218746Y717434D01*
X1218552Y717479D01*
X1218389Y717494D01*
X1218329Y717509D01*
D02*
G37*
G36*
X495610Y701235D02*
X495536D01*
X495239Y701205D01*
X494972Y701146D01*
X494734Y701042D01*
X494540Y700938D01*
X494377Y700834D01*
X494258Y700730D01*
X494199Y700670D01*
X494169Y700641D01*
X493991Y700403D01*
X493857Y700150D01*
X493768Y699883D01*
X493694Y699630D01*
X493664Y699407D01*
X493649Y699303D01*
Y699214D01*
X493634Y699155D01*
Y699095D01*
Y699065D01*
Y699051D01*
X493664Y698679D01*
X493723Y698352D01*
X493812Y698055D01*
X493902Y697817D01*
X494006Y697639D01*
X494095Y697505D01*
X494154Y697416D01*
X494184Y697386D01*
X494392Y697178D01*
X494615Y697030D01*
X494838Y696926D01*
X495031Y696852D01*
X495224Y696807D01*
X495358Y696792D01*
X495417Y696777D01*
X495491D01*
X495685Y696792D01*
X495863Y696822D01*
X496041Y696866D01*
X496190Y696926D01*
X496309Y696970D01*
X496398Y697015D01*
X496472Y697045D01*
X496487Y697060D01*
X496651Y697178D01*
X496799Y697327D01*
X496918Y697461D01*
X497022Y697609D01*
X497111Y697728D01*
X497171Y697832D01*
X497200Y697892D01*
X497215Y697921D01*
X497304Y698144D01*
X497364Y698352D01*
X497408Y698546D01*
X497438Y698739D01*
X497453Y698887D01*
X497468Y699006D01*
Y699080D01*
Y699110D01*
X497438Y699452D01*
X497379Y699749D01*
X497290Y700016D01*
X497185Y700239D01*
X497081Y700403D01*
X496992Y700537D01*
X496933Y700611D01*
X496903Y700641D01*
X496680Y700834D01*
X496457Y700982D01*
X496220Y701086D01*
X496012Y701161D01*
X495818Y701205D01*
X495670Y701220D01*
X495610Y701235D01*
D02*
G37*
G36*
X952919Y645849D02*
Y641480D01*
X955980D01*
X952919Y645849D01*
D02*
G37*
G36*
X1141961Y742170D02*
X1139658D01*
X1139346Y742141D01*
X1139093Y742126D01*
X1138885Y742096D01*
X1138737Y742066D01*
X1138633Y742051D01*
X1138559Y742022D01*
X1138544D01*
X1138395Y741962D01*
X1138261Y741888D01*
X1138142Y741799D01*
X1138053Y741724D01*
X1137979Y741635D01*
X1137920Y741576D01*
X1137890Y741531D01*
X1137875Y741516D01*
X1137801Y741368D01*
X1137741Y741219D01*
X1137697Y741086D01*
X1137667Y740952D01*
X1137652Y740833D01*
X1137637Y740744D01*
Y740669D01*
Y740655D01*
X1137652Y740461D01*
X1137682Y740298D01*
X1137712Y740149D01*
X1137756Y740031D01*
X1137816Y739927D01*
X1137845Y739852D01*
X1137875Y739808D01*
X1137890Y739793D01*
X1137994Y739674D01*
X1138113Y739570D01*
X1138232Y739481D01*
X1138351Y739421D01*
X1138469Y739362D01*
X1138559Y739332D01*
X1138618Y739317D01*
X1138633Y739302D01*
X1138796Y739273D01*
X1138975Y739243D01*
X1139183Y739228D01*
X1139391Y739213D01*
X1139569Y739198D01*
X1141961D01*
Y742170D01*
D02*
G37*
G36*
Y738054D02*
X1139391D01*
X1139093Y738025D01*
X1138856Y738010D01*
X1138648Y737980D01*
X1138499Y737950D01*
X1138380Y737921D01*
X1138321Y737906D01*
X1138291Y737891D01*
X1138113Y737816D01*
X1137964Y737727D01*
X1137831Y737638D01*
X1137727Y737534D01*
X1137637Y737445D01*
X1137563Y737386D01*
X1137533Y737326D01*
X1137518Y737311D01*
X1137414Y737163D01*
X1137340Y736999D01*
X1137296Y736836D01*
X1137251Y736687D01*
X1137236Y736568D01*
X1137221Y736464D01*
Y736405D01*
Y736375D01*
X1137236Y736197D01*
X1137251Y736048D01*
X1137281Y735900D01*
X1137310Y735781D01*
X1137355Y735677D01*
X1137385Y735602D01*
X1137400Y735558D01*
X1137414Y735543D01*
X1137489Y735424D01*
X1137578Y735305D01*
X1137652Y735216D01*
X1137741Y735142D01*
X1137816Y735068D01*
X1137860Y735023D01*
X1137905Y735008D01*
X1137920Y734993D01*
X1138157Y734874D01*
X1138395Y734800D01*
X1138499Y734770D01*
X1138588Y734756D01*
X1138648Y734741D01*
X1138663D01*
X1138767Y734726D01*
X1138900Y734711D01*
X1139197Y734696D01*
X1141961D01*
Y738054D01*
D02*
G37*
G36*
X1130772Y742304D02*
X1130668Y741977D01*
X1130564Y741635D01*
X1130445Y741293D01*
X1130327Y740967D01*
X1130238Y740684D01*
X1130193Y740565D01*
X1130148Y740461D01*
X1130119Y740372D01*
X1130089Y740313D01*
X1130074Y740268D01*
Y740253D01*
X1129064Y737564D01*
X1132377D01*
X1131307Y740417D01*
X1131189Y740759D01*
X1131085Y741100D01*
X1130995Y741412D01*
X1130921Y741710D01*
X1130862Y741947D01*
X1130832Y742051D01*
X1130802Y742141D01*
X1130787Y742215D01*
Y742259D01*
X1130772Y742289D01*
Y742304D01*
D02*
G37*
%LPD*%
D10*
X1204660Y683070D02*
Y691070D01*
X1228660Y683070D02*
Y691070D01*
X482030Y666090D02*
Y674090D01*
X506030Y666090D02*
Y674090D01*
X1055530Y473540D02*
Y484040D01*
X979930Y659339D02*
Y709339D01*
X947930Y659339D02*
Y709339D01*
X979930D01*
X947930Y659339D02*
X979930D01*
X835540Y715940D02*
X858040D01*
Y609940D02*
Y715940D01*
X835540Y609940D02*
X858040D01*
D14*
X1293676Y641660D02*
G03*
X1293676Y641660I-1016J0D01*
G01*
X597916Y640080D02*
G03*
X597916Y640080I-1016J0D01*
G01*
D62*
X992430Y711889D02*
G03*
X992430Y711889I-1250J0D01*
G01*
X893290Y701090D02*
G03*
X893290Y701090I-1250J0D01*
G01*
D63*
X972930Y699339D02*
G03*
X972930Y699339I-3000J0D01*
G01*
M02*
