G04*
G04 #@! TF.GenerationSoftware,Altium Limited,Altium Designer,22.5.1 (42)*
G04*
G04 Layer_Color=16711935*
%FSLAX44Y44*%
%MOMM*%
G71*
G04*
G04 #@! TF.SameCoordinates,8C462A5C-675D-4BC4-B2B0-4FF287324B2F*
G04*
G04*
G04 #@! TF.FilePolarity,Positive*
G04*
G01*
G75*
%ADD10C,0.2000*%
%ADD13C,0.1270*%
%ADD66C,0.1000*%
D10*
X1042600Y758590D02*
G03*
X1042600Y758590I-1000J0D01*
G01*
X1170700Y504910D02*
Y594910D01*
X1140700Y504910D02*
X1170700D01*
X1140700D02*
Y594910D01*
X1170700D01*
D13*
X1079500Y567690D02*
Y745490D01*
X647700Y567690D02*
X1079500D01*
X647700D02*
Y626590D01*
Y686290D01*
Y745490D01*
X1079500D01*
X628650Y686290D02*
X647700D01*
X628650Y626590D02*
Y686290D01*
Y626590D02*
X647700D01*
D66*
X891640Y507930D02*
X904140D01*
X891640Y487430D02*
Y507930D01*
Y487430D02*
X904140D01*
Y507930D01*
X875565Y487430D02*
Y507930D01*
X863065Y487430D02*
X875565D01*
X863065D02*
Y507930D01*
X875565D01*
X846990Y487430D02*
Y507930D01*
X834490Y487430D02*
X846990D01*
X834490D02*
Y507930D01*
X846990D01*
X818415Y487430D02*
Y507930D01*
X805915Y487430D02*
X818415D01*
X805915D02*
Y507930D01*
X818415D01*
X789840Y487430D02*
Y507930D01*
X777340Y487430D02*
X789840D01*
X777340D02*
Y507930D01*
X789840D01*
X1241490Y696720D02*
X1290490D01*
Y657720D02*
Y696720D01*
X1277790Y657720D02*
X1290490Y670420D01*
X1241490Y657720D02*
Y696720D01*
Y657720D02*
X1290490D01*
X1211200Y638620D02*
X1227200D01*
X1211200D02*
Y646620D01*
X1227200D01*
Y638620D02*
Y646620D01*
X479320Y559880D02*
Y567880D01*
X463320D02*
X479320D01*
X463320Y559880D02*
Y567880D01*
Y559880D02*
X479320D01*
X763750Y503600D02*
Y525100D01*
X750250Y503600D02*
Y525100D01*
X763750D01*
X750250Y503600D02*
X763750D01*
X724980Y507620D02*
X732980D01*
X724980D02*
Y523620D01*
X732980D01*
Y507620D02*
Y523620D01*
X1175620Y679740D02*
X1189120D01*
X1175620Y701240D02*
X1189120D01*
Y679740D02*
Y701240D01*
X1175620Y679740D02*
Y701240D01*
X1203160Y670070D02*
Y704070D01*
X1230160Y670070D02*
Y704070D01*
X1203160D02*
X1230160D01*
X1203160Y670070D02*
X1230160D01*
X455450Y659810D02*
X468950D01*
X455450Y681310D02*
X468950D01*
Y659810D02*
Y681310D01*
X455450Y659810D02*
Y681310D01*
X520510Y639700D02*
X528510D01*
Y655700D01*
X520510D02*
X528510D01*
X520510Y639700D02*
Y655700D01*
X480530Y653090D02*
Y687090D01*
X507530Y653090D02*
Y687090D01*
X480530D02*
X507530D01*
X480530Y653090D02*
X507530D01*
X545730Y656140D02*
X594730D01*
X545730D02*
Y695140D01*
X582030Y656140D02*
X594730Y668840D01*
Y656140D02*
Y695140D01*
X545730D02*
X594730D01*
X1065780Y472540D02*
Y485040D01*
X1045280Y472540D02*
X1065780D01*
X1045280D02*
Y485040D01*
X1065780D01*
X1044130Y661440D02*
Y677440D01*
X1036130Y661440D02*
X1044130D01*
X1036130D02*
Y677440D01*
X1044130D01*
X1058950Y657670D02*
X1074950D01*
X1058950D02*
Y665670D01*
X1074950D01*
Y657670D02*
Y665670D01*
X950910Y627970D02*
X964410D01*
X950910Y606470D02*
X964410D01*
X950910D02*
Y627970D01*
X964410Y606470D02*
Y627970D01*
X958170Y638330D02*
Y651830D01*
X936670Y638330D02*
Y651830D01*
X958170D01*
X936670Y638330D02*
X958170D01*
X858040Y610190D02*
Y715690D01*
X768040Y610190D02*
Y715690D01*
X858040D01*
X768040Y610190D02*
X858040D01*
X986390Y857540D02*
X999890D01*
X986390Y879040D02*
X999890D01*
X986390Y857540D02*
Y879040D01*
X999890Y857540D02*
Y879040D01*
M02*
