G04*
G04 #@! TF.GenerationSoftware,Altium Limited,Altium Designer,22.5.1 (42)*
G04*
G04 Layer_Color=32768*
%FSLAX44Y44*%
%MOMM*%
G71*
G04*
G04 #@! TF.SameCoordinates,8C462A5C-675D-4BC4-B2B0-4FF287324B2F*
G04*
G04*
G04 #@! TF.FilePolarity,Positive*
G04*
G01*
G75*
%ADD66C,0.1000*%
%ADD67C,0.0500*%
%ADD68C,0.0010*%
D66*
X752000Y514350D02*
X762000D01*
X757000Y509350D02*
Y519350D01*
X1182370Y685490D02*
Y695490D01*
X1177370Y690490D02*
X1187370D01*
X1211660Y687070D02*
X1221660D01*
X1216660Y682070D02*
Y692070D01*
X1202660Y667070D02*
Y707070D01*
X1230660Y667070D02*
Y707070D01*
X1202660D02*
X1230660D01*
X1202660Y667070D02*
X1230660D01*
X462200Y665560D02*
Y675560D01*
X457200Y670560D02*
X467200D01*
X489030Y670090D02*
X499030D01*
X494030Y665090D02*
Y675090D01*
X480030Y650090D02*
Y690090D01*
X508030Y650090D02*
Y690090D01*
X480030D02*
X508030D01*
X480030Y650090D02*
X508030D01*
X957660Y612220D02*
Y622220D01*
X952660Y617220D02*
X962660D01*
X942420Y645080D02*
X952420D01*
X947420Y640080D02*
Y650080D01*
X1205700Y494910D02*
Y604910D01*
X1105660Y494910D02*
X1205700D01*
X1105660D02*
Y604910D01*
X1205700D01*
X823040Y662940D02*
X833040D01*
X828040Y657940D02*
Y667940D01*
X993140Y863290D02*
Y873290D01*
X988140Y868290D02*
X998140D01*
D67*
X899105Y541020D02*
G03*
X899105Y541020I-2500J0D01*
G01*
X870851D02*
G03*
X870851Y541020I-2500J0D01*
G01*
X842598D02*
G03*
X842598Y541020I-2500J0D01*
G01*
X814344D02*
G03*
X814344Y541020I-2500J0D01*
G01*
X786090D02*
G03*
X786090Y541020I-2500J0D01*
G01*
X1222700Y642620D02*
G03*
X1222700Y642620I-3500J0D01*
G01*
X474820Y563880D02*
G03*
X474820Y563880I-3500J0D01*
G01*
X732480Y515620D02*
G03*
X732480Y515620I-3500J0D01*
G01*
X528010Y647700D02*
G03*
X528010Y647700I-3500J0D01*
G01*
X1043630Y669440D02*
G03*
X1043630Y669440I-3500J0D01*
G01*
X1070450Y661670D02*
G03*
X1070450Y661670I-3500J0D01*
G01*
X1160740Y476250D02*
G03*
X1160740Y476250I-2500J0D01*
G01*
X885105Y521770D02*
X908105D01*
X885105D02*
Y560520D01*
X908105D01*
Y521770D02*
Y560520D01*
X896605Y537520D02*
Y544520D01*
X893105Y541020D02*
X900105D01*
X856851Y521770D02*
X879851D01*
X856851D02*
Y560520D01*
X879851D01*
Y521770D02*
Y560520D01*
X868351Y537520D02*
Y544520D01*
X864851Y541020D02*
X871851D01*
X887890Y514930D02*
X907890D01*
X887890Y480430D02*
Y514930D01*
Y480430D02*
X907890D01*
Y514930D01*
X879315Y480430D02*
Y514930D01*
X859315Y480430D02*
X879315D01*
X859315D02*
Y514930D01*
X879315D01*
X850740Y480430D02*
Y514930D01*
X830740Y480430D02*
X850740D01*
X830740D02*
Y514930D01*
X850740D01*
X822165Y480430D02*
Y514930D01*
X802165Y480430D02*
X822165D01*
X802165D02*
Y514930D01*
X822165D01*
X793590Y480430D02*
Y514930D01*
X773590Y480430D02*
X793590D01*
X773590D02*
Y514930D01*
X793590D01*
X828597Y521770D02*
X851598D01*
X828597D02*
Y560520D01*
X851598D01*
Y521770D02*
Y560520D01*
X840098Y537520D02*
Y544520D01*
X836598Y541020D02*
X843597D01*
X800344Y521770D02*
X823344D01*
X800344D02*
Y560520D01*
X823344D01*
Y521770D02*
Y560520D01*
X811844Y537520D02*
Y544520D01*
X808344Y541020D02*
X815344D01*
X780090D02*
X787090D01*
X783590Y537520D02*
Y544520D01*
X795090Y521770D02*
Y560520D01*
X772090D02*
X795090D01*
X772090Y521770D02*
Y560520D01*
Y521770D02*
X795090D01*
X1082000Y565190D02*
Y747990D01*
X645200Y565190D02*
X1082000D01*
X645200Y747990D02*
X1082000D01*
X645200Y688790D02*
Y747990D01*
X626150Y688790D02*
X645200D01*
X626150Y624090D02*
Y688790D01*
Y624090D02*
X645200D01*
Y565190D02*
Y624090D01*
X1294990Y636220D02*
Y718220D01*
X1238490Y636220D02*
Y718220D01*
Y636220D02*
X1294990D01*
X1238490Y718220D02*
X1294990D01*
X1204700Y635120D02*
X1233700D01*
X1204700D02*
Y650120D01*
X1233700D01*
Y635120D02*
Y650120D01*
X1219200Y637620D02*
Y647620D01*
X1214200Y642620D02*
X1224200D01*
X466320Y563880D02*
X476320D01*
X471320Y558880D02*
Y568880D01*
X485820Y556380D02*
Y571380D01*
X456820D02*
X485820D01*
X456820Y556380D02*
Y571380D01*
Y556380D02*
X485820D01*
X765636Y521956D02*
Y529572D01*
Y499110D02*
Y506726D01*
X748364Y499110D02*
Y529572D01*
X752250D01*
X761750D02*
X765636D01*
Y506726D02*
Y521956D01*
X752250Y529572D02*
X761750D01*
X748364Y499110D02*
X765636D01*
X728980Y510620D02*
Y520620D01*
X723980Y515620D02*
X733980D01*
X721480Y501120D02*
X736480D01*
X721480D02*
Y530120D01*
X736480D01*
Y501120D02*
Y530120D01*
X1173734Y675250D02*
X1191006D01*
X1177620Y705712D02*
X1187120D01*
X1173734Y682866D02*
Y698096D01*
Y705712D02*
X1177620D01*
X1187120D02*
X1191006D01*
Y675250D02*
Y705712D01*
X1173734Y675250D02*
Y682866D01*
Y698096D02*
Y705712D01*
X453564Y655320D02*
X470836D01*
X457450Y685782D02*
X466950D01*
X453564Y662935D02*
Y678167D01*
Y685782D02*
X457450D01*
X466950D02*
X470836D01*
Y655320D02*
Y685782D01*
X453564Y655320D02*
Y662935D01*
Y678167D02*
Y685782D01*
X524510Y642700D02*
Y652700D01*
X519510Y647700D02*
X529510D01*
X517010Y633200D02*
X532010D01*
Y662200D01*
X517010D02*
X532010D01*
X517010Y633200D02*
Y662200D01*
X542730Y716640D02*
X599230D01*
X542730Y634640D02*
X599230D01*
X542730D02*
Y716640D01*
X599230Y634640D02*
Y716640D01*
X1072780Y468790D02*
Y488790D01*
X1038280Y468790D02*
X1072780D01*
X1038280D02*
Y488790D01*
X1072780D01*
X1047630Y654940D02*
Y683940D01*
X1032630Y654940D02*
X1047630D01*
X1032630D02*
Y683940D01*
X1047630D01*
X1035130Y669440D02*
X1045130D01*
X1040130Y664440D02*
Y674440D01*
X1052450Y654170D02*
X1081450D01*
X1052450D02*
Y669170D01*
X1081450D01*
Y654170D02*
Y669170D01*
X1066950Y656670D02*
Y666670D01*
X1061950Y661670D02*
X1071950D01*
X949024Y632460D02*
X966296D01*
X952910Y601998D02*
X962410D01*
X966296Y609613D02*
Y624845D01*
X962410Y601998D02*
X966296D01*
X949024D02*
X952910D01*
X949024D02*
Y632460D01*
X966296Y624845D02*
Y632460D01*
Y601998D02*
Y609613D01*
X962660Y636444D02*
Y653716D01*
X932198Y640330D02*
Y649830D01*
X939814Y636444D02*
X955044D01*
X932198D02*
Y640330D01*
Y649830D02*
Y653716D01*
X962660D01*
X955044Y636444D02*
X962660D01*
X932198D02*
X939814D01*
X912040Y607190D02*
Y718690D01*
X744040Y607190D02*
Y718690D01*
X912040D01*
X744040Y607190D02*
X912040D01*
X1158240Y472750D02*
Y479750D01*
X1154740Y476250D02*
X1161740D01*
X1138740Y487750D02*
X1177490D01*
X1138740Y464750D02*
Y487750D01*
Y464750D02*
X1177490D01*
Y487750D01*
X984504Y853050D02*
X1001776D01*
X988390Y883512D02*
X997890D01*
X1001776Y860666D02*
Y875897D01*
X997890Y883512D02*
X1001776D01*
X984504D02*
X988390D01*
X984504Y853050D02*
Y883512D01*
X1001776Y853050D02*
Y860666D01*
Y875897D02*
Y883512D01*
D68*
X1210700Y637870D02*
X1227700D01*
X1210700D02*
Y647370D01*
X1227700D01*
Y637870D02*
Y647370D01*
X479820Y559130D02*
Y568630D01*
X462820D02*
X479820D01*
X462820Y559130D02*
Y568630D01*
Y559130D02*
X479820D01*
X724230Y507120D02*
X733730D01*
X724230D02*
Y524120D01*
X733730D01*
Y507120D02*
Y524120D01*
X519760Y639200D02*
X529260D01*
Y656200D01*
X519760D02*
X529260D01*
X519760Y639200D02*
Y656200D01*
X1044880Y660940D02*
Y677940D01*
X1035380Y660940D02*
X1044880D01*
X1035380D02*
Y677940D01*
X1044880D01*
X1058450Y656920D02*
X1075450D01*
X1058450D02*
Y666420D01*
X1075450D01*
Y656920D02*
Y666420D01*
M02*
