G04*
G04 #@! TF.GenerationSoftware,Altium Limited,Altium Designer,22.5.1 (42)*
G04*
G04 Layer_Color=32896*
%FSLAX44Y44*%
%MOMM*%
G71*
G04*
G04 #@! TF.SameCoordinates,8C462A5C-675D-4BC4-B2B0-4FF287324B2F*
G04*
G04*
G04 #@! TF.FilePolarity,Positive*
G04*
G01*
G75*
%ADD65C,0.0250*%
D65*
X889800Y528020D02*
X902300D01*
X889800Y532020D02*
X902300D01*
Y528020D02*
Y532020D01*
X889800Y528020D02*
X902300D01*
X889800D02*
Y532020D01*
X861546Y528020D02*
X874046D01*
X861546Y532020D02*
X874046D01*
Y528020D02*
Y532020D01*
X861546Y528020D02*
X874046D01*
X861546D02*
Y532020D01*
X833292Y528020D02*
X845792D01*
X833292Y532020D02*
X845792D01*
Y528020D02*
Y532020D01*
X833292Y528020D02*
X845792D01*
X833292D02*
Y532020D01*
X805039Y528020D02*
X817539D01*
X805039Y532020D02*
X817539D01*
Y528020D02*
Y532020D01*
X805039Y528020D02*
X817539D01*
X805039D02*
Y532020D01*
X776785Y528020D02*
Y532020D01*
Y528020D02*
X789285D01*
Y532020D01*
X776785D02*
X789285D01*
X776785Y528020D02*
X789285D01*
X1167240Y469445D02*
X1171240D01*
Y481945D01*
X1167240D02*
X1171240D01*
X1167240Y469445D02*
Y481945D01*
X1171240Y469445D02*
Y481945D01*
M02*
